<mxfile host="app.diagrams.net" agent="Mozilla/5.0 (Macintosh; Intel Mac OS X 10_15_7) AppleWebKit/605.1.15 (KHTML, like Gecko) Version/17.4.1 Safari/605.1.15" version="24.7.17">
  <diagram name="StrÃ¡nka-1" id="gzaGL7L0HHVrbGZPLo1X">
    <mxGraphModel dx="2531" dy="1103" grid="1" gridSize="10" guides="1" tooltips="1" connect="1" arrows="1" fold="1" page="1" pageScale="1" pageWidth="827" pageHeight="1169" math="1" shadow="0">
      <root>
        <mxCell id="0" />
        <mxCell id="1" parent="0" />
        <mxCell id="bMKl3xn3IZVW21BfCnT9-26" value="" style="shape=image;verticalLabelPosition=bottom;labelBackgroundColor=default;verticalAlign=top;aspect=fixed;imageAspect=0;image=data:image/png,iVBORw0KGgoAAAANSUhEUgAABLAAAAKFCAYAAADcRhDrAAAAAXNSR0IArs4c6QAAAERlWElmTU0AKgAAAAgAAYdpAAQAAAABAAAAGgAAAAAAA6ABAAMAAAABAAEAAKACAAQAAAABAAAEsKADAAQAAAABAAAChQAAAAD//FaNAABAAElEQVR4Aey9B7wlRZn3/9w4ibiA5DAkFRd0hmjYd9VN6u5+3PUVE4iLoq6LMig55yBRkVXJYREECS8rgvhXF3VVwACSkclMBGaYwOQb/s+3+j5z+5455865Mzf0OedXM327u7q6uvrb3dVVv/PU003dHkxBBERABERABERABERABERABERABERABERABApKoLmg5VKxREAEREAEREAEREAEREAEREAEREAEREAERCARkIClG0EEREAEREAEREAEREAEREAEREAEREAERKDQBCRgFfryqHAiIAIiIAIiIAIiIAIiIAIiIAIiIAIiIAISsHQPiIAIiIAIiIAIiIAIiIAIiIAIiIAIiIAIFJqABKxCXx4VTgREQAREQAREQAREQAREQAREQAREQAREQAKW7gEREAEREAEREAEREAEREAEREAEREAEREIFCE5CAVejLo8KJgAiIgAiIgAiIgAiIgAiIgAiIgAiIgAhIwNI9IAIiIAIiIAIiIAIiIAIiIAIiIAIiIAIiUGgCErAKfXlUOBEQAREQAREQAREQAREQAREQAREQAREQAQlYugdEQAREQAREQAREQAREQAREQAREQAREQAQKTUACVqEvjwonAiIgAiIgAiIgAiIgAiIgAiIgAiIgAiIgAUv3gAiIgAiIgAiIgAiIgAiIgAiIgAiIgAiIQKEJSMAq9OVR4URABERABERABERABERABERABERABERABCRg6R4QAREQAREQAREQAREQAREQAREQAREQAREoNAEJWIW+PCqcCIiACIiACIiACIiACIiACIiACIiACIiABCzdAyIgAiIgAiIgAiIgAiIgAiIgAiIgAiIgAoUmIAGr0JdHhRMBERABERABERABERABERABERABERABEZCApXtABERABERABERABERABERABERABERABESg0AQkYBX68qhwIiACIiACIiACIiACIiACIiACIiACIiACErB0D4iACIiACIiACIiACIiACIiACIiACIiACBSagASsQl8eFU4EREAEREAEREAEREAEREAEREAEREAEREAClu4BERABERABERABERABERABERABERABERCBQhOQgFXoy6PCiYAIiIAIiIAIiIAIiIAIiIAIiIAIiIAISMDSPSACIiACIiACIiACIiACIiACIiACIiACIlBoAhKwCn15VDgREAEREAEREAEREAEREAEREAEREAEREAEJWLoHREAEREAEREAEREAEREAEREAEREAEREAECk1AAlahL48KJwIiIAIiIAIiIAIiIAIiIAIiIAIiIAIiIAFL94AIiIAIiIAIiIAIiIAIiIAIiIAIiIAIiEChCUjAKvTlUeFEQAREQAREQAREQAREQAREQAREQAREQAQkYOkeEAEREAEREAEREAEREAEREAEREAEREAERKDQBCViFvjwqnAiIgAiIgAiIgAiIgAiIgAiIgAiIgAiIgAQs3QMiIAIiIAIiIAIiIAIiIAIiIAIiIAIiIAKFJiABq9CXR4UTAREQAREQAREQAREQAREQAREQAREQARGQgKV7QAREQAREQAREQAREQAREQAREQAREQAREoNAEJGAV+vKocCIgAiIgAiIgAiIgAiIgAiIgAiIgAiIgAhKwdA+IgAiIgAiIgAiIgAiIgAiIgAiIgAiIgAgUmoAErEJfHhVOBERABERABERABERABERABERABERABERAApbuAREQAREQAREQAREQAREQAREQAREQAREQgUITkIBV6MujwomACIiACIiACIiACIiACIiACIiACIiACEjA0j0gAiIgAiIgAiIgAiIgAiIgAiIgAiIgAiJQaAISsAp9eVQ4ERABERABERABERABERABERABERABERABCVi6B0RABERABERABERABERABERABERABERABApNQAJWoS+PCicCIiACIiACIiACIiACIiACIiACIiACIiABS/eACIiACIiACIiACIiACIiACIiACIiACIhAoQlIwCr05VHhREAEREAEREAEREAEREAEREAEREAEREAEJGDpHhABERABERABERABERABERABERABERABESg0AQlYhb48KpwIiIAIiIAIiIAIiIAIiIAIiIAIiIAIiIAELN0DIiACIiACIiACIiACIiACIiACIiACIiAChSYgAavQl0eFEwEREAEREAEREAEREAEREAEREAEREAERkICle0AEREAEREAEREAEREAEREAERKCwBLq7zTo6zH7+88dswYLXC1tOFUwERGBoCTR1exjaQyh3ERABERABERABERABERABERABEaieAL3UEK5WrjSbNOkh+/3v5tjEiR12zrn/YLvttlv1mSmlCIhAXRCQBVZdXEadhAiIgAiIgAiIgAiIgAiIgAjUPoGurszaavlys9deM5sxw+zFF7ttxx3H21Zb/4Xdd98zdtRRF9v06dNr/2R1BiIgAgMiIAFrQLiUWAREQAREQAREQAREQAREQAREYDAJYGm1Zo3ZG29kotXMmWaTJ2fTnDlmiFn77ru9jR9vtv32u9qv/7fV/vmfJ9lDD/3clixZMphFUV4iIAIFJqAhhAW+OCqaCIiACIiACIiACIiACIiACNQjgRCtEK4YIrh4cSZgrVhhtnp1NnywqSmzxuru7rT77/+zPf7YU7Zw4Tizpqk2c+b/WFvrPPvKMR+1z3/+/2pIYT3eJDonESgh0FqyrlUREAEREAEREAEREAEREAEREAERGHQC4dcKgQqhatEis6VLzVatykSrzk6zlhazUaMyMavZxwt1uvP25cs77YUXlrtPrK1ss81bfZ9x1mRjXPja1L5x5YM2beosO/W0o+xtb9vHmlC9FERABOqSgIYQ1uVl1UmJgAiIgAiIgAiIgAiIgAiIwMgTQLTCrxWiFWLVvHmZX6spU8zmzM4srxgi2NZm1urmFYhZy5Zl+yBouVJlXd1d1tnZ5cJWm40Z3eKiVpt/ldDnvn306Da7994/2ec+e4b97GePuMilb5SN/FVXCURgaAjIAmtouCpXERABERABERABERABERABEWhYAuhIHW49FYIUrqpimGAYSSFYjWrP4hG4Ih5o2FGFFsV8zuxOF8FWJeGKvDo7W9L2pUu7bdy4Ufa73y22D3zgBPvWt77oTt7/zQUxV8QUREAE6oqABKy6upw6GREQAREQAREQAREQAREQAREYGQLxBUH8WmFFhdCEY3YsrBCzEKgQoxgaSCCeuGbUqp5taYP/ydtRYVX1yrwuW7a8y625WpJFV4hbHR3dLox1ej4+9rB7C/vKl2/y4YYz7Ljjvmg77bSjH0uDjoKp5iJQ6wQkYNX6FVT5RUAEREAEREAEREAEREAERGAECCAiMSFOMSFIYWXFHB9XWF+xHUursK7Cp1UaGujljbgkVqU/lU/CRxD6MUb5MMLuJFYtW47q1Rs4TktLs1tebWrXXfdrmzH9VTtm0uH2nvccbO3tbualIAIiUPMEJGDV/CXUCYiACIiACIiACIiACIiACIjA8BFALAq/VohVWFoxX+bWVmt6BCpEq9GjM79XkT58Wg24pGvFrRYfLthlrT48cNnydS2rENFwAt/ePsoefPBFe+mlb9hXv/Zh++xnP+2WWH0FrwGXQTuIgAiMOAEJWCN+CVQAERABERABERABERABERABESg2AUQoJoYHrlyZDRHE2grH7MQlccq3u3aUxK2wwELoYtqokLSntSqWjzZEvCrflV21qtvL0+1lbfehhIvs+ONusT//+UW78MJz3BKs/D4bVTbtLAIiMGwE1pWth+3QOpAIiIAIiIAIiIAIiIAIiIAIiECRCYSlFULV/PnZFwRfesls6lSzV17JhgqSBmurlT5kEJ9X7ms9BUStwbB7yr4s6Dm5gpb+dbuZlY3zifm6gfIgto0Z0+aWYS125RW/so8depS9+OJLLrTxaUMFERCBWiQgCboWr5rKLAIiIAIiIAIiIAIiIAIiIAJDQCAsrRiOx5cBEaRiYpgg8fhFx38VE+mxyMLfVfhLT7ZSPQZTPbONKinH8CP51OTWXN3W6Y7cm6ytj6P3cgdY7k7fN9m02Yc2jrb7759mc+eeZaefcaT9/d+/z31lqStcjpniRKDIBGSBVeSro7KJgAiIgAiIgAiIgAiIgAiIwBATCNGKoYCIVK+9ZjZrltn06WYzZ5rNm5f5uQqn61g4sYzAxT5JzBrCMmYWWH6AJhexUmHpxrrJVwULrHxR3ljalXZpahplv//9XPvaV79l1157iw99dJMyBREQgZoiINm5pi6XCisCIiACIiACIiACIiACIiACg0MALSiGCCYn7MsyoWqZzxlph7UV4pT7TDfi0tA8F6/4IiDilW9aawWVjKQGp1jr5JJZYMXBGETI0EEELEpQXSCPUaPaXZRbbmecfrv97nfP2mmnfcn22muv6jJQKhEQgREnIAusEb8EKoAIiIAIiIAIiIAIiIAIiIAIDB8BhCiG/OGEHeuqadPMv9iX+bdauDDbFtZWpEO8QgBC1GLfCEMpWsUxmOctsDq8EB2dLlw1lfd/ld8vv0z5V67sti23HOVDIlvse7f90T7zmTNdyPp9PpmWRUAECkxAAlaBL46KJgIiIAIiIAIiIAIiIAIiIAIbSyDEJ6ymGDmHaMXwwHDGzpBBtpGuvb33K4NrPI5AfMyHS7TKjth7XC9FTxl8SGBORMunW98y5/HKK2t6LMtG2WOPzrPPHHGm/eQnj7i41eN5fn2ZaLsIiMCIEZCANWLodWAREAEREAEREAEREAEREAERGBoCIVphQYUT9viCIF8PxK8VXxAMx+tYVYVVFmmTk3Yv1kiIVeVoYIEVZeG8NlTAyufd2dlto0a320uTV9mnDz/Drrj8Ovf7NTufRMsiIAIFIyAfWAW7ICqOCIiACIiACIiACIiACIiACGwIgSTuuMDDUL8QrhCk8G+1YkXmcJ1t+LSKoYAtPhIPX1eEGDbIcghGLI904LyiQJS/uwvfV9hiVO8Dq/QcyBMLs+bmVnda32Rnnvk9e+bZKXb88UfYhAkT+rAo3VfrIiACI0NAAtbIcNdRRUAEREAEREAEREAEREAERGCjCSRxx3NB2GEY4MqVmcXVokWZcEU8E1ZVrd77Q9jq8vUuF3CSiMNXBH3/IglW60BJJ5mJVWtWe+GTE/dRPfN1UlcdgRUWbJqaEMM2sXvuftKt0+bZ6ad/1v72b9/nvNRdrhqmEorAMBDgSVUQAREQAREQAREQAREQAREQARGoMQIx7A+xqtQZO3FrXJxCuCIdFlg4Y0ep4iuCIXxxyoUWr0rK19XV6hZYdGPdjCxZYflsIwMsutyqq62t3X77m1fssMPOtuuuu8UZFZ3MRp64dheBGiMgSbnGLpiKKwIiIAIiIAIiIAIiIAIi0JgEMqEls6hCkMIhO0MEEaZYZzvDABGscMbOthgWGPNalGR6hSQ/uSYXrtJJIGJlVlmDdTdgwbbZZu226PUmO/o/rrfnn59ip5xyjG233bbOcXCPNVhlVj4i0EgEJGA10tXWuYqACIiACIiACIiACIiACNQUAUQpJvxUxfDAEK+YE5+crru+wnA4Rr11etwyhgbmNBcWyacWQ2+5m1yyogvLMELmuRMchBPr6Oi2xYs7nWezc9zU/vPqX/mQwtfspJOOsokT326jRjFsUUEERGCkCEjAGinyOq4IiIAIiIAIiIAIiIAIiIAIlCGQF63wWYVQhTUVFlesYylEGhywI1qFiMWQQaZyoUa1q3QqvRZYcWYIV37yaYq4wZtjwdbS0mSjR4+1hx58yaZP+7odM+mj9slP/ouNGTNm8A6knERABAZEQALWgHApsQiIgAiIgAiIgAiIgAiIgAgMDQFEKQSpvGi1ZElfZ+wcmeGBDBvEwirELkSXeg2cYxZioStZYnXbWI9+3aeI70k2CLM1a7qTX6yurjZ75pnX7eSTbrQpUybbeeed7hZag2v5NQjFVRYi0BAEJGA1xGXWSYqACIiACIiACIiACIiACBSVAOITVlRYWTEhWjHHmiqGATJH3GLCAosQwg5ySiynDXX2p9cCq0exS+eHBZYreWkY4eALWByCrxRmodUWLOi2iy582J588k92443/adtuu23PNs1EQASGi4C+QjhcpHUcERABERABERABERABERABEXACiE1hacXXAmfPNps6NZtmzjQjLsQqxC2GEDIRV872J2SWxoDbbd1NnHGbsxjt86Hv0nK92tqafUjhOPvxQ6/ahz70BXvwwZ/6NfGLoiACIjBsBIb+aR+2U9GBREAEREAEREAEREAEREAERKCYBPKiFb6sXnvN7OWXzaZPN5s1y+yVVzIn7VhaYY2FcBXWVmGFVcwzG/pSdXWVSnSZgGU2zg9eTtIb/DKtXt3tQzfpPo+yPz25xI6ddJXddNP3bflyiViDT1s5ikB5AhpCWJ6LYkVABERABERABERABERABERgowggWjEhSIVfK8QrJoYBJmfsLlS1eK8sBKsQsNinXCiVcsqlqbc4hhCuPe8mB8ZaE2KSDyNcu2Hoz3rJEjeB89Dc3OYWc8vsnLPvsOeff8lOOOFLtssuOw99AXQEEWhwAhKwGvwG0OmLgAiIgAiIgAiIgAiIgAgMLoFyohU+rWIYYGxva3MH7StdEOmxuBrcUtRRbohUSaiKBRexurG8Gh7rq1KSWMaNGdNmi5d02XXX/tp++5vn7FtXn2zvfOchpUm1LgIiMIgENIRwEGEqKxEQAREQAREQAREQAREQgcYkgCiFsIGl1cKFvX6tJk/OlsPqCsuqlS5aYX21fHnGCusrwsjIMdmxi/w3aVe5AjYVgNSKFV222q91V9co++MfF9vhh51p99//I3e8X8F0Lld+LYqACGwYAQlYG8ZNe4mACIiACIiACIiACIiACDQ4gRCtEKRwvD5vXubTatq0TLTia4KIUzGBKw0bdEWGoYKlvq1KhZoGx7v29DMfWHk6LI+cBdbagvkCgmRbW7vNmNFh//Gly+2qq663+fPn55NoWQREYJAIaAjhIIFUNiIgAiIgAiIgAiIgAiIgAvVPANEKQWrNmszaCisqhgcyYX2FoEGaZjcVYJk5aQmlFlakUxg4geQRCx9Y3e2+88jbZHR0dPsXCtvs9de77Mwz/sv++IeX7LjjD7cJE97hImXpVR/4+WoPERCBjIAELN0JIiACIiACIiACIiACIiACIrAeAohWMfwP0SqcsSNOsY3hgyFasY5uQVwEZAzpVUFjYHOcuGcBikyIVwhXxRCwKB6Wdc1+A3R1jbM77vi9TZs+10477Qj74Af/PsVn5ddfERCBjSEgAWtj6GlfERABERABERABERABERCBuiWAMIEIhTiBhVWIVjhjD00lRCqsr9Ya2/h+ycd4jkxIMLkoLVZJIFiTvNvFqyajG4sdFnMErZEPnZ3dawXL1tbR9tij8+0//uNyO+mkWXbkkYe50/cxI19IlUAEapyABKwav4AqvgiIgAiIgAiIgAiIgAiIwOARQCzBggrLKgSrZct6hwjGkEC2kw5hK6ytKEFeaJG51WBek7z8F0MG/SIUSMDKny1DCjffot1mvbzGjvnKtfbSSzPtrLO+ZltssUU+mZZFQAQGSEAC1gCBKbkIiIAIiIAIiIAIiIAIiEB9EUB4wpIq/FohWuGAPfxacbYMDyRNWFyt9WtVDAOg+rogJWeTFwZ7cbNUHAuskiLb4kWdbpHn1mJNm9s3v/GzJGKde+6xtu++b3On722lybUuAiJQBQEJWFVAUhIREAEREAEREAEREAEREIH6IoAoEpZWDP9DtMLiCv9WiFNYV0XA8orhgSFaRbzmw0Og1wdW/njdPniwzQ3dRnukX7wCmrxxj3X7WNL29nH20IPTbe7cc2zSpE/Yhz/8Adt8883zJ6NlERCBKghIwKoCkpKIgAiIgAiIgAiIgAiIgAjUBwFEK6yo8GMVohVzBCvi2U5ArIrhgd3E9Zj+MMsPaCOtwtASSELQOofgKmDJhCP34oa437beeqw9/dRi94l1g7344jQ78cQvScQq7mVTyQpKQAJWQS+MiiUCIiACIiACIiACIiACIjA4BMLaauXKTLRCsFq0yIz1zEomE6tYzltecXTiUuiZx2pPrGbDQGBdCyx34J6URPxhhU+sYSjIBh4CYXTBgg6/l1rttVe77bJLH3QR6wX/WuF1Gk64gUy1W2MSKP7T3pjXRWctAiIgAiIgAiIgAiIgAiKwEQSwfGHoH0MCFywwmzXLbOrUbGIZCyyEBSytGB6ImJUXr9Z+UXAjyqBdB5HAOsohEW1pGGEtiFjcj5kY2uTz0XbfvVNt4sR/sEce+bXfe37zKYiACKyXgASs9SJSAhEQAREQAREQAREQAREQgaITCEuqEK2wsJo712z6dLMZM8zmzDFbvLjX4grhirTMEbnyglUy7llHMCk6gfotXzkLLL+SfsKjfBrrE1esNgKiaXNzk0+j7blnu+2IT59rN9zwfVu48PXaOAGVUgRGkICGEI4gfB1aBERABERABERABERABERg4wggXIUl1So3ZHnDhwfy9cBwxp4csPshOnssshCsSB8hiVWx0jOXdlUCZIRX1w7jXFsOv5gE/8qfdbdkyzX0d/Xq7A5ramqz2bM77Lxz73DrwBl23HFfsB122L6GzkRFFYHhJSABa3h562giIAIiIAIiIAIiIAIiIAKDQCCcYyNUIVi94V8QxLfVGreqim1YVfGFQUJYaGVrvX8lVvWyKOpSXwss939lXcnmii/8JdO5Gr2I3JMtLS32+utdds13H7E//OEZu+yyk+yAAw4o6qVQuURgRAloCOGI4tfBRUAEREAEREAEREAEREAEqiVAhx+LqqUuVr3yitnLL5tNmZINEVyw0P1YuViFdRWiFT6umBCzev0PVXskpSsSgXUtsCgdtnNMtR24X8eMafUhhaPsV7981f7u7ybZ3Xff64JrjapytX05VPqCE5AFVsEvkIonAiIgAiIgAiIgAiIgAo1KgD48E518hCsEqSVLsglrK+La2jIjHIYGujFLSgOvvE+rtO5/JAlAovbCulpOXEkELLq0tS1kLVniNzhn0jrKli5psS8f/Z82c+YrdsQRh9pWW221zr2cEuuPCDQgAQlYDXjRdcoiIAIiIAIiIAIiIAIiUGQCMQQQUYoPtCFWIVxhWcWEoIFAxZx1BC4m4pJw5fFIHMgazAkxz9b0t6YI9FGwuKr+JT+uqPuQsm4cudfHwKKOjm5rb2+1RYu67Jyzb7dnnp5mx371cNt337/0+5rzVhCBxiYgAauxr7/OXgREQAREQAREQAREQAQKQQCNAuFq9erMigrRapn7tlrhAhZCFvGEELfoz2OBFSH693mtQ6JV0KnteVfPheQaZ9e3ySUsVvhfH+JVXKE1a7qtta3Z/bqNsltv/Y09/8IcO/HEQ+3DH/4nH2ZYX+ca56y5CFRLQAJWtaSUTgREQAREQAREQAREQAREYFAJIEYwIUThjD2GCOLjirjYjmiFpVWETMSItb6WVr2xWqoXAviD6tGwek6JLw8Sw1Rfog739pr0lUKX6JrG2GOPzrFjJ11n06a9bF/4wmdsk0026WGgmQg0HgEJWI13zXXGIiACIlCzBLq8B/OnP/3JOznL7cADD3Qz+/aaPRcVXAREQAQamUBYUTE8kInhga+/ni3jxwpDEzrypMP6Km9pFdwYUIV8QYh5tqa/9Uags9OvcO4iN5kPHTTM74ikS8vdUH+B+7+trdU/VrDKTj3lLvvzn2fb2WdPsu2227b+TlZnJAJVEKgvubqKE1YSERABERCB2iXw5JNP2sSJE+3QQw+1u+66yzs13qtREAEREAERKDyBvBiFpRVi1axZ5lYlZtOnm82dmwlVMSxwtVtbvcHwQXfannxb+RnGEME42ZyeEVGa1ymBJGDlFay0jGjFRJe2PgUsLidDCkeNavIhtO127TW/saOOOsOeeupZF3dd3VIQgQYjIAusBrvgOl0REAERqAcCWGCdcsop/qv9Svv0pz/tDTscuCqIgAiIgAgUjQB9bKyn+L0BMQq/VghYYXkVffBwws484kKwQvxKIeZFO0mVZ4QIcEMwYY2NRZbfYHUaVq3iPBlS2G4P/miKi76n2Omnf84++MH32uabb16nZ63TEoF1CUjAWpeJYkRABERABApO4LDDDktDCU899dQ0nPALX/iCjR49uuClVvFEQAREoDEIhLUVPqsQrbCkQrhCtELMQqAKYSuGBoZoFYSwp5FeFTQ0xwdW+dDtsk673yuIWI1x1zCk8Llnl9tXv/pd+8MfXrRJkw6znXbasTwexYpAnRHQEMI6u6A6HREQARFoBAITJkywG2+80X1AbGcXXXRRWl4dn6dqBAA6RxEQAREoGIG8aIU/q1deMZsxw2zq1Gx4IE7ZqaYRtRCtELZYR7jq9qk0VJIrStNpvTEIhH4VVnmZuumO3dPIwTaXrhrDLgMOHR08Hc02f16H/efV/58LWRf4ENx5jXEj6CwbnoAErIa/BQRABERABGqPQJO3YPfee2/78Y9/7L867mTnnXeeff/73/fOUM831mvvlFRiERABEahJAghQMTzwtdfMZs7MRCt8Wy1alPmvijQMHUTAwhKLjvhaMaImz1yFHk4C5S2wEHJQP8f6NManpGb5vL5Dr5iHX6wmu+fuF+wDH/iMW6Y/o3ZQfV96nZ0TkICl20AEREAERKBmCeywww527bXX2lve8hY744wzkmN3iVg1ezlVcBEQgRogQOcZP1X8XsCwwAULzL+Qljljx+IKyysEKkQrLK1IFz6viMtLDNERR4ZQEIEBEUg3EuIVgS5t43Vr4/lpaWmzp5/qtPe/72i75prb7dVXX01U9EcE6pFA4z3p9XgVdU4iIAIi0MAE9ttvP7vwwgttzz33tJNPPtluuukm7zx570lBBERABERg0AiEFRWi1cKFZnPmZF8PRLxCtFq8OLOuCnELSyumvGEsmoPEqkG7JA2VEWJN6b3Tba6QJknUu7QNas7Hc0loamr2L3u221ln3mEXXPBdd/LuarKCCNQhAQlYdXhRdUoiIAIi0EgEWlpa7KCDDrJLLrnEdt55ZzvrrLP8F8hrJGI10k2gcxUBERgSAmFthWj1+uuZL6vp0zPfVohW+LXi94K8WIVg1eFfHIzQx+IqIjUXgQESCGuj3t0yOcu/y9cb1aBLnZ3uCyzhaPJnsttuuP5XdvTR59njj//B40tlvwaFpNOuGwISsOrmUupEREAERKBxCSBiTZw40e644w5705velBy733LLLfIF0bi3hM5cBERgAwnQ38WqA2EKq6r587PhgZMnm82alQ0bxOcVE0IVwwNZxvIqrEHoMke/Wd3nDbwQ2q0PgSTEVLyZJGIFLJ47BOWHfzzdPvAPJ3q76E5/LmOoZaTSXARql4AErNq9diq5CIiACIhAjgCO3XfbbTe7//77bfz48cmx+1133SURK8dIiyIgAiJQjgCd3hj6h7UV1lXhjB2LqzfeyPYiHWIVohVfEVzpHWUFERgOAiGI9h4L0cpvyDTRpeUrhBKy0KrwPdfV1ewfUWi2oz53rQ8pvNItKBfJGsvvEIXaJyABq/avoc5ABERABEQgRwAR61vf+lb6SuFpp51md955p0SsHB8tioAIiAAEQrTCWgOBii8Izp6d+bXC0grn7AwHjA7xWtHKLbPWFRPEVASGlkD5oXAhYLX7wZkkYOWvQnMzXylssUsveciOP/7r/pXCZ2WNlQek5ZokIAGrJi+bCi0CIiACIlCJAJZYEyZM8F8cL7Ddd9/dTjzxRLv++uvlE6sSMMWLgAg0FAHEJ4SptaKVi1V8PRDRCsurJUuy7Vha5f1bdfkQQQURGCkCpaIp0lUmWjW7bIVwRbdWAhZUImQjB5v8WW+2/7r1MfvKl6+wBx98WJZYAUjzmiQgAasmL5sKLQIiIAIi0B+BcOx+xRVX2I477piGE1533XXuF0LjXfrjpm0iIAL1SYDOP8OKGB64aFGvM3a+IIilFfGIWgwjpJpEuErO2H0f9k1TfaLRWdUwgaZkdcUJtPRMNXwyQ1T0cH/V0dFqv/71DHfufrVdddW3/VmXIj1EyJXtEBOQgDXEgJW9CIiACIjAyBBAxMIS67//+79tm222sfPPP99uu+0299/iZgUKIiACIlDnBBCd6LxS5fG1wHDGPmWK2Zw5mUiFqLXKhSv8WSFiMUww74zdDVoVRKAQBEqHEGa3ZtygzBGxFPoj0N7earNeXm2nnnqnC1knep3gX2hQEIEaIyABq8YumIorAiIgAiIwMAI77LCD3X333bbXXnvZ2WefbTh2l4g1MIZKLQIiUBsEEK3CiipEK5ywT5uWOWVHpELQQpjCyophhIhXCFmlAUmA/BREoAgE4l7sK6pyl8bQwTZflojV37Vavbrbxo1rsZUrRtl11z5uRx55mv3xj09qSGF/0LStcAQkYBXukqhAIiACIiACg01gzz33tMsvvzw5dj/11FP9s9J3aDjhYENWfiIgAiNCICytGPqH/6pX3Y8V/qzCr9Wrr2bWVaQLv1ZvuEVWjKhGEEAGKA3SrkqJaH0kCYSA1bcM3KUxjfZlRCyF/gi88UaXC1buNaxptD3845fsi1883x544GEXsl3JVhCBGiAgAasGLpKKKAIiIAIisHEEmpub7YADDkjDCHfbbTc74YQTDJ9YKzFBUBABERCBGiMQohV+qrC0wo8V/qwQrWb78EDWsa5CsGIiHf1TqrzkjL1EsZJYVWM3QAMWt6yAlW7cbpew6NK2+oQFVsnN3YCsqjllRKzW1lH2xB8X2r//+6V20UVXu/DtnyFVEIGCE5CAVfALpOKJgAiIgAgMDgF8Yh188MF29dVX23bbbWcXXnhh+jqhHLsPDl/lIgIiMPQE6MTHEEGcsc/2/ibDA6dONXv99UygwrIqL1ghYDFEkH2xtkp9/qEvqo4gAoNLoKyCxSHc0Zvf10021pfbB/eYdZwbOKkXxo5tt/nzmuyKyx+0r371YnvhhRfr+Kx1avVAQAJWPVxFnYMIiIAIiEBVBLDE2nfffe2nP/2pbb311nbuuefa97//fbdQ8B6eggiIgAgUkECIVohSDBGcNy+ztEK0Ypnqq9WNT3DYjo8rpmRp5evxBTJOC7uUihpAAc9bRRKBPIEuF1zKi68RKx9YeV7VLFMfMKSwq6vZ64w2u+fup+yIT59gL700WX6xqgGoNCNCQALWiGDXQUVABERABEaSAF8lvP322+0tb3mLnXnmmfaDH/xAItZIXhAdWwREoA+BsI5AiEK04mNhDA/E2oo5QwRDd+fLgVhjLfV0WGeV+rRCuCJENz9b018RqDEC3MClN7Hf3N3GD1Dc5erWbswVpc5pbx/lTt2X2vvf/xn/avPdbtXpZp0KIlAwAnrSC3ZBVBwREAEREIHhIbDPPvvY17/+ddtjjz3s5JNP9sbabXLsPjzodRQREIEyBOhAYjGFaLV4sdkr7ow9/FrNnZuJVvixCnGLoYJYW2GZRVzqw/fkm+/n55fLHFZRIlATBPB01TfEepff+iHTxrxvSq2tnwB1CH6xWlrabc7s0XbU5y5zv6H/aZMnT1n/zkohAsNIQALWMMLWoURABERABIpDgOGEBx10UPKFtcsuu9hJJ50kx+7FuTwqiQg0BIEQrUKMeu01s5kzMysrRCssq7CwwtqKiXQIXIhW+K8hqMuecdDf+iaQRNp+T1FPQr94qti4Zo3bs/mEM/zOzk3tu9/5HzvxxMvs8cd/7+K6q+sKIlAAAhKwCnARVAQREAEREIGRIYBjd0Qsvki47bbbJjHrpptu8s6h9w4VREAERGCICNAZD2fsjNIJZ+wMEcT6CnGK/iKCFQIWU4hW+Y48XXa6mwoiUO8E8vd9+XPlaVDXtjybgcXCuru72adW+9EDL9oRR5xu9933376u2mZgJJV6KAjoKR8KqspTBERABESgZghgifXWt77VfvKTn6SvE+LY/a677pKIVTNXUAUVgdogQN8P0QoLKiyr5vgXBKdPz74giI8rRCqvjlIahgYiZJEWISv1G3v6jnk7E3Una+Paq5RDSaBncGHTKD8IjtzzT8hQHre+86bOWb26233qtdlLf15jh370Arvoosu8TvJKSUEERpCABKwRhK9Di4AIiIAIFIfA9ttvbzfccIPtvffedtppp9ndd9/tpvQ4h1UQAREQgQ0jQCcQayp8VyFa8dXAGCKI1dXChb2O16lucNi+dGlmbZU/IvmEWBXz/HYti0C9E+jiM4R9QghVozMfWG4xJAusPoA2egXxHBGLIYVNTVvYOWf/t02adIZ/pXCK12s9Y5g3+ijKQAQGRkAC1sB4KbUIiIAIiEAdE9hvv/38F8aLbPfdd3e/DyfazTffLMfudXy9dWoiMBQEEJuwtEK0ii8IIloxIWAhZDEckP54iFtvvJFZW7EvXxEkRPc8W9NfERCBUgJIK/7tPJ94Wlp8UtfWIQx6yOqlJrcQHWO33vK4/fsXz7WHHvqZRKxBJ60MqyHQWk0ipREBERABERCBRiCAT6yDDz44fZ1w0qRJdsYZZyQB66ijjrLRo0c3AgKdowiIwAYQSBZSPcIVfqsQpBgCyLBAxKwILCfxyi0bEK/YLx/ohkdUzPPbtSwCjUognpWYwyETeRGteMiYS8ByCEMSsMbq7Gzyqd0eeWSmzZjxXZsyZYodc8y/u7Al7kMCXZmWJaC7rSwWRYqACIiACDQqAUSsAw880P7rv/7Lttlmm+TY/dZbb/VOpxy7N+o9ofMWgUoE6EyHXyuGA86Zk/m1whk71lfhvyqGByJsIXCxzr6l1lYSrSqRVnyjEwgH4nkBK2OCjBXiFbYZmazV6LyG4vw7OtzfWHeTT202deobdvpp99kXv3isD4X2yk9BBIaJgASsYQKtw4iACIiACNQOgSbvVe655572wx/+0HbaaSc755xzkk8siVi1cw1VUhEYKgJ0oGPoH18QTKKVC1aIVrNmZdZXbe5LutMtrN5wf1YMGcQpe4hZ+e51dMYlXA3V1VK+9UKAZ4XnJJ6Z7LziyXFn4+nfWI/WAKPhueZNbmHaZDfd+LQdeugx9oc/POn1Ys7cdHgKoaM0IAEJWA140XXKIiACIiAC1RHYdddd7dvf/rbttddeduqpp0rEqg6bUolA3RHIi1YMDZw713wITebXiuUlLlSRBosqjDURtt5w0WqNi1hhZQUUlqPLXXeQdEIiMIQE+gpXcSAeqCRr+XNFt1YWWEFmuOZdXW32Pz+fY58/6iL77/sfkl+s4QLfwMeRgNXAF1+nLgIiIAIi0D8BLLEmTJhgF1xwge222252/PHH20033aTPSPePTVtFoC4I0C/OO2PHATui1fTpZvPnZ18LZCggaZjj74oJAavZ+9WlgajynfDSlFoXAREoJdDNVw/KPkDpyepRinHkXubhK81M64NMoNWefHKBffWr37HLLvuu149eQSqIwBARkIA1RGCVrQiIgAiIQH0QwCfWIYccYpdffrntsMMOaTjh9ddfr68T1sfl1VmIQB8C9I8Z6ocghb+qV17JrKwQrRCwiEOgQrTClxVDA1e4aLVyZTassE9mJSvYiSiIgAhsGIHKzw9bmOjWjvFJQwgdwgiEZnv55dV2/nn32he+cL796U9Pud5Y+aqNQAF1yDohIAGrTi6kTkMEREAERGDoCCBiTZw40e69917baqut7Pzzz7fvfe973sn1Xq6CCIhAzRNAtAq/Vvgjnj3bLa2mZX6tcMYeXwxc7aLVUh8uyBSiVbk+mrptNX9L6AQKRoBntHLgicPyyp3P6UuElTEN+Rb8YrXajx543j575Pn2m18/KhFryJk33gEkYDXeNdcZi4AIiIAIbAABhhPusssuds8999j48ePtrLPOSj6xJGJtAEztIgIFIIDwhAaNFdVa0Wp6NkwQa6sVblXV3p5ZW5EG31fLV/QdxeTVgnxaFeBaqgj1TYBnlS/glQ3pGXRncwhYTeralmU0zJFdXc32xBML7bDDzrI777zfLVe9AlUQgUEioKd8kEAqGxEQAREQgcYgwNcJr7zyyvSVwpNPPtnuuusuH1LkY4oUREAECk8gRCt8VfF1QL4gOHOm+dCXzK8VQwSx9ECYQtxKzth7hg2WOznyUxABERh6AjyX6z5uEZN9hTCJWENfFB2hKgLNXrd221Gfu8xdL1xtkydPkTVWVdyUaH0EJGCtj5C2i4AIiIAIiECOQHNzsx144IFpGCFfKTzuuOPshhtukGP3HCMtikCRCCAyhc+q+IIgPq2YXn0182sVQwTxa4W4lXxbubUVQpaCCIhAAQigVYVe1ac4efGKrq26t33wjOgKQwrH2hWX/9jbSlfab3/7uP9A0O9Y0BEtrQ5eGwT0hNfGdVIpRUAEREAECkQgHLtfddVVtt122yUx68Ybb5Rj9wJdIxWlsQkgWtFPwjgSf1UIVbNmZX6tcMyO/yq2I2yxjOUVohUCFpZXbJN41dj3kM6+WATKOwRHYWbysb7W4kuj0tz/KBSIQHd3mz304It29NGX2Q9+cL+s1gt0bWqxKBKwavGqqcwiIAIiIAIjTgAR6x3veIc9/PDDtuWWW6avE955553upwNfHAoiIAIjQQDhikcQK6oFCzLRato0sylTMhGrs0eYQthieCDiFqIVQlbeMIAusYYHjsQV1DFFoDyBssZXa5O2+BLdWr5AyLJC0Qh0dDTZn55cZIcfdrldeunVXt96ZawgAhtAQALWBkDTLiIgAiIgAiIQBLbddlv7/ve/b3vttZedfvrpybG7RKygo7kIDD0B+kFYTSFavfZar6XVjBmZaIVYNXq0d2+91YulVfi1KlcyhCtC/53lLI3+ioAIDB+B/gVlnlwmdW2H74psyJGa/MeCMXbG6ffbZ444xodxz/R1//VAQQQGQEBP+QBgKakIiIAIiIAIlCOwzz772CWXXGJ77LGHnXTSSXb77bdrOGE5UIoTgUEikBetEKTS8MDpmUN2hgimrwW6sEWnN6ytlizJhC6KwPDAEKvyRZJwlaehZREoEIF+H854munaxnKByq6i5AhwfUb5D3/P22ePPMOt2B/xHx/81wcFEaiSgASsKkEpmQiIgAiIgAhUIoBj94MPPtguvPBC22mnneyEE06QY/dKsBQvAhtIADGKH+tXuHN1viA4e7YZVlYMEZw3LxsyiIUVQwjxa5V3xl56SPLy/woiIAI1QqD88xqxiCJMDB9krlB0Ap2dLfbLX86yY4/9tl1zzfe8XvdKW0EEqiAgAasKSEoiAiIgAiIgAusjgE8sRKxrrrnGttlmG7vgggvs5ptvlrPS9YHTdhHohwBCE9ZW4Ywd66qZM82mTjWbOzcTrXC+jmDFMELEKwSu5Izdl9k/grq1QUJzEag9Avlnubf0pU81XVv8YCmUEmhvbrLRrcXq+nd1tdjkl5bYuefca5Mmnar2UulF03pZAsW6i8sWUZEiIAIiIAIiUBsEsMT6y7/8S/vpT39qW2+9tZ199tn+xZ0feMfae9YKIiACVROgs8pjg0UVohWWVpMnZ87Y58/PvhgYohXpwgl76uT6vtGtjTkHzmlZVZdDCUVABIpBoNuF7PKBJzuedMSrTXxSFzfPqtnHTI9qbbF2b6MEqfz2kV1ussWLO+366560//N/PmrPPfe8HLyP7AUp/NH1dBf+EqmAIiACIiACtUZgu+22S9ZXe++9t5166ql2zz33SMSqtYuo8g47gfBrhUVVWFoxPHD69GyIYAwPxMqKCdGqnP/fvFCVXx72E9IBRUAEBolAtwvQlZ7mvCSDQNM2SMesn2xaHFGLi1huhFXg0GqPP7bM/u//Pc3bTD+yZcvkF6vAF2tEiyYBa0Tx6+AiIAIiIAL1SmC//faziy66yMaPH598Yt12221y7F6vF1vntUEEsJYKSyv8VS1Y0OvXimGC892vFb6uGA6IYLWOpZUfFWfs5UKlrm65tIoTAREoPgEE7srPNVt8akK8GuMTvrAUgkBT4cWrKGmLvfjCEm8zXWdXX32zLVzoX+hQEIESAhKwSoBoVQREQAREQAQGgwA+sQ455BC7+OKLbccdd0yWWNdff71ErMGAqzxqmgCiFZZTDAHkC4I4YMfKiinv12p1j0+rsLYKwStOHu2KOAUREIH6J4CA1Y+C1QPAhxA2jfblCsp2/WPq9wxro75stpkzVthFF95nX/jC2fb00894Pa+Kvt8L22AbJWA12AXX6YqACIiACAwfAUSsgw46yG655ZbkE4uvFN56661yVDp8l0BHKhABOqBYUy1ZkllXhV8rrK2wvsIKKzlfzwlXqdPq54ClVVhbRddUXZoCXVwVRQSGkAD6RVfX+p94HyTnpZAT99JLEfpPRyyUJijYeltbs/s/bLL/d98z9qlPnmc/+clPJWIV7BqNZHEkYI0kfR1bBERABESg7gng2P3Nb36zPfDAA4ZvLBy733vvvfKJVfdXXicIAQSocMaO8/UQraZOM3vttcwKiy8MxhBB5iFaBUH6XDERt/5ubOypuQiIQL0QqKy95GqEbuTtkLjr5cw3/jy6HN6qji5b3dlVE/XnmjXd6T3AVwqffXahHfW5K+z22+/xL8z6J2YVGp6ABKyGvwUEQAREQAREYDgI7LLLLnbNNdfYnnvuaSeffHISsVbTc1cQgToiQCeT4YHc2jhdR7TCwgpn7DNnZM7ZcdIeghXp8s7Yk6VVHfHQqYiACAwOgS6vVyqHELEkXpVj1OkV87KOTltThRVbuf1HNq7JZs/usKOP/k//AfBq/xFkpqyxRvaCjPjRJWCN+CVQAURABERABBqBAE5UJ0yYYBdccIHtuuuudtxxx6WhhasYM6UgAjVMANEqLK0Qp7CsmjUrE62Y4+MKX1crS5yxl/uCIOYB0RWtYSQqugiIwKASwCKn2pqB7q2ErEHFP+KZNdmSxa122aU/si9/+VL75S9/PYD7YcQLrwIMMgEJWIMMVNmJgAiIgAiIQCUC+MR65zvfaZdddlkaTnjWWWfZDTfcIMfulYApvrAEEK2YsKRiVAdfC5w3NxsiyDBBLK+Iw68VQwiZSMsU+8bJ5bua1XZRY1/NRUAEGoNAqjf6PVWvPZKjvFGeSl3cflHV5MYmf3e0248eeN4mTbrahxTe7e8e/xKIQsMR0NPdcJdcJywCIiACIjCSBBCxDjjgAPvBD35gW221lZ1//vn2ve99Tz6xRvKi6NgDIoDlFIaDixdnQhWC1ZQpZi+7tRWWVghabGd4YAhXpaJV/oASrfI0tCwCIlCOQOV6Agm8Z0o+sFp9vaVcFjUT19qcl/VrptjDVNBme/qpBTbpmGvt61//ti1d6mPVFRqKgASshrrcOlkREAEREIEiEGA44fjx45MfrJ133tmwxJJj9yJcGZWhHAHEp/BrxRcEGRIYohVzviCIaIVgFcJVWFrl80vGEfkILYuACIhAtQRQsCqrWFkuqZKpbfGqzcWrcW21fQ7VXtINTdfe3uw/ljTZuef80P79i6fanDlz5RdrQ2HW4H4SsGrwoqnIIiACIiAC9UFgjz32sG9+85u2++6720knnWR33323iwCuAiiIwAgTQLTCrxW3I87YX3ml16/Vyy9nfq4QrRCqwsoqRKtKQhV5KoiACIjAhhBYf/VBt7bJ/2GBVbsWTPzApbqy/ztk1aq4G9rsjjues0M/eqw98shvbdkyH7OuUPcEJGDV/SXWCYqACIiACBSVQHNzsx144IHJsTuWWF/72tfspptukk+sol6wOi9XiFYIUjhjx7JqzpzMGTui1Vz3ccWwQaysSBNzrLMQu/JdxvxynWPT6YmACAwDgepFHayXareL2+nO6leW/cLFMECuwUO0tjbbo48utC98/lL77ne/7x8R8a+IKNQ1gdp9uuv6sujkREAEREAEGoVAOHb/xje+Ydtuu62dd955duONN0rEapQboADnSccQ6yksqvBhFaLV1Km9olUMESy1tsoXP34TJy6/nE+jZREQAREYKAHqqG4XyasLWGCN86k2ZfROP9nVnapBq7vW2Y8n3e77bMqUN+zCC+61M874hn9AxH9pUahbAhKw6vbS6sREQAREQARqhQAi1sSJE+1HP/qRbbHFFnbOOefYnXfe6aKCqwoKIjBEBGKIIF8LxLpq2rTMGfssd8aOryuGD670jzzlLa1SR1J9qyG6IspWBESgEgHqq/5DCFYIWO0+xXr/e2lrbRPovS+a/AeY1XbdtY/ZBz5wuM2c+bL8YtX2pa1YeglYFdFogwiIgAiIgAgMHwH8Xuy4445JuBo/frydfvrpybG7RKzhuwb1fiTEp/iCIKIVllbTp/d8QdCHCBKHaIVuimjF1N9IFrqH5KkgAiIgAkNNoP+6hoooKqM2l65G+7oErKG+JkXMH2usxx9bae9+9+e8DfUj+cUq4kXayDI1YxIeDZT4Va3/CmIjj6jdRUAEREAEREAEKhJ461vfapdffnn6SuEJJ5yQBK1VvKgVRGADCNCmC9EKZ+wLF2bO2BGu8Gs1f342dBDRCvGKiWGCvb9qZwfFMXtpdzC6ixtQLO0iAiIgAgMi0H//NGeT0TTK82UIYS7O10rrrwEdXIlrhkBLizvy9xfW7FldNumY79h3vnOL+3P0F59C3RBofu657Nc3vi5DowaT8eXuwD8mGjI0YpjyAlf/lUjd8NGJiIAIiIAINCiBbn/RLfeXYWd/JihDwAbH7gcffLBdeOGFttNOO8mx+xAwboQsabfRhsMZO+272bMzS6sZMzLRKoYIhnCFaMWtTvuuXEcvtQEbAZzOUQREoJAE+u97drv9VUjqXoM14ci9N7S4oDGurcXamsvVbr3ptFT7BDo6/E5It0KzzZu3yi6++F477bRL3EfWlNo/OZ1BItA6ebJr1C5Sb7mlWasPGWYa7VaX6Zc2f8bbfQjxmDFm7p4jTWz3tnWa2EY8aQkxL11OG/VHBERABERABGqIwELv9T/wwANJRHrve9/r77u+DeKhPBWOdcghh9i3v/1t+9SnPmXnn39++kXxyCOP9Pcyvj0URGBdAjTaEa4w2OOHyKVLzbC6wo8VQhUCFVP8MEkO5TqF0Q1c9wiKEQEREIERIOCVEj8qVQ7dLrzTIfV5d7P/7Wt9hW7V3kK8W5h2eSWo0BAEaEu9sbTbbrn5UfvVr56xq676mr3//e9L7amGAFCnJ9m69dZmo9zScvPNszPk1zoaOyFG0dCh0UOV0OLiVVtbJnKxfezYTOBC1KJdT5ua+BDCQuyKvErndcpUpyUCIiACIlDjBLC6euqpp+zpp5920/MFybH6/vvvP6xnRcPr7W9/u/3P//yPN7jeb2eddZZtttlmduihh/p71l+8CiLgBOjTMdFWo/2GcIV1FeJVar95uwzBimWm/gJtvX77iP3trG0iIAIiMIQEoq6rfIgQuKjJmHrDmq5u6/Cpb2zvdi3VJ4E1a7J7orm53Z5/boV97NBz7IorZ9unP32YG+P0FTnrk0B9nlUrlQG/1OEDgWWEKK4nQhWCE8sIXCE+kQYzc+Y0lAikYQrBijxYJg8m1iM/RC62RVryjYk84jgxz46gvyIgAiIgAiIwfASW+birZ555xj7ykY/YNtts42bo89JwwrH8cjPM4U1vepPddtttdvTRR9spp5ySLMH+9V//1d+r/oJVaEgCtMEQpWiP4cuU6Q0XrJb4hLVVMjPw9lVYXJGeibYVc0K0s1K8rxPds4nNCiIgAiJQGAJpgGBUXustlVd0ZaSqdx2UNAAAQABJREFUJas7rDkqvvXmoQT1RID3ZXNzi/+402THfe1Gmzp1nh111Cdt5513qqfTbJhzST/h5uuDaOzQKCoNIUzlG0CITrE/+7COIBZxbq2Z6pAQp8gjphC5Yj0ErxC32Cc/cdyod2JeWkati4AIiIAIiMDGEmD44GgfT7/vvvum+eLFi92P0EK3PB5+AYtzoRxf//rX3Y/DaXb88ce7SLHSPv7xj/sPTDirVWgEArSrQrTCWh7RCksrfFyxTtuLthHtONIxRVss+LBO1y6JVTm1KrcYSTUXAREQgcIQ6HLrKeq2/kNPTUZF2M1QezqhfUNXaaXYd7PW6pgA78Rx41r9fdlil17y/+y55162E044wg48cH9/d/JmVKgVAgMagxDiVrmTQ4QiIDhF3cC9EAJULIcwxnrcKzGP/UPQGuV1j4ulyXorxC7mTKRhv7zYlc8nFcb/lIuLbZqLgAiIgAiIQDkCc+bMsd13390bO+P8Pdac5lhldXkLaCTMzhlO+M53vtMuuuii5NT9pJNOcuFimX32s5+ViFXuAtZRHI1u2k4IVMnSyq3fEa4YDkg825lYp/0VbbBKCCRWVSKjeBEQgaIS6Ozsso6e4WDlyxgCBJUgwlV5Aav8voptFAIrVnT7j5JN/j4da/fc/Seb/NLF9ra/3N7+/u8PsSOOOKxRMNT8eba2tKBox0Nf3fkgCuUbSOwdqnjM8zmFiJTfr1TYYhsNMEKIUvyqGPtEowzhih+cIw3LWG6xHhZcOOpjP3x2MWSRYxGIy4fS9fw2LYuACIiACDQmARzFMmRw7733XitWMYxw2rRp/q7rXBs33HTCsfuNN95oH/vYx+yCCy5IwwiPOOIIOXYf7osxxMejzUN7CtGKtlA4Y2cd/8NujJC2I1pF24kiRdsstW/ox3kcTR/mCiIgAiJQqwRSP7DawlMBdvdYVlS7j9I1BAEs+ZYvz96MLS2j7E9/et2nqf4xu83dL5b7SJM4UBP3QWtz8ypv8LT75F9mqLKFs750qd7wvKLRFOljDhkaZuXELtIgUiE8sR3xKaytQvSiAYePB47z+utZg439ELHCXxfbyIMvKhLPMgIXZWryPEP4Il1MccVK1yNecxEQAREQgfonsNrHY73hTh6xvoqA8/RXX33VLV7WJNEo4od7jvXXPvvsYw8++KB9+MMftjPPPNM23XTT5KtLPrGG+2oM7vFoxyBGYVWFj9G8cEV7iLZJWFpVcsZOGycaX55dCjHvWdVMBERABGqOQHt7q40Z02ORULH0qQb0raTDR2SsV9yhbje0+guDry6u6OjUDxgVrjLv1c02a3eL5k1cAxlTIZWii0igFe/8TU1+BcuME662wKWNoxCqIp7qY+2yr8T2cvlHAy05Ic0liH3yghbCFCGELfbFD0TEYWq/yAUu6i/ShhBGuhC0wqIr5eHxWG2FhRfpiGcey6xHIE5BBERABESgvgiESIUwFAFxiOGDixYtGjE/WFEW5jvvvLNde+219tWvftUYToiw9S//8i8jKq7ly6fl6gjQtqERjSAV1lYMD0TAYp3ttDXC0goBK9pDcQS2R1xqa0WDKxJoLgIiIAI1TqDZh9fgViZf3+VPqdXrwU6v+6L6a2lq8fWmtev5tA2x7DzwQ12JV0MwqOIklyxBA3nNOS33yaEp1ASB1s7O1nTBQqiJRtBglj4qE/IcSP7cRrFv3FPsH7888itlPnAOcR7MSZviqNT8/qThxzoBoYs41hGxIj6/HqIXc+IRtphYjnSUK9Zjnh0hqzRiWXMREAEREIHaINDhLxkEq7xFEw2bLbbYwmbMmGE77LDDiJ8I5Zk4cWLyiYVjd4QsrMY+9alP+XvKX1QKhSVA2yREK9oiYWnFj26sxw9xpIm2S6W2U2onRUOpsGesgomACIjAxhGgvxWGC+VyohrEhQyilY8pslEt7bamaYyt6lzuW1RJlmOmuIxAt81wLcTH6ivUDAG3MGxxAabJLxxl5gFPCwM6gfweg1lFVJMX5Y6GXbcLVB0+lQuIS6TNzrN3TjzCVlSKLCOQRbpKeZE+JvKgv7DWB5evsy0ELQSyvPVXPs/+jpNPp2UREAEREIHhIYCl1ZgxY7wO98o8FzbZZBN74oknkjP1XPSILeIT613vepddcskl9uUvf9lOP/10t9pZZUceeaRErBG7KpUPTPsCQQqhCtEKK6vl3rdKP6h5u8NHevQRrGjbRPsmtbN62jssR/so5pWPqi0iIAIiUPsE+NEmfdm+wqlgfZXqSbb7QnOT/wjlPo5We73aiPVkp/t6Wu1Q4h1SAZuiEwF/KVsFAUGECknABSwedzex9Ducxebmbhd01lYBuUJnjs2iQZUXXqgY2CM/z+04pIvrezCjXDQcSwPnEPvnzyeW6bvgQ4s5cfm+DCIXjc7gEflH2rDUClErBK4Qs0jHtliPY5bOS8usdREQAREQgaElgAVWu48zLxWwxo4da48//rgdfvjhfayzhrY0/eeOiHXQQQfZHXfcYf/6r/9q559/fhKvilTG/s+gvrfSRkC0wi1CfEFw8eLe4YG0HWhPVLK0og1DA4t8mmhkeeiZZSv6KwIiIAINQgAfxv2FvnWjW2L5DvRz6eM2WuCMV/uXGxvvzDfkSovShlAbyX3cTig1j7wMPOBZURBRYjkK1+0mmYT0t2eXfLq49Mx7Ng/7QxNlSAXt+RNxlCmVzRfi3GJO0nLLNCz5hTS258UlLKzwo0UcYhTrsZ30+K4gsD95k1eIVZEWUSvyYY6gRV6kY5k41pkib+YxZUfQXxEQAREQgcEkgICFBRbiUD6w/vzzz9uCBQtsu+22y28a0WWEtr322svuu+8+++QnP2lnnHGGYS2GoNXKi0RhWAnwzkeQ4kcuRCusrNx1mi3z9sAaF6u4rUK4Ys5UKaQ2TPqTtWEqpVO8CIiACNQ9gZ66sP/zJJFbHpn/COUfKWtxEauLIToNGKrC1YBcdMq1T8Bbtpl5YWaJxQl1u3jS6b8ItibhJYSdEFDyD0NsK8WQT1O6baTWo0yVyky5OMfY7otOojfE+RNDGvxvhQ8u1mM7c4St6PewHqJU5MavrewTX1IknnTsE+npc7DOFFZc5BPCVohdxDGV5pHF9JYr1jUXAREQARHonwDvw1LrK/bgq4Q4eJ8yZcqABKzMwpm3ytCGPfbYw66++mo78cQT7YQTTvD3THdy7I41mcLQEeB9TkC0ol3AD1j8eLV0aSZgrcYZu28nHWIVaViO/dLOuT+0AyptyyXTogiIgAg0FIH+xP4MRLxnm1y0Gu1DDt0VABWqggiIQF0RSD/N0lCK55vl5uauNHV1ZcpIozSk8ufpGCoGqsLYHtwiMXmE9VXExRyhCWEq9ikVnmj8Rkg+MXw9L2qxjX2TaMXcxS2suCINc4Y8Im6xnD9W6XrkFcfTXAREQAREICOAgIXlUu8PO1n8VlttZf/8z/9sr7zyStWoEJFee+01Fy66bNttt616vw1JiOh24IEH2gUXXGCnnHKKHXvssf556CX26U9/Wj6xNgToevbhfZ8XrfBrxVTOGTsdL9Lm2xlkzzu9NK50fT3F0GYREAERaAgC0feqfLKkCL9PLb7knSEFERCBuiOAnOINqN4qgQY7wlUmrmT+sPprTCHmEHpzyNbLNcqyLbX/N3+ueTawyG/LM2AbDViEqXIhiVI9llRsj32Z5y26yAMxKqXxPzSU07KnoyxRHkSs8MMVeSBusW9YcVEmxpOH4EW6yCtbysoRy5qLgAiIQL0S6HR1AQGIdyATVkulAhZfJUQM4mt/1VpVIVw99dRT9r//+7928sknD7mQFI7dr7zySvv85z9v55xzjltUd8ix+yDduPGexZI6fFphbRWiFSIVU16wYjkfeNVGWyHe2fntWhYBERABEViXwEDqy65u/xahu79xX+YKIiACdUbABax1n+zOzmZvvGfiVWnDq/T8Y+98g4w0+UoGYSS/XppHvawHizifSudcygN2cM6zzqdhuEF+nWUCohdWVjEnnjxYRyhjiCIh4mlUs4xghShGOiZ39bLWkisErsgzRLDIJ44d68wVREAERKCWCSBG/fnPf7bF7l37LW95S7/i1Lx581KaUnGr0vnzVcBnn33WrrnmmjSc7+1vf3ulpIMWj4h1wAEH2P3332//+I//aOeee24a/oh/LPnE2jDMvM95hyJU4dMK0SqcsUeOiFohYFX7/o99NRcBERABEeifQKV6tXcv/+BY6tfSUWqyDt9hTb5z1Zuw7pcYOknbprRvWvcnrhNsCAIuf2SiRpwtlQMWWPxqHI7b2UY84gVVAqH0gShdz1Jl+7Bvo4c8glIe+W0wZvs6aXKJYls0lPNs2UYeiFSxHEIVc+JoZDORjoBz2XzaELcQxxCwyCuEMpbJhzTERXy6Nzy/0nl2BP0VAREQgeISQIxCwMJKascdd7SJEycmJ+40/krD5ptvbvPnz7fdd9+9dFPZdUSxZ555xl5//fX0BcPhELAoCOe066672p133mmf/exn7bTTTkvnhGP3Uuf0ZQuuyPSDEH0ffkTiByEfjZlEK4YJEs8PPryHeZ+yztRf4JVb5pbqbxdtEwEREAERCAJVVKC8talrO936ak0nQ1a802JeUY9Q6OlqrdNvLlecUS04nEd0W7ftUS59pbi25ibbpK01fYVweUdnVceulJfiRaCIBJKAlT3qvcWjfujsjEcui0eYIAz0kaqirsky1t9EIM8L5HneXIP89nLI4jrR4C4N7BviE41u1kkfE+nZHj682B4NchrqpGM7U4haIWKFkMW8VPQifX5f1iMQryACIiACI00AB+0f+chH0vDA3/3udzZ+/HjbZ5991hnyx487qyuNBS85CQSwV1991V588cW0z2OPPWZHHHHEOnmW7Daoq29961vtiiuuSD6xjj/+eH+3d6avE8qxe3nMvPN4P4ZohViFtRUCVlg1x7uRNIhXpSG91vjj71D/vzbkl9dGakEEREAERKAqAtEnqZyYitcNMPxvZzfilf8Kv9b0whdjzZNRjw9HGN3akkqwYj1CUquLTmNaGfboP5b452o3pnztLoTRv2pt8Q/SeH++c2MyGw5IOoYIDJBAa7lhENz0eQGLdd37AyQ7CMlL69aNvQYhHIVAVVrEuM68IDhW/nhsw+qKbTTYySPShEDFOgJWWGmxnB+SyP5sG+Xzlp5tsW8IYLGeLxvHVhABERCBoSCAILXcx4TtsssuNmvWLHvPe95j22yzjf3hD3+wF154wfbff/8+h910003datXNVqsI5M2QQ5y+s0ye7DvUztzzRcOv1yGHHJIcu5900kk2adKkNFTyM5/5zLAKafkyFW2ZdxfvNnRJhggiWjFMMPxaIVSxPdLFD0BxHryi8u/rtJyPiISai4AIiIAIbBABfhDq6GBY3Pp2j04Dc34xj/VsabSLRAyvw9JpZSejjdaX38Ztb+Xwfjz62+WsuvO5eypPyzDIvu+UfJpqluOMW/yYTBKwqqGmNLVEwGWELPj9nR5i5kw01iIM9cMdx9F8aAmUXkcquNJ6u5JhQb4BH/lwjyA44UOLwK/TxNHoZ859FIJUuq88DU7jWUbYyotd8fVEt3hN4hZiF+lCBCN95JUOlvtDOgUREAERGCgBnJvPnj3bHnnkEdtss81s4cKFSVxiiB0i05NPPpmGFP7FX/yFC/heKXnAgXu1FliRP18CJLz88ss2Z86cYRWwOG44dr/66quTE/rzzjuPaPu3f/u3teeVIhroD+8xJt5tvLOY8GmFcMWPNGxjjlgV6/Huy2Pi/VMuPp9GyyIgAiIgAhtHINXJnaW9lkp50jFgyg356Ena7p2JFrd2Iiesnt5Y40Psqs22J4+BzChFln3/B6EMCE1epEEIvZm4EZaCCNQdgbUCVpwZD9BQPshxHM1HnkBpVdrfdWcbDXlCPh1C1dKlWTx/EcCiQU9/z0flrO0EpI6AW24hRBFCeGI9nzdiFfuGwJUfkkh8svDyChkxbO16SZ75/NPB9EcEREAEcgQQlxjad99999k999xjY8eOtQsvvNB+8YtfJDEL6yt8XeEbC6ssfFdtv/32Xld12vTp022//fbzOqz/liEO3GfMmJEsnjj0CldJWJ8wYUKuJMOziIiFb6+f/exn9jd/8zd25plnGtZkhx56qNe16zQFhqdQI3CUeJchWPGjC6IVE8uBIYYGIlytL+Tfh+tLq+0iIAIiIAIbQcD7HP0HejbeiUjDCLFnalnnh/ro+/D2bkPMaupKzt77z3fDt672A/rgk/UGyoVVGMJblHG9O1VI0OGds3Y6Ux4Q60bQBViFEipaBDaOQOO0WjeOk/Z2AuUa6rwA8hUt/Tni+EMnYOGCbJmoFLK6OfnJQnwiDeIVE0JW9AcRwsIajOPGsUPUIi0TeTARz5z6mrqaIYoIX6wzpXKlgmXL7EuI42Vr+isCIlDvBDDhxyLqiSeesIcffjgJSjvttJO96U1vSsMIGfLHkDuGEY5x81Ispp566qmU/sADD7Qtt9zS66N8rVeZGNZakydPTsIVqRDNnn766fRlwDaU+BEI2223nX3ve9+zL33pS3byyScnse5DH/rQesW4ESjqoBwy3h+8Y8LaCoM4fnhhKDzvmXhHxHsnLi/vh7XLPaXpeYX1ee8NSkGViQiIgAiIQL8EqnvzRioa/TT2exr/PTnH1jgQzs7fWN0xZCLWan/5dPrLZH1+2WNII+WK906UcaBznMBjzcXwQb2sBkpP6WuBgASsWrhKBS5j6YuAovaJ87qzTyegpy6l48C0NvhO8WM3whMCUwzbIA3r5EOI/YhjuAdWYCwn8crnLDMhahFHPxFxK8V7Hm2+zJDFSMecvJlIz5QPcdx8nJZFQARqkwBWUI8++qj95je/SZZQH//4x/2Zb/H6oDmJWHvuuWcaJrjG1Q4Eq4MOOihZYv3kJz9JFlubbLKJMSFirc8Ciy8PIoCF4IWAxRcJl7mTpS222GLEAO677752ySWX2Fe+8hU766yz3FJ2nL33ve8dsfIMxYF5L/AOQbTCuirv14p1XlR0KBC2EK6YlwY6Eem143/yHQqPVhABERABERhmAuuve1ON7aVK3qS8mvcGf7J/otLPQlg5xTo/eo9xR+vL3Ml6ti22DM6c90y1+XasT+Wqskgcb7X798KB/PqZVZmpkolAgQi4E/cClUZFqUsC1TT88/chHY7oOETFG50LOiVsS9v93o39Io4OC8IVohRxBAQp0jERT2DZP9KR0ra6wBX74M8LwYt9SBvz/HLkleWU/SVOQQREoPgEGBbI8MC/+qu/sgMOOCANo0O8CkEKa6ypU6cmZ+vEMWRwtCveb3vb25K/LCynsKrC4TuO3/sLHGvu3Lkpb9LhyH3mzJm2YMGCERWwwicWQtZtt91mRx99tN1444128MEH93c6hd9Gnc87gh85GCLI1wP5kQPBincI7xbmTKSNeemJUZ/H+yO9RnreJaXptC4CIiACIjB8BNy/+QACiUPAopHencQcRKJ2b9/n2+34wmr3aeV6fGyRC2nTjx/xkhhAiYYrKWe+ys+ltXloh0cO1/noOCJQSqCV549OOoHGXITsUY81zUVgaAnk30nxTsjHcXReNghU5e7NeBGxb0rjiaITgkUXnRrWEaoinmX/wcW6vKMT+8czwDPBFJZbpGWZKQSuELdYD4Er8imdDy095S4CIlAtAQQlRKp3vvOdye9VWFHFHIftCFivvfaaCyGrkgUVfqMYZsfXBHHgjsXS73//+zScED9S5QJiFU7bOV4+YJWFsLXHHnvko4d9GRErfF89//zzdtppp9l1111n48ePH/aybMwBqfOZEKcQrrC04iORCFchUFH/s0waluMdU+646f1S+vIpl1BxIiACIiACw0Yg2tXVHZBKnNo8BKzevRCwmNpy3s3Ju81/1V7t8ZWspciNLxiO8nfnGn+RLHPn70UOnAdl7O99V+Tyq2wi0B+BZIHFg1t6g6v91h82bRsJAnGPxmsp7tGy969vjPRpuEhPgengRDxRCFNMiFDkw4QYFXnSCSLQ+YmOD8IVUwhXCGTkEfOIjzRsizzjGOTJsoIIiMDwEljuD/Vuu+3WR7zKlwALq/Eu4mClha+sRa6GfPOb30wWU//0T/9kP/zhD5MAhkP3adOmGVZMIX7l88F666WXXkp55OPJEyss/Gxh+VWEgHh16aWXpvPkC4WVRLkilDXKQH3MxPA/LK1wxM4cyyvqXupX6m3qfH7UiJCvd9cu877oSRDzSK+5CIiACIhAMQhE/TxmrNf1Pe3zdUtG47onZdM4a+oe7Wu9cfiGWuG/Xvv3/lIs+zf7y4AOMdZVqytYYfG+wKeUJ0lp1z1u8WJcj1MQgbok4F1rBRGoPQL5OjkvSPW+onrPqTSOl1AEOjjRyYl82M4UohadIQLzWGY7nSL2ocNEoDPF9rxgRR6shyUX88ib+EjLfnFc5tGvZVlBBERg8Ajgv2oUanM/AYfuO++8c/KFhbUW6X/+858nKywsp/h6Idux0GKIYVgy5bPEh9b06dO9jsjXVjgPX5osvLDkYmhiEcIZZ5yRnNnffffdaVjlJz7xibLnNJJlBSN1LPU1llT8uBBDBFlGyKLeJF2IVqRfJ+QuR8mlWSepIkRABERABIpDgDqbKryyeEVZc5U8Ttz5ZHk+ylN0eEZv9FhQ0czmR6gxbl012q2w1rjvqJLkZJqGDbKfN+tTez1F6o8IiMCIEEgCVtlG3ogURwcVgY0jUO6lUy6u3FHyYhEvSTpEEVgnhLgUwhNxITZ101lyIYoOFs8UE9Zf7BMTafPLrCNe0Z8mT7bFcohhIW5xLJbz68RFYF8FERCB/gngt+rZZ581nLVXEpCwjHrHO96RvlL4t3/7t4blFX6v+KrgSn+oEcEYdscX/XDMXk7AwtJq9uzZqTDh9B3n7TiRx3ILS7BKx+//DAZ/a7sr63yRkHKdf/75tsMOO9j73//+wT/QBuRIPRo/MvBjQThjR6RajXWV17fUz6SjzmYe9XXp4agiq30flO6rdREQAREQgZEl0NnptbhX4rSTeQdUDtT07si9Gyfm3tDuJ5CSH5pWdnTZuPaWNLSwkhXWGrfOam/u+bpfP3lWuwmrLyy6GLpYTcBSjPSdnr66PbyP4umrzL6aIiiNCBSCQPKBVamxV4gSqhAiMAIEvL7v83IIcYj46ChFsdgWz1BzjxVAn7ge0QprLKy2EKDIgxD5YknAcuwX8ezDizqELyy4MNogjxDR6NyxzDbiSZvPO1urHJffrmURqHcC2267rT333HP2i1/8wv76r/+6ooi05ZZbJnHqN/61wk996lP22GOPuVVmW3LAjvXVn//8Zx+2ttifWWqFdQMC1rx585K49e53v9t23313u+aaa5LFFl8mZDv+tooS9tprL/va175mxx9/vE2aNMmwxnrzm988IsWjPqWO5AcAJkQrN1xLHRbqu/Qjgc8Rr9JyP6JV/gSqbfDn99GyCIiACIhAMQh0d2XvW9q8/QtYlJe05d/P5c6GoYWrXMQa7Q3pjq7yXyTMhh92JWutaK+Xy6vauHb3w9WO1deqjj59jkr7I3jhh4shkGuqVKX4wiJfJKw2faVjK14EikQgWWBVKtBgPJyV8la8CBSZQDUdnbXPRy4xna4Qp0rPLyy61u7nCVhGcIoJwYrOGxNxdM5iiCJpI3+WSUsafL+4QYg7lM7iiPf3obX4080yaZl44YfwRdmIy89Ll7Ot+isC9UUA5+V8gfCWW26xBx54wN73vvclZ+yl/qhIt8UWW/hwtTU2xj9P+slPftKfnxZ79dVX/TnssoULF/rz15x8ZCGK5QO/5uIEnrRbbbVVsuD66Ec/mhzC33///WnOtl133dWfw54HMZ/BCCwjzv3jP/5j+rriqaeeal/5yleSiLXZZpsNS2mi3qOeDNHK/d2noYJRH1L/MXyQiWXiwcecEChTvK/3RKdt+iMCIiACIlAfBHhHDEVY5UIPItEmbS223EUinL2XBhy4d7rQFe+d0u3VrvPmzyyq3FIs9x7rb/9RLnjhp6vV2x6IbOuWru/e4durzc9nyWoculdvudU3J62JQLEIJAEr3+grVvFUGhEoFoH8yyJeXhHHy2jtMiusR0RuuTSOjliEeCmThucSASoCYhVTvOjo6CFwYdWFD5j4NYo4hCqmZJXFPj6RFyJWzNnOcsrXj4XgxXamOE7UDfl5LEe5NBeBWiOAT6vPf/7zdvPNNych613veleyNsJ5OYJSiFlYJTHsjy8OMowQn1cMI0S82meffYzhiE8//XQSqUqHEU6fPj3ti5P3iRMnGn61vvSlL9lDDz2UhhbOmjXL9t9//3S8ovBjKCHCFRZqCHwXX3yxnXPOOV5P5CqiQSws9RwTdRb1GZaoCPIxTLDN6yJ+QGc7dWP4HcwXIdWVHkFVy3KE3GJEaS4CIiACIlCzBHoa1l5+3gn9B94ApGfyxu4ALLFWuIi1hTeEN/UXECIW1kul75N8u90z36BAnvEOrDaDIMCwwGoCH1pExKLdvsWo1jSU8I01HWWFuWryUxoRKAoBmocKIiACg0Ag/4LLd6TImndNfjsvk9I0+SKwnYClQWlgP7YzlBC/WwhOrPNCRXgisEw8ohbbmBC52JdtrCNg5cWqEL1izjYm1nlZNvcIXmvjesS0JHZxUNL0xJF/uVApvlxaxYnAUBJAqPrYxz6Whgb+6le/sieeeCIJUlhMhaN3hKy5c+fauHHjkvCEkMP0d3/3d8mJO8MMf/azn9mTTz6ZRKoQvrDQYvggx3jLW96S8mXbAQcckKy/fvnLXyZ/UziAj32G8lwHmvdFF12UfH4h8CHiYX02WP66og5CjEK0Cr9WiFaIVPk6byU+rjwddValQJ3SX11aaT/Fi4AIiIAI1DmBJv/xpdv9awxAwOryFwqWV1g6jXPLJYb54R+LuHw7fjDIrfFjdXk7oIyhV7/Z08Su5t1HmZHfWnrOn7Z8u7dFsN5SEIFaJuDd076Bh2KwH9C+R9CaCDQegdJnqr8O1/peSmxnCmstaJZ28NhO4DhMsU8Wm60jNoXVFiIVaciH9Gxjiv1iHvHMQ8hizksRKy8svliPbexH2jhfDDmSINaTd748say5CAwXAYQphhPi6+mFF15IXwfEkXl8XZByYIGFryqskxgWiNXV29/+dr/HW5P49J73vMfuu+8+23777W3HHXdMRWf/+fPn29ixY1NahiISGI7HkMVHHnkkHYvhiUNl3ZQOuIF/KO+ll15qn/vc59Kcc6bcGyO2UbcgRlHnIKYjWCFesY5oFb+oMyddrMcp9FRp67RPom6JdJqLgAiIgAg0OgHeGDSAvbG5Hifu5UhlUlX21mnzRmxrW5P7neqylW6NNZDQ4o1g2seV/E9h3RXvtmry9TMaUCA94htfWMQSi4Awx9JA80o7648IFIRAErCig1uQMqkYItDQBKrpkOXTlHsRsT1vyVAOKJ3ECCFQRb4hPEU8IhTCE9t73oFJmIr9mce22I4frrDaorPKdnxWYzmWF7KSAIag5XmQnuOEoEa+kR/LhNL1LFZ/RWDDCCAgITwxxO/AAw9MQwQRrRChmMJRO5ZZDz/8cHLGjpgVAVEKZ/CPPvqoffCDH0yiFV8qxMk7QxKxYArrJUQvrLD4euGUKVNcyFme0kdeRZoz9PGss85Kjt3P9y8TTpgwYcBO53nmEaIQqZhwxO6+69My54qoxXbqqqiP1hHjc1A8OwUREAEREAERWA+BTKxJv6z6lwgHGjKJp3cvrKlHuQjU4S+1cn6xelP2XcLhOj61llXwp0XqgbzXBiafZWVBJMOqbJwPiURMQ1RTEIFaJ7DWAouGZmkoF1eaRusiIAIjS6DMo9unQLyqIk28t3i2SzuKfXbKrcQ+RLFfrDPPW1rREWUdcYqXJMekU4qlGBYX0VFFDOPY6UXakz4EK/ZHGyCPyDvmnAcCF+tM5EOgHFGmLGbd9YjXXAQqEYjhgeG0HGenBEQmvsi3aNEiF2CWJoGLIYJ5ayScsb/yyiv21FNP2cEHH+z3/Ep76aWXkuCz0047uSCbNaBpBGPttd9++6Xt5Ln11ltXKtKIxlPmD33oQzZjxgw7++yz7dhjj7Vbb711vWUCG1M8+4hWOGNHwEKoAkVsDz9+PajX5s3zHHHZVVi7SQsiIAIiIAIisB4CtBixo6Kh2NNYXM8esRnBqZzI0+w/sxJf6XuBbd6oHeW/3GKpxdcKCckCy+PZVo3wRakJld57GzKIkbw4doe3W/jiIe/XdB7xkk1H1B8RqC0C3g1UEAERqGcC+RdhufdV9prPCOQ7jsGkdJ9YZ04HNB/opEYgL8Qo5slfl6dnGfGJeQQ6tWEthrDFlI7h6UOwCoEL0Yo8ySMmtkWeiGJtvj0fx7FKJ46dL0OURXMRCAKITQS+QPi2t70tDRPEGfsjjzxie+yxR7KsijTMsbTCCgsha4mbGSFg/cM//EOytop05IclFyLWb3/7W5s5c6btueeeRBcyYDF2+OGHp7Lefvvttvfee9sJJ5xgOMHPB55XntuwtsIZO1MMFQzRinTExfOezyO/nJ7/fISWRUAEREAERKBqAry/u3uGyvkvosmRe27YQT/5YGmVbx/yPmKdieF3/jG/sgLTGH/Rtbq/LIbqLVvTuVbEoiQt7mOjKXmjqnxg0iGAtfmEo/Vy78E0grHnR6By2yvl7qeQrMe8eZwFDkakggjUKAEJWDV64VRsERgsAvl32EBeiKXH5+We35/lvKAV20gXAeEphidGHNvp8EY69qPDG+t0gFPweASu0vTkyf4xhejFnG1MyUrM14ljIo+Y8uv5MsWy5o1FAEsrfF4x7A+fVohPN998sx111FE2fvx4v2+yG3rzzTc3rK3woYVl1WpXd3fffffk9ypPjDwOOugg+8EPfpCGGeJbKvLIpyvKMo7qzz777OSz64orrkg+wD7xiU/4M9SenneeTZ7zEKuYY3WJuI2gDB62Y5GFyKUgAiIgAiIgAgMnkG+tVrM372amMT4hYuV+YfW1cgGBCmupCJ1uuYTfq4inPco7LdqzkY559q3CppQ2c/zu9lIpIfmxYzYjbbnQ5uIXvqo4AP/6s7bakFcpwwgjIKdJwQoamtciAe/K9Q29t3ffeK2JgAiIQH8Ecu/GsskQhkrThN+bsjt4JA0FhCj2zYdY97ZFEqToREccneVYjuOFIEZ+MZEmBC3mxBOHhRcCVxw35qlNkytPHIP9CDHP1vS3ngggYm2zzTZ+b7QbQhUi1lVXXZWskcJxO2kQrP74xz8mYQpRCusqLLjygaF5WHRtu+229swzz7iw0+H3G43r4gYsr66++mr7t387yq688hYbP35fe8c7JiShCp9WYVWFBRYTQhXPNs9f6TPO4xLtDJ6ZeEaLe/YqmQiIgAiIQBEIxLtj/WUhJRNvHN6vJY1IjykX+EIfw+uwhFrtDcw1/qnvNf5Cw+oKEavTs8TCqt2XEZHWuLgVZVrtG9v8MLzXGIZIGyC2Me/vXUcpR3vbYKz7qeJ4tDdp31YKiFv9bC67G8dHxKL8HE9BBGqZwDoCVrmT4WHs78Ert4/iREAERCBPYH11SLl6hn1KO8D5PFlGSGLf/P4sR2AZgSrSkScTwhSB5Ugfc+IIsR+iFvszMXqKffMiV6Rjf7bFFPnFPI4V69lR9LfoBPhaIP6v+DofYhNDA5944gn7xS9+YR//+Mf9emc3E181RMT68Y9/bJtsskkachfb8ue4ww47JEsm8sDHFqJYkQP37YQJB9jFF19t//Efd9pll71oxxyzZ3JSHw3tEK0Qk0nPej5wzxPf82ilTawriIAIiIAIiMDgEqARyAsGW6OxvsTguYgrfyTeZYhU+Ika0+rvdHe87sbEKZBTfElwtG8f5e98JKROhC4XsdLkL73uNd1pX8QrjkZgXyy51hfGtbUkC6wWF8uyLwauuw/iGmFD3p3kFjn2ym4pO/0RgZoj0K+A1f+jXnPnqgKLgAgUmEC5F3K+DgrRpzRdaUe53CnSqS4N5BdCE3mEQMWcwHGwJiHdihW9IhdxbGOKfRC1YhlhK6y4ELY4BnMCYhwGOWwP0Yt4jhHnxzqhdD2L1d+RIMAwAIQmRCkELL5YyDC6l19+OTlsR7iKgFN20uPYfbfddovoPnOEMPxpfec737F58+YVUsCKe5x7lvsfn1a77nqwff7zW9gLLyx067E59u53vzkNDwxn7H1OMrfCvUx+CiIgAiIgAiKwIQQG9g6JF46/fIwGWE/Drp8Dt3ojDhErfGCxXC4kz1q+baw37tClsMZa6dNy93uFyLVmtb80PbB7s8czD+GJ+HIBiy+EsU3bW2ypD7+vcOhUvnL7VxOH9RVCGm3V/HDCavZVGhEoGoG1AlbZBiZPkD+cA6s0inaKKo8IiECtEogmCOUvVw/1VFHp9KjDCOXSZVv6/iVdp7cz8hZexOXrQkQmBCkELia2xXFoBESgg09g/3wepCUdP+atdhENEYCPzqF3hLgVAhfrpGedY8b2OGZ+zrHi+MQrDD2BTlcu+foggeGCCFBYW73wwgu27777puGFbFvlY1hx5M7wQYSqcgHn6O9617t8ON6VNnny5DQksVy6oY/j5um9kbl3OUWeifh6KPfssmXZMMGmpjb7q7/ay4dALvfzHW0LFmRfY+zvHuQI5KsgAiIgAiIgAhtKIPmT2pB3CS+o7vU3lHgTYvnU4vIRh8lP+TJTjnZPh5WWa04uCuF0nfZBt61IXtaz1OwfR21xIYthhR0VXoYIXG3erkBEG9XiElnsmD+wL5PHhob0fvdCMQwS4U1BBGqZwFoBq9wzVS6ulk9WZRcBEagvAvl3cKX6itd9Ph3v/0ibj4dMtA1ijrUVU6VAOr6wGFZZzIlDXGLiOKy7JXoSBhClwsl15Ml2RCum2DfWyYN9mMcwRtKEBVdsizyYE+L4zPMhtufjtLx+AgwHWOEqJY7Zw9oKf1j4xZo/f37ye7X//vsn6yyGGy5cuNDwjfXqq6+6YOmKZZmAwMX+Tz31lH3wgx/0a1ZyscrsM9hR3d3bepZ7J8EK0QpLRcSq+IIgllUh8HLvZPf5KB862O738Wp3Vr/U929yB/ebpaLF/RXPF5Glz1hKqD8iIAIiIAIiMEACA/P8xNvH36vd3rhaKyWVPyBNJ0Sk1ITij++KtRJT/n3G3umd5mlck7Jx/DrpgTZCh6fF4Xufd56v8F7Euoqw3BuDpCsNvP5x4t7sXytsacp+KFsnDeWjbB5inq1V95ejJgsx/5Vq3RJUl4dSiUBRCKwVsCoViIek9OGtlFbxIiACIlA0AqUv6o2tz0rrxLC+ivMm/x5DnRQVy8TTSEEEIC4aIIhQBMSC0rJFGuYhcLHMRF4RzzKiVqQhzxjKyDYmtsU+pescn7wIlCGWWc8vs96IIQQsrKvygfi3vvWt9thjj9kvf/lL++u//uskcvEVwo985CM2ffr0/5+99wCT7KrOtVd1V+zcPXmkGc0ooIgElgAJBAJbyAaTDBYgCWHZPMaBcHGA3waeBxNt4+twsfFvY8x1+pEJNmCTMcFGgDEIEEIoh9FIk2c6d1dXdfi/d59a3adrquNMj7pn9po5tc/ZeX9ddfY+31lr7eDrykmvdFnMEC+//HK79dZbAznWKE86//E+h5ianLxc2oHdtndvonHFdxkSi++nH+TjO+tEFv1g3Gijfe5zD9rgwIT9zHN2yN/XuqO+v8e7z7G+iEBEICIQETg1EahfH82NAqs+FjQe1hY3cxcI65z0WgeKB22pRlQSJJr3JSdiitqLIqWKIrPyTRM2xuRZEwijonYWbJF/q/xEYqKItlYjEosimQyEmCZcul4ntINJYlYkl2bo6VTxXkFzzH10TSc0OMFBfJSIwMmAwIIElv9IT4bBxjFEBCICEYFjRSB9T0yfN6qXBVH6wZ889WUgByCUiK9PIz9kFH6znOAijy+0KOdCHIfX4XU6WeVmieShzrQWl2t8kUZ/yetxlCceIXSSLImZ/en5ZscmV/OlNcq/muLQjkKziqNeSHvSk54UHLp/9atftR07dginhNgqyDna/fffbxdffHF9MWnuFe0nf/In7Y//+I+lydQ3rdl1VMYVioCLm5y4UGaQZ8sM0qxDSlT8bfn7c/B9Q1jvpr9zSSxmsEU755xO+99/9KD19z9ov/zqvDSx2j05hhGBiEBEICIQETiOCLBIWk51LGBSi6UGVUBDuZ8qTATHxtl9UARWA20prYSCCR5dIR8EFWXxhVXUNoTjFWlu1RZiyY6CWWsRuZXNi3xSHnrTJz9ZvlajO8TV9L/CehBzQrS50qImNAqczEtTq1aGPmD2CJFWndRiMkpE4BRBYEECCxz4YS3rnnGKgBiHGRGICEQEGiGQXqB4evp+yoIEgcSaS+BMGvAm06QCBBM+tZx4ICTOCSjq5oCQ8PboF8SEkxMQWhzaMdp6e0VmaFO8lpaEyILMohwH9ZLP6yEN4Zp42qwXhtikeC/neb2Oo/LX2iKefnKQl7ZnhFo5TpyU5RSqnsBCC2nXrl0ibjYHbapPfvKTwaRw06ZNwXSwRSDee++9wS8WZFZaILnwozUkez18ZmFyeCIFXNetb5b2VGfAFtNW4viu1P9t6q/pJ2+Cr7xyp3x4DdhH/vmQbdnysL3ixseJmKt9KU7kYGJbEYGIQEQgInBSIxDWA0saIQSQFh8Zzb1T889LYY2hD02BNiByCd6qKgJpLp9VEFTsPIhAUpEfP1f4xWIdNSxTQfLgb4q62dkwrwVSXgsZVi6QY2hiudCuC0QWRFe9MH4k+Ok6OjlJjJ8RgVMEgeAPzn8Uc405/cOaK0+MjwhEBCICEYGFEUjfTxvde1mXeB4nDhrmqy1gIKEGcUWUEuIgvbw8RBMEkBNlxHPtpBAhZSC/mkVEkQ8NHUgNxOvhnHwukFII6ZBXhOm8fk6YJrDIG9ZntXLeD/KR5vVCutEnbf5n8D+kTUx0iux5rs63hj6iSTaXePtzpS82Hi0ryKp6Aos3tbfddpt961vfsuc+97n2zGc+0z72sY8F8grfV+xYiKYVBNW2bduOam779u3BETyO3C+55BL9PfSHOEECxj09wzoS0z//btCF9PdNf5LwffSwvnsvetG52kmxal/84n5pZHXYVc88epz1ZeJ1RCAiEBGICEQEloJAcOI+vTqarySzFaIFAxIcuDO3zjWLhVxJsk4ho9ilr8JJAwm1qqrhmingOGaEuoaaapWpIC0xjw5WaiSWWCyqymSyWrdMWWdBzt5FcEFiQYLRysyugIkeVqO1S0KIybRRa5HUMizp7xx9bdD9GBUROCkQqD1+zD2WBX7ucxeMKRGBiEBEICKwZATSS6Y0kTBXRSx0GuVLL4AaaXB5fZQNhFKNuIDsIg4Ci9A5FerzfJQlDTLL23cCxOcM4inr6U6GUdZJME8njnx+eJs4FKcfbObnRNXg4Ga74Yb/xzo7z5Z5npmUnYJQxst5fR5HvfOJ5/M83g8vNxUWwFn5qqqo7+wQpEVmrU40qwYGBuzLX/6yPfOZz7SLLrpIPqX22h133BHOqbNXam1oWNUTVO3t7faUpzzF7rzzzkCO1WtpeX9WKpycrEgzb2x6LPxNORgbIVILpsMkduazq6toP//zZ9n+fXfZ3//9/bZxY8HOv2DjTIZ4FhGICEQEIgIRgeOBgE9Ii6qLSZoJTZTTlBYICwl11+Z1yCUcuDcSNKBqNQczv7LMCFlDYPYHgVXSwRxKHThtRwsLoqqYm1R8sxWkpdWRz9qYEiCl8IelKkJ+WmyWyjpO33nJV98F8o8qc7pngdiikSgRgVMIgQUJrPiTOIW+DXGoEYGIwJpDwImGxXbcF17kdxIGQslJJeKdjOK8kaQJDs69Hg+9jKfV95FrTyNk8ZcWz08axBUkliz4Qh8nJlrsGc+4XNpNzcH5eH9/UpI6INhcKMs1B+cu6XPiuIa0c60vz+dkHX2ZnKSCM6SR1myHDyfaYJhtIpBZV199dSChvvKVr4j4mbILLrggXP/oRz8SwbZJZFunMJ04isCC0ELz6lOf+pTqHpGW2Wwzw6SFlfuEjJuYkIqbxDGvPw+JC3zs3NlpL37J6fb+v3jA/vzP77E3vqnZdu5ct0CpmBwRiAhEBCICEYHFIcActbRnUp/4RSjp33xlIYoggjBLwiQQUqpRfsgrzOddIJPQiCK+ResI/GFRBz6v6C/rA5y+j2n+Zw2Qlf8q/uHUvUXkVnkiE4gy2qwofUohtRdEYHFQf1rCPD3TfDppUef46qI/9cTYogrHTBGBVYTAvASWvuezFrWrqN+xKxGBiEBEICKwDATSi7KwGErVwboonU4S8wCSzlt/7tfLmTMos1A5reumhbaaxS65NhMmhsRp3RdC78t0gboTb8+juV5I0MCamtomEm1KPq3kqLVoMv1LTBspmxX79bSnPc2+8IUvhN0In/e859kTnvAE+/rXv244dr/iiitUvh7ZpNVzzz03LHJx5N7d3b1QV457erpfC/0d5mq8WQvtyy/fKlPJIfvg3+yxv/3gg/abv1WUeWKN5ZurYIyPCEQEIgIRgYjAohBoPIfOXdRXNITzPu4G8gqTQLgpiKy5CB7Snb+CWoJ4SnYUTMiv8ax2Hcwn5BP9Ig/aV/i7as5UrEvmg5SHSIKgguhCE4t5OJgVTlSDQ3b8aZFerqVRF0JZlhJohy0HDerEXLHeQXxSe/yMCKwdBOb/RS/117F2xh17GhGICEQEIgJ1CDS65bNYWoxoXRUWVk4IeTm/rq/D0wn9vD6PEyrpcFxvLQcGyrZhQ6uILO2+o7eeaGfNVw/1prW8vE+UWYj4Ik+SHz9YmdAWvrkOHpwxa6R+fF1dc801wXywX2phaF3hF4sdCiG4OBrJ1q1bjWPPnj22Y8eOQGY1yrfa49CIe8lLzrfduwfta18dsM999hF72cvP0bjr1OtW+0Bi/yICEYGIQERg1SGAxvBca4WjO8vChVUJn9KGMu1KE0is2va6IWX2RzDFo9hiRf1JyKukAKTQqN62FSeb5Mw90caiuiF1Gn9aR8bGA5nVJvNBCCu0tsIOhhVpfekax+9llWe9AVGF4/eSfGZhhogkOxgmGmI4mGd0aHuhETam67kkp3QIM0wayZtVSfIvZahz1R3jIwKPFQLzrizjl/ux+rPEdiMCEYGIwNpCwOcLFpgcLn5dH3r6XCGLM8qwmEP8GqKkq6uktExw8I6fLLSwIKLmE9LR5CKv7+zIOXFpEqtRP5M4LfimpOKvPlFu/34Oqf9PzNgtlkolu/766+3RRx+1r33ta6p3MuxQuGHDhmmNsfo+tslD/ZYtW+yBBx4I+evT19r1a197mV30+Bb7/Of32je+8ajwWeAPs9YGGPsbEYgIRAQiAo8RAqnFxbw9qC0cQh7OZ+bpeYstkEhNXjOEV1oCASaSCPPD4SoEE/8gsqQxroXMhNYDvSKxDoxUggN4ZU3S9SIOodyRclV5qtICw6eWyCmVIxUCqk1rHy4gzZhV8bfVXsiK6EryUEe94EsLwgyTxfZ8c6iz1lx91ngdEVhTCMxLYK2pkcTORgQiAhGBiMBJg4AvDacJpemR8cZxZupKryE973TWuhPIsPThfrMI0/F1xcIlzlc5XPDLdfgwJJpUwFLS0dEhJ/M3yNTwXrvllluO2rkwlTWc5uXkCw0sSK8yqmRrXDAnvP76s629PWc3f/ghu/vuQ2t8RLH7EYGIQEQgIvBYIxDmekifjK8OFuqR54MCQgN6Zt2wUMm50hNCifoSp+ucQTRBFOW1kKDFoIklrSk0p7hOzAEzQQsLM8WByrj1icjCZBCiKqtymPZhFtiveI5R5cN/FmSTmxPSBhpXvlaB1KJ9+sTRSCibD0RYko9c1DtX/kZ1xLiIwGpE4Nh/zatxVLFPEYGIQEQgInDSIcAaDa2mkZExaUKxG+AM8eTkFSEaVRzpuPS5A1O/5vM8nt4oJA9CWK3iGytx1prEJp9d2jbx5S9/uR05csS+/e1vz0ti4c/rrLPOCovKwcHBdDVr8hxMzzmn26596ek2PDxpf/X/3iuib2hNjiV2OiIQEYgIRARWCwK1yXfR3YGuoYzIq0yLyKBsIIoggZYroaQ+8COFSR5kEOQTOw+25PAvZYGYgrxysz7KBJIqvCnTpjTSSsYnFkQW53QHX1jkgfwiPpgTSiMLkz/SqJs20MJqEm0V/qkcWljBjJBGGoiKy5yxOeRLZ0mfNyg2HQU5dwxwTdcTTyICxxuBowgsX5wf74ZifRGBiEBEICIQEThWBCCuKpWJaXM7dgvEvRRh/UKL+az+oH2Pw3wwbUK4UN8wIWQNGtahWgFiSqglZMNi+MC66qqrbN++fXb//ferTZkWSMNqv2wPKzjRSslpp50Wrg4deiy0lRa7lE11eIFTzDyf/vRt9pznbrRdu8bsr/7qxwuUiMkRgYhARCAiEBGYG4Ewbyu5fp6fp0QtqUnkVV4kjkzpRObgW2o5wkyZaGAlZnxuQkh/PA1SaySYEE4EM0EnsSCZ8HcFAYUvK8qOiMTCbBChDtIhnDARJB6SjHrJX9QCp0vmgqH/yudtMhb3jRUqqvsoaLHSovxoh/m4wTHRDavLXHdJn8GsVZjRrygRgdWEwFG/Yn4UUSICEYGIQEQgIrDqENDCK7zx1EKOMCzEan6t0Lhi/koTTIuZz7zMwmOFOBtRNnWCTxaBarupqV3nM1MpJNV4wmzZ+vXr7aKLLpIm0rDyTthdd91lb33rW+0DH/iApbWt2H2wKsdc99133zQxFxpZ4Y9k7DOTPmM6XoLz9pe+9Fy77LI2++//HrKbb/6xcEkW68erjVhPRCAiEBGICJxCCCxrjoLk0UYqWhww50H4YH63ZFERL+bkVagj1SfMACGeRjXXDVXHbVDaVBBVZIF86hAh1Kn1C+aAyKg0rtilEKFPORYwkvq5GC2vXDZvpXzOWjhXXm92rpEEU0HIL7XbrnYZNxL67oVDTOOPUo1Qg/jy/jbOGWMjAicegZlV94lvO7YYEYgIRAQiAhGBRSPAmgsfS6VSXsTRzEKPxR6Hmw6mzQe9crKjqcWuhbWiIcnL+cLU8x8dokovHxe1tqgDrS+1Omuxec8999jtt98eCCsWkDhpx0wQDawHH3zQPv3pT9s73/lO+9SnPjVNdBUKBXvyk58ctLMguk6UhB2JtEhdKYHEevWvnGfbTi/YZz5z0P7rv3aLqDtx41upccV6IwIRgYhARODEIsAcyr/FCfmc2pHPJ51jDlfS+gEih/OlCnW4+aHvPkif2EFQ/4Pm1DgnNanIwdWQtMUxFxwWmcW+fzhUX1/MW08xF0z7KIi5IKQSaxDIIogjHK4T0kvaoruMork5rzpy09pUaGrhR6uRMLMH80ItVrJagzB2fGpVtECao8h0NWhsNevwdRG+tKLfrGl44skqQGDlVq6rYHCxCxGBiEBEICJw8iDgiymIoXohKn00Sod0Ig+hn5OPOMiotClio7rY+ZAFK0J+jqkp7AhnloP9/f3afe8b9t3vfneaoPL+Qk4dPnzYDhw4YP/0T/9kBw8eDHWRft5559kdd9xhlD9RAoreN9pkzMdbNm3qsNe+7mxrbcnYv/zLozKn7AuL/ePdTqwvIhARiAhEBE5eBMLUq6m2NgUvYqAz8zIvnyBlijLhC7v2LWOyozZxScHZupNGxKFBhc8rHLSjfZUWCC0ILI6qChXEIHUV8rahJW+dIq696ZsAAEAASURBVLMg0yjiWlo4XO8q5Gy9XtKtE9GF/6qqCKfEFFEkUpOIL72FCzsSitKiTdLnoqQgnZq0+UxTk8atuvCdhZbYfMIyIKd+QnbRPpphUGmRMJgPtZh2ohGI38cTjXhsLyIQEYgIrCIE0pzFMtZ0xzwS2mx0ULHH+zkhiz2IICeSiEOITx9J7Mwnik2y0gsH557Xc3BNe2kiC5ILIWxu1q5CI70ql6j7E9faypvXXuWY0SoqFouGE/cf/OAH9r3vfS/0NVSij40bNxrpyNe//nX7zne+E8752Lx5s7GDIWaGJ5ucd95Gu+EVO22gf8z++eb7bUy7LEWJCEQEIgIRgYjAYhFINLAWm9vzMV9D26C1LdcDusqKzAoaTenFj2efJ6R9iCL8XKXXH/BBEEyzzApT9UBqoSkFyUXeTCDSEi0szArpBlpWVdWBphNaWh3Sym7JF4MmFuRROZTVWLRIyWdlRigiDuIK7S3MFeclpTRekwP7sGuhGlMX5hVIr2DOKAYL00VItSgRgdWGQG15nnQrfkVX258n9iciEBGICCwfAe7pTgKlw3SN6cWMkzjp9EblpuPSGVPnpC9GyEabCGH6SMfVn0/WFpC04yaB031SnJ9TLi3p+r1dT9daMJBb+FeH6MKNFXEI9TWzmCuUdE6vk74WCixkh3XMoHjOOefYnj17bNu2bYHE+tGPfjRNYm3dutV27NgRyo+MjNhnP/vZ6bR8Pm/XXHONfetb35pVX8i8xj8wVbz88i327Gu2CJMh+9u//cEaH1HsfkQgIhARiAicUARmptklNMt8jb8o7P2TuZvCSezMNXELCc1DREFWLbUrkFujIpsgsZCMtKLwZ9UtU0J8c1Efzt8xO8S/VXNzQZxTUWRVUeZ/mUBSjU9oUaJ6mtGm4k2bBO2vufqTjC7pKaQZJoGLMQPEDxdEGhpr1JEViRUlIrDaEJj1rVzqD3K1DSb2JyIQEYgIrCUE0ssneJH641jHwj0dbqX+mKtez1efXh/v13PNGaTXj6X+mjbmKu/ta/0UtJ8IWa/5dV5vKPGBBcHkaaSnj3S8l6MPLun+EMe156sPSZ+YkOPUXElhVT64zLZsQWuKMhXhW2O6lA/tqxtvvDFoWF122WV25513Bt9W1MGOhOeff77aSjqCqWFfXx9JQS655BL75je/aY/NboTei5UJ+Zs997mn2+Mf32Gf/vd++8Qn7hRJOKO5tjKtxlojAhGBiEBE4GRAQK+LwmImPY/PPS6f7JMQ8/+jFxwLrUCOrh0iai5Nq6Nzz45Bc2tITt3HeEMmXS4IpVZpUrXr4GEcTS1MCYNTd3U305S3ghy3swtgJZRlrYH2cuLsfSHH6qxKWIsZ6xMdIDHroV/X9YLmldxvhXyQWAj9CnXVZ47XEYHHEIFs+HI/hh2ITUcEIgIRgVMFAZYD6SXTrPP0xTyA1NcxT9aweFncYm+GcErX5/PDXHWQDtnj4vkIay8IkwWUMnia54V8CssjfVBPbeO+kJzO630gJJ4QE8LEiTtvKhPfVV4vIfm8DkL6iH8rb8fjPK+H7gOLOsnjIemQVLfccqvM30bt537u2dbentSJo/LR0VGyTMsWsVsvfOELlafdnvOc56jMmOqTvwrtRnjhhRfKmfl/BTILH1h79+61devWhbKdnZ2h3C233GIvetGLQpnpSk+Ck/Xr2+wXbtphR47cZR/+8H7btKldmlmn6e8jsKNEBCICEYGIQERgDgSYv/V/iZLMLXKDLpM7zelNU4ZfKuqhPpy5Q0iJH1oxYXqjLdopS2NqUA7dwwYq0qTCx1S7diUkHu0sNwvsmdQaRz0Kvqu0EJmYqljvWNU6i2PSiMqH3QrTjuhZr9BGWiCexrTQqkpzC80rRl2XJZ09nOMfDI2wtGCemJhvLlQ6XSqeRwRWFgEt6aNEBCICEYGIwGIRYDm01Gncy6TLedxi2mVhwgIFYaHl50nM3NfpBY3X4WW5Zp3i115XfUg6B/m9vvS11+H5KE+ckz/4myLNr73++mviyZcOyePmfF7n4OCItJR+LCJou8z0NtqGDUl76X6k66BOL+tjSPc1aTFpm3x+EM+5C29wq9X7ZAL3fXvVq65WGp1tsjPPPNM+//nP20033SSfWK1hoQe51t3drfFkgikh5oKcE/+kJz3Jdu/ebTfffHPIXy6XrSK7RUwIkec+97n2J3/yJ8GckPpONjn77PX267/+OHvve++wj398t0isVjvrrO6TbZhxPBGBiEBEICJwvBHQOmRx4hmZp9GaapapHXpPEDqJvypy4OMJgmZUcSshaDSxmyBt+fpjQFpYkEvt0krGTA8Nq/Fi1ibLia+sURyzj1e0ZqroJZ8cvyudevrlO7J3dMx6pAHOSIhDCItqA/ILE0QkpOiD68FKNdGiUpvzjRKSq6hFF5pdnPMP31yYKBLS/ygRgdWCgO8IOuuLyW8iflFXy58o9iMiEBF4LBGovx82msPTefzcw9B3VhN1BdNEFHm1Rpm1yKGc34dJd0mfE+fXkC2en3iuPY3rdJqfezpEkUvQQoK4UZukex5C/E2FOCU36/UHbSDEUUdIq51TD9f1bZGfcjW+JuQhjvzhTaXOKedCebS1EMrdc88++4d/eIe95S2vscc97qdn+pQqk+Se/el1Up+fz86x0JUWotoZ6M47b5cz92Fra2sLBc466yx74IEH7EMf+pC98pWvDLsIboBVk/DWEn9Yt99+uz372c9WuxnbsWOH/cqv/ErQysKhO1pX+MnCdxYaW5S94IILQp2Pf/zjQz0n28eFF22UJtaovf8v7rePf+x+++VXX2g9yar8ZBtqHE9EICIQEYgIHAcEfC2xuKpmLwgmppqkeZW1KZExkEfu9Jw6F+MXajFtBhJJhJGbGGq6D+RVvs6HFGTQgMgoTApx4s7SsKhwfTFjfdKyCjsXjlVEXI0qTTSSOinFqEBGkY5T9UKNFKNfkHAdIsPwzzU+mZBjOcURz5oK4os2kx0Paa2xgBhkG1ph9L2st4/l8URjLRBYjYvF2IjAY4JAILD84cB7sLSbhJeKYUQgIhARWBsIMFH7NM5EPd89b760RqP1/B56HggajyOsP693B0S/IGw8n9eTDknnIC/HNMFUu07Hp52dez7qYoEDGYV4HWlCK0lJ2kmXC4ST2m4k1IMQev89LklJPhvFpdMbnU9O9tkdd3xaZnsv0o5+jXLMH7ecNr1GNKLYJfDw4cPTBBZaVTkBg+8rSKysgDn77LNt586dIt4mbdeuXYHAIg8EVktLS/CD9Z73vMfuv//+QGB9+tOfDvW++MUvDrsUXnzxxcHBO+aGiamk9+DkCZ/61K32wP0D9i//csC2bL3PXvGKizTW2hfn5BlmHElEICIQEYgIHAcElm7GxiqPRYr0mEReVSaKgaCpiuSBPELYxe94TDuY85W0cMplpPEkE0EXzPEgjoKWlRZDmAmyJurDF5bWBxBpJfnAonyrtLAKYqpw5l5W2sBYOdRZxZxQawd6DElFnytKRzMKgXTqlhliJatyIp1GRTqhlRXMI1V/P6SY8uPTirbTs6yiggAH/UzIMLTVpmxYmmCQfZBXkGpLEScFKb+Q0C5jGJGNp5N/XgaSIidMGPfCNXmpGJ4KCNQeW06FocYxRgQiAqcKAszJPtlp/guSnkc9jYR0fJJz5pOy86V7TvI1aiedrvXDdB4nnepDJ46Id4II0ohrj/N42vN42vF070e6berl8H76ueepD+vrSKfPl5bO5+dLze/l5g8Tnwzz5zn+qWhIYe730EMP2RlnnBEawDwQE8Kenp5AXN12223y5zUuP09HpCH2uOCkHbPAO+64I/i7wrE7cvrppwc/WPfee68cwm8JpBi+r57xjGcEs0S0sNDeIt+KSfje6sMl/cPwuBUKi9p96XnP3yFMyvaxjx6wHTsetqc//Yzp38gKNRurjQhEBCICEYG1ioDmKF4ELU48HxNbs4idnNZz0lLSkRbIm/mEWhbIIsfn2rFPGVmHEbJuZA8/zjEThDySXlNoBmIIMm6oMpGQQ+pAZyFnRXlPz+ttYqfSyvJbhakjTt05nHALbejDHaxTIe2UtDDMN09ZsTwedixMWgrNWVX1YbbYlssGkoq+josUY0yBGAuDQ9fLglP5ghaI43IWzzWEku+cmNS28CeUYYsIKYipIfUdAmw+oZ1spin0H/LNhXi02lyDLZJYjkwMQSASWPF7EBGICKw5BJjYEJ/qfMGQxOqTDLVEzb9zSlgMMNtKOEc8PyGHx3uY5Jr9SRqHL14I04cTSJBPng8TOsgpQielnFjy+miFOK/Xy85uPbkibT5ZKH2+sjEtQaCjo0N/j2b77ne/a1deeaX+Lk2BZPre975nP/3TP21XXXWVdibcHMitr371q4GUQgsLM8OLLrrIfvjDHwaNK8cToqu3tzdoc1166aXyr/UDY2fCK664IpgSYppIfWh1rYQkfrmSt7IrUf9CdW7e3G4vfdmZdvDg3fZXf3W/rV/fIvPJxPxyobIxPSIQEYgIRAROHQQgfZYutTIZaUBPlUQMcb34eiBhMNnDl9RcWkgsvSCRgqSqxuyP2PTaCzIGIiantQOO20fRLBJZRDvBJ1auqPzS6p6s2milbOVyNWh0sTMhdWHe1yoiipB6DisdTa4pNZKTU3gIHxvDQ5aPO+kDHBIu3PNavwDjiCU7ANNHyk5ofGhtsTOiNWVVlwitjPoQ+pcMbbGfmC866QR5B1m2oKgfaFsxxhSE6gMxmEnKkb0GwW6MUSICILAyq+KIbUQgIhARWCICzFPp9Ult3gq1pOOJqJ/Cjkqvz1DrC3VCCKXzezvp0NM9LszpNVKKOPgE6iH087SmFOfEp+O8Dspz1F/XujgdeNvTEfHkMUcAAgu/VV/72tfkyP1V4fzWW2+1Bx980M4991wRMOsDQYVDdswBv//97wdyCj9XhULBnvKUpwTSKz0QFuUs0jBBvPrqq+0//uM/Aol1/vnnh/L9/f3TuxSmyx2Pc/8uel1z/Gw8eUXCc89dZy97+Xb7wz+4x/72g/faa17bLA20nhVpK1YaEYgIRAQiAmsXgeXPUVqQZeRzQL6wliKQKjhRz4gSGpfp3pyiNd201DpZv5sf6WTDTG9UhFVG1ZEVU0A0pLqKk3qhKSos2xK0tVoywyKp+ikW8iVlpW2V0y6E2YL1aDiHRqsi12ROqL61qiwO2BFFHSUQVPjcIkd/Be0qsmhzmVrfMfcLhJEINHddMIHpwBKEqtK7I1I3cfP93UKaPpysatQc9QTNsSnMGhvliHGnGgL6RfOl0Zer9oVIn59qYMTxRgQiAscXgUYTVzoufb/xe5D3wK/Js1ghbzo/JBH1eLynSfFlVhz5IKRId1LKCSjCPISUDtLJ5wQV542IKPIR7+Lt+nUM1yYCkFc4b//Od76jnRC/GfxcffGLX9R3Jhu0rvBzxYFASGFmiJ8rtLaQek0qf6PsITsX/szP/EwwSbzvvvvCToYHDhxYMQIrdGoVfDzlKVvsF39x0D74wb32kY88ZK9+dUFjPvl2YFwFUMcuRAQiAhGBNYlAWBMuk7wQTSMSJTzyLmnsvnbzcKHCkCt0EbIIrSoE7S1xS2H9SBrzPRpYmPxBXhGHmd6QdgtsE4nV3CRtseaCZaQJ1S7tpR751No/WQmmeNTf1Jy3TK7dSsq3QbsY7xkek6bUePAjRZO0i+kf2kpTHCpD/9lhsK3mb+tQuRK0rughJB3l6EdCWHEmUbA0+kp9U11p88akogU+Qzu1NlNZQ0wqmnHR10r4IqQyxtNTEoHwa05/F9LnpyQicdARgYjAohFg8vP5hQkSWege4vkXk9frDBXXPojjoB0/95AsnPPSCAIpkE8y0XOSyUkpNJpxXA7XwIEZX5qMIo68lPO6CdNSf51Oi+cnJwI4YMekD0fub3vb2+ypT32qff3rXw9E1WmnnXbUoMmLw3eOTZs2HZVOBG8dncDiGj9bP/VTP2Wf+cxngg+tb3/728G3lhNj5Dm+MvPF5ju90O/3+Lad1JbVW+Gfe/H5MsccFnnXK2LwUWmwnaXfZUL8rUSbsc6IQEQgIhARWDsIME+yflz82ivkTgYYNK9m5rpFj7q2YK0FCxbDnA+BEOJAqorrG5N2VU07CtKKMeC4HK0n/FtBTPVLC6t7vGJSrhJJVRKJVbSC/HWtl9P5oWp/0NIKTtFlKtgkLS3LtdiGtjHrKx8U+TUeSDGcr5OH+oYVRxfoOyHWhZj3sVkKPrPGJqqKpZ+kJqQXfrdC4ZCy9A+qojY0vdzJ/EK14I0r7HLYAOQJjT8nfTSEfkL84dS+QdaFmonpJxkCS6ejTzIA4nAiAhGBxSPA5DTrAZeZqjaTzIqvVTnfJBPmzHmaDhMhk6EOJ5I8JM4JJ1lmTRNUEFFOUhGSZ5qIUlua96fLpeunG1y7pM89LoYRAQis7du3h90F8Xv14x//2KrVqr3gBS8wzAvrhfylUsnuueeeoE2FaWFa0sRVOh5NrKc//en23//930H7Co2vJz/5yfqey7xAX875VO3T9Sx0DnGUR70Q0Y91vt9rkmllP6+7/kI7cOCH9ulPP2rnnNNpl17amPRb2V7E2iMCEYGIQERgdSKw1FkqnT+1yFvk4CCkmiZkQNhogdugjrny0Yt6QgdCBsfqw9KwQlsKf1Mj0sJqKcqJFbpP2aKomy5rlY+s7SJtHuwb1A6Ek1aVtlW+OdHSyhc7bWv7sEwJx+yI/GFhTgh5hRCkRx+oJWl1ZTUWnKz34StLGYKDeUGDSSFO11tz1eBDK1BxsysI9c73AUwUYedAbSq4KKFMwKZWNl0Icm/WZtP8CTloJMopjUAgsHhYW+Rv85QGKw4+InAyIlA/FzS6H3hc+j5BHOJhcjVzL6mP9/RQhnJ12k1oPUE4cVDWz4mHuOIasgpCykkpj3diizycc4R25uhjkho/IwJLQwACatu2baEQztnZgRCTwgsvvDD4uGpU25lnnmnf+ta3pv1keR7Iq7GxsUBK4cw9LRBUmB+y4+H//M//hB0NIchof2hoaN720vXMd86L4tHRnA0MjIffC9dp4TfI793DdNpKnXd3F+3al55lf/Hnd9vffOBu63xjs7TP1q9Uc7HeiEBEICIQEVgjCIT15zERF7UFYd14g9mbkoIWUF0aBA+7AB610K3L55feAuU4XAvL0wkhZciHSRzza0lmfePSloL8KuuF2Hh11JpyOmRGaDqaCt3WJk2k07Uz4YGRMRFY0pySk/dMvl1pndZe7A8mhL0isCCg5pIAndrgRVhBBBZ9wICRdunHpPrFDolDItRIW2j3wEbtsIzg71QVG0a4WJmrLeJx3r5ks8TFNhzzrVkEAoG1lC/Zmh1p7HhE4CRGgMlmsXNF/QNpfTnuBxzkQ+pD4jxPOt3jye+HpzvpNEtDCrJKdyAnnOReaBY5RR2e5n2ov6Z+xNOTq/h5KiAwOjoqHw4TIjb1RTpBQls7duyY1RqO2yGp5uoHWljsQPilL30pEFBocLGAhPzavXu3YXoIgZXWqoLc4vqcc84J4Sc+8Ymwg+EjjzwSnLxff/31dtNNN83qx1IvBJ3tfrigHQAH7LLLktLp3zXniIf8xvw8STn+n4z53HO7ZU64VQ7dd9n/+bO77c1vztmWrZ3Hv7FYY0QgIhARiAisGQTchHDpHWZBq7eaUyKEauZo6Tow5cO3En6oIJfqJcQscvJzEzd8UCXaWJo4a0L/0bIKBJaiMbODxHLn6mTD3LAiAitbHUr8YGVlSihzQSljWae0sCoTh3RIQwqSK691gwiubKHd2qplGxgb13PA0f1nXqUX46p7UkRYVv7ASjIlhBSij4G4qxVDE2owRWAdXVttMHMEyd+IcSZE2lLL11dLef4ubXk9LOgCXBsMsb5YvD4FEAgEVv3CtP76FMAhDjEisOoRYALiZs7vE+E+7pI69ag5w3Q5zwQx5EK6t0FcOr/fGwj9gD+gvPuNgqSCjEJbytMgsEh3LSvye3lCpP46iY2fEYHZCOALCj9Rf/3Xf21XXnmlPeEJT5idYQWvWAju2LFjVgtbtmyx008/fVZc/cXGjRvtaU97mn3sYx+zJz3pSfLxtNMgox544IHQ/+Hh4VlFDh48GEwHIcXOPvtsEUyXaTvtsv3nf/6n3XLLLWF3QnYpZFfD5Qq/z/GJ3dLwOqDf6wXS9kp+x2hioRBWr5GVvg8st83FlMvpbfSznrXd9u8btJtvPmh///cP2P96w4UyxZxtfrmYumKeiEBEICIQETi5ENA0vEghY1g1K+CcR97UYrdWC7vmoYWFk/OJsMvdUlbUWruqHo7ERxNniWAWmFNzZb0tgheDKIIwCrXrA3O/LH4tJO4fq6r44WrFihBY+LpSv4K/K2lb5WRKuE6aV6PlIatWBqWl1ao8cuguEqut0GrrSjIh1MTNXD0aTAmTF2Ft6gS7E6L3NSoNr6y6qCEH0q6sPkE2+fwOgVYWycYoEgIudG9JH4xV/xPx8dYuIc0gucizWIHwg5zj7z6r7sVWEPOdlAgEAsu/uD7C+muPj2FEICKwMggwWaTv59yo63+Hnu7x5HHxOL/2kHjy+eHxhF6G0M+J93qdZIKEciKKkAdfJ6kInZRyksrzej1eZ/qauCgRgeUgwE6AkEZ33HGHoYn07//+70EDCnLpRAhkFeZ8AwMDQZMKgmndunXzNu3E10tf+lLtsvcR+9SnPhV8Y1188cXBuftDDz00q/yXv/xlu+CCC4LmFiQW7VEHJoT43Dp06JC9613vso9+9KOhnlmFF3nBb7e5+T9V13fkLP5a6+uzcMiqMWhCQmKhpcW9oZ7MogngJs3DRTa7qGw4b3/lL1xsDz30TfvOd3vtc5/bZS984dnq74n5Gy+qkzFTRCAiEBGICJwwBCA+Zi1WF9Uyc4ZPVAlZ1KgYufDblNWcV1H2haQk7SmIqbB2VmGmpnbNW33lxByPeAgqjrlkXJkgtSB1aJ+DHuITq3l02PCqmRPhlpH2WEamgk3FjZaXGWEzhn+TIzYxekBaWO1heE3akbC7VAwaXRBQEFH7ZW5IP7rk57JdGkyQW+yI2D8mM0Wdo/mFpMkkNJwoiyYZ5NlyhDEVGkANUdiqF1RggibaImCebj5qXk1DEU9qCDTWwFLiUr5YEc2IQERgYQSYCvx35fMCkwvi8ZyHfOkIIlPiZT3K6yCew69JT+cl3vMQQlBxQDhxQERxTejEFCGEFemUIYSoIiRvfRvp9pLU+BkROL4ItLa22llnnRVM8CByXvjCF9rf/M3fBCfnc5nxHc8eQJ7h8wq/VjhoRxMKjbCFBAIKv1avetWrguYVZoOYHkLIhYV5qoL+/n77r//6r0BYPe5xjwvpkFcbNmzQ7y8bTA7RxPrRj34UNLpSRZd0msk8qHvPf8rBvMmXl4mI0+JZymDi5sKhdWzQxoLIcjLL7y/14ZIaXmTm//WGJ2q3x+/bv//bHu3+WJLG2Vbde2o3nkXWEbNFBCICEYGIwNpHgDlnnqXxPAPU4jWIFrdhhV27rAWkQkgF8kZhRf6oFhJmIQggSCiE+R3CpyD1ply1SSTY3MRVKKAPiB7M45C8FtRtIsBw6g4xhkP26uSQdan6ojSxmjEllMZVc8sGkVfygzV6WFrZ/dY8XlabLUFbqznXZl3sTpgRuVYdEVHUb71jFeso5KyjpcPGqmM2UB6VI/iJ4FeqnkICh4S0SvDScIKpIdpcSxF8Vrmg9QVW4IOGG/U3a6xNGfm28kWEZ45hRGAJCGD2e9Tb1Zmv3hJqilkjAhGBWQjw2/L7M9NB+nfl8bMK6IIyCOq96Tx+TrrnIc7Pk1LJJ+QSQugHpJOTUpQhnmuPI53D00jnPH0ktcbPiMBjiwAE1o4dO6Sd85C9+tWvDqaEv/Ebv2Hvec977BnPeEYgeFayh7R/xRVXhB0CN23aFAgsyKXFCIs4fGb19PRo3tXuRlrI1ZsPUs/OnTvt4YcfDg7cIawguMiLKSI7FO7duzcQeOxSeOmll4a0xbTfOM9g+J37vUDDs64u+Z0Y0bbe/Uko60U5fE9Kc9+BzILcaiTcM/x+1Sh9KXEdHSX7hV840/7y/ffah/+/XRp/SSaV82u7LaX+mDciEBGICEQE1gYCOBlnbtFUuEhh1a0JKRxQKc1ahx9dGCIJMgVyBS0hSlByPimL1Em/ePJaC+pceMcyx/xYXydtI/imap1KFu88mI/p+qB2FiR9gwipEuaCOgwSq7Q+OHo/PHRIZFfZNrdWrL3ULt6qGDSyMiKyWmSC2BMcsveG9UFTrsOK2UnVd8j6BwdtSCQW2lgukHF5qZFBpDXxACLhsyj/YOzEWOtmiF/oAyzd8TpabRn1n/rx94UknwvVEtMjAvMj4L+56Vz6jkWJCEQEjgMC6Ye4mWkiqZjfGSQRE7EfczVJPeRP/zYpi6YU2lFoTqBBoWdbOYQ2aXmYNDtMD3omJ9Amp8gmE6HkeudO08Nxkoe8lNGztEyUzHhwlb/pUCdklvcv3e5cfYzxEYEThQBO0Xfs2GG7du2yF7zgBfb+97/f9u/fb295y1uCVhTE0EoKRNLll1+u30rinN0drS+lTeqAmCJsJI9//OP1OyzoN56zL3zhC/boo4+GHQnR1tq8eXMoggYXBBbO7I+X8Fvnt899gPsCrr24nxByryCedO49HHS//v6Qvu/Rr/r0pfSVshddtMFe8vOnaSfGqv3fD92rnRu1A1OUiEBEICIQETilEAgElpiUmtuoRYxdE8gs0aRlmsTqKBTIKPwsubkf5nMLCSRNeqURzsNaPdHEojzz12LnP8gw6uQfL7pUVdgREBKrf2TQxkeP2JS0qjJNWRFZ7XLc3iGTx6wdLlds7+CIjY5JdVqkFzsTNrdvs2z32dbRvknaWVmRSeoHxFex21qKndaiyXsMLazaZA2v1CKiqqeYt+5iTiRWgltR2mg4T8d/1lKEvqNZBq4QVwWVd/JqKfXEvBGB+RAIGljzZYhpEYFTHQFu5dyQESYj7vkcC01MzIEcnpfQn605R4shLen6OOdBkZAHRYgqrjk4x0k6BBPX/jDJNfnTD5Vcc0SJCJwsCEDqsHMf5oKQWM973vP0Hc/Ya1/72nD88z//c9CKWsnx/sRP/IRdddVVQRNr69atx9QUC9f0m1wqg6RCs+q+++4LTtzf97732S/90i8FX1vPetaz7O67757exRACC62w4y3cR7jXoJlF9ZDkQ0PJgWaWXuKG+w/3srS/rPp+kM49iHA5glP3q6/eIRJv1P7tU/ulcXebvf71tW0Tl1NhLBMRiAhEBCICaw6BMFeq10tf0noJLZLtaG1pFJHwCZWYzzFXLW2yIreX4Zx64IBKWqNAhmGyh1+phSSY3qkCeguRhdZT4rNKGlblPmvOYSqYC0eTSKyeUosNyUQQoqhfatK5XFnrIjl1b9+sPM1W0E6FLYf3qA7t0IIfLRFY2clx6xobsIMj5WnzxWal4SNrY0tehFOT/FON26HRStBGwz9XQeNgd8KUwta8Q8EcE8JqVBpgBYXgkRUOYAw+USICxwMBPf5GiQic2ggkk8VsDGbF6YLJKD2n8UCGEEIikZY+SGO+4kjndXKJOA7IJ+IIeVDkgdHPuYaU4po2OPdyHnofCKNEBE4VBDDdwx/U7bffHrSwnvOc5wQTQrSwXvKSl9jHP/5xO++88/Tb0o9rBWT79u329re/PfivWoz/q/m6ABHHgXN2F/qNs/i9MhXESfyb3/zm4DQe7bIbbrjB7rzzzuAji7SVGqP3hXsN9x4O7k+dnYmvLAisI0cSE0Ng5l4HkcV9kPP0/TJ9Tn3pa29nvjCrt8PXXnum3XXnoP3HlwZs+/a7RVyeo/viyvx95+tLTIsIRAQiAhGBxwABZz80hyxevBAlRO6YfE4GM8KZN8iQT5jqYUJHWK2boGgOU7iqGJx0bdN9UOS4DtegIg+kT4tevoQdDjVNDYlDwon6XEKZWamKoF1M+Kh3cGzU8rkj4qHy1iTtq4y0rwqlDjtNuxJOTE4EjSq0sArj2oWl0GJTbeusWWaE6zt77JBIrKmJMT0/yAeVnMG3lDqlbTVko0NyQq82aIe+FjBT1I6G1jRsJZFP4IJBJY7XcSzvGlvKHoTnIkqTj3oQdlNE44q0ij6Ih8xq1U6IE9oJcrCS7Mjo+UOh+BERWAYC2brf6ZIXlstoMxaJCKwqBLiR8gAGSTTLUXHtDksaD27u94XfTPoBjYc2J5TIy8HDnodOPvkDIMQUcRxOUumFhZw0zpQDIOp0SZ97XAwjAqcqAviCwpcUTswRtLKuvfZamZeN2Tve8Y6wO+Gf//mfBw0pTPWOt9AeWlgs3I7VcTymguxi+IMf/CDsNohpImQWWmVeNzsS7hWZxc6LOLB/05veFBzA44uL/CdKuA85oU6zkFn4ykIzC8fv7GDI/ZDD75f0Lb3O4Jx60nGL6T/+sF7zmrNFVN5pn/jX/TJpbI1O3RcDXMwTEYgIRAROAgTCkpz5Y0lj0YLc6ZWMFvJTaCvProF6cVTOnIQpYb0EAkbriHKG3fNmiC/PRwmIL9IgeSb0gEBdEGKdYfc/iCD5lNT2huRLCyZ2QS9J0YEQIqPO0XZinsScD0II7ayh0QFrk4ZUVk7cMxk0sQrW2rZJloMTlpNWVZ9MDVtG+yyna5NPLOvcaqXW9TZ28FGbGBu05lbFS0ML7a2NUqseEUnVL4f1tI/mVRMaXiKxciK62rQG6ZXDd70/D+QdJNZ4IJ+S/tPvQNApBDvMLxk73edAIO/AsyjH9vwLZJ5BYKFdltST5IyfEYGlIzBrZe9fuvi1WjqQscSJR4CbO5K+DxKXvvZ5i+80BBIPX04+kc9fiFAOwok4j/e6yIMTY679wISP52InqiC4uPaHOyepSPc8moMCSUU7Xk8YgD64jhIRiAgsDgG0rzicwKIURNArXvGKEKKxBMnz7ne/O5j6ORG0uNoXl+t4aT5BsLGr4Te+8Y3gw+vKK68M2lWXXHJJ6AhEFgJphjAW8rCjIaTW8epHqHyRH3SJ+xqmhdqIMfjQw2cWWlmQWZBa3DMhshAns/ze7GGSmtz/6uM8LR3u2Lnefl0k1vv+z932r//yiLTUOqSNxWbjUSICEYGIQETgZEYg0fTBR9RSRsnqnwNRQRE105dJZPiEIBoR8eM5U0nhlDYDwZRKIM7nLczjKpNJ3ZA2EDyB5NHb6Va1ST7awBQPbS3yQ4zhZwoyh3j36RNM7lSevjBU/FNhytcfzAWPWGulbK3SssJpe7N8Xlm+w0r5Xjs0fJ8NjRy2Fu1OOKXyGZFYORFY7Po3KgIrVxkIBBVaXIVCq53WXrHs8FjwoxW0wzLyy6m6SC/J31bfWDkQbrRNP0fGJ9XPBCH6JV7KitKsQktsUEQYjuHTwjggtiDtGCN4MOYoEYHjgcAsAiv5Wh6PamMdEYHlI8Dtbb7voqf7xEGo+2IQztEMgHTimKVRpRx+TWbSXShXkYqvk0tOSLmGFKGf8+AGgcXzJKQUMwzkFWW9PGFavH/puHgeEYgILA8ByCvMCL/85S+LMBnSRgbayUACifWyl73MMOt7wxveEBy7/8mf/Elwuu5E0PJaXNlSHdpFAcfwX/nKV+yLX/yiff7zn9cOgP1BI6tRy5Be+AF76KGHwi6Gi90FsVFdxxrHvY77JfdHCC3uo/iVh8zyXQy5/3GP9ftv+t5L+6Qhni+5avx58cWb7fobxu1vP3ifffSj98rv2SW6H89ayjQuGGMjAhGBiEBEYM0i4PNEYHWWMYpkF0It4OeQ2jR0VKrHp7WnIGLw9YQWE5pHpI2LrIG0gaiStVwgbZrki4qjLZdob7HDn5KlmZSQOS2qg/qzIn8oi8DxoK1EAnwRfrQKIomG1Na+4bLl5bi9uzhi69u6tCOhTAVbN4qYarH21oM2OtJnk/27rGnkbE2o8nuVLWkHw6zILdZJ2pEQEKcmAvnVWuywTTYUdhnEqftULV7e3i1XHbTCyIBMF6vBPxYkVUe+2Y6UE19YzPuYC4JBSRf0vFIjqjAoDDpXigSXMRFfkHBJLnJGiQgcOwJx1XfsGMYalokAtzFu3LV79vRDTMM4Rfptj4mBhyXXpuKhyB+MuDfz5n96oqv1za89DDdf1QER5XVBQjkxlY4jL4f3k9CPZQ49FosIRASOAQEInB07duh3mAlaWJA/Lmgq4didt7Wvec1r7Jd/+Zft3/7t34LJnedZbSHj6JEK0zXXXGM333xzIOf6+vrs4MGD9uQnP3lWd52II2QnwglufqtA1J1A5Pt9lJ1N0cpy80JMDCG3yEeX0c6qJ7J8GOTxe7XHecgDwBVXbJI/rD773OcO2KaNP7IbX/kET45hRCAiEBGICJysCPCAsCRJFeDhYRkCCTMwNh6eV7w4O/NBMmEmOCqVKlrBWTukDue8H8cBO+RWk4ikvIiezkLW8iJzBuVPijjKdykOEqu3XLUBaTGNq0yzVJsgyLKqy52/F/QQ0qp8h0arIs2q0saqBsJse+smTbxFaU61i6B61B45csA29D9spcMPy2m7bPy1M2Feb90PSC16s7SziurPlOKIb5K5YKu0rjaKeMMJ/KT8ZE2pX00ivaZyHdZRKKpflaBFBYHWIXNInLEPqZ+sPzhvk2khWGCGOMzYlMbc3a5x0UfmckwrmysyOczKv9hck74DG8OIwCIRiATWIoGK2ZaOAFOFTx2NHkhII0+YUsJH0gY3P+5xkEYQSn5NnN/78Hfs5imUon7ye8hDFJpSxKEdwAHhRXw6JN7zeT0eUleUiEBEYHUisHPnTpmvlew73/lO0F5K9xIzu5/92Z8NWkxve9vbAqEFMfT4xz9e9wTdFFapoIl13XXXhV0Gt2zZYnfdddd0fyHkGokTWo3SHqs4IObgXotWFkTWsHb5Fic37SuLezH3ce7pfo+vH6LPG9yK06Nvbc3bz714mz26Z9Q+/OHDtnXr/fbMZ+3UvXz1/m0fq79FbDciEBGICJwMCCQmhMk6f/njYTZZ+uJ+vG5y8hrQjhrLJCZyaFaVReIg9BXNo4oeVCCjmJnQsILw6tFOgv0ixIgvaiLM5YrWI79TlanRUJ6XNBw5NYIGFuaFEESQYxBGI8SrmQGZFFZHDlrzeNmaWjusIH9YXYX77dChXXZa24+tqbTeJgf3qh8JCVWujMjsTzXhzF19aJYvrGyxxXpUd3n8oHxYDltepoOWa7OMCLFCviT/W4NBQ6tVZfB51VnI2IiILLTBMC1EqyojEqwln7F2xeHsHcKvorFnRYbR3qgmeUwJA2b6SM/lAaz4ERFYBgKRwFoGaLFIYwSc8PH7fPomxcMM6f6w4nl0fwsPOVx7GqHX5W/suYZo4oGIZxRp5IZrJ6TSGlMeR0gZQg7q8Hrrw8YjirERgYjAakVg586dwYH5rbfe2rCLaGK9/OUvD1pKv/d7v2e/9Eu/ZJgTPu1pT9P9QDeEVSqQWE94whN079JiUV7SIemQRgRWo7jVNizuwdz/uUdj6YmGLGQWGlloZ/EiwomstCZtehzpucTjTzuty268cYcdPnyX/d3/fcTWb2izSy7R2+goEYGIQEQgIhARmEbAZxBNRNqJUE8C0ynLPYHQ0uNIIKXwXVXxh5pUhSOa0PpEVEH0IGRBi4qyI+PByE5zY3PY+S+L4/RcxYalwTSiFzsUgRzD3hBCCLNEykFg9RQ1Bj08lTVxlsdGZOp3SG/p22VG2GY9HZ22++A+6zzwI8sXu+SPstcOjowFAg1yaXJqJBBirZqQO7LyoyWiKteUtXXVUatUpYVV6bNM2OUwHwiuVu18iHZYWQRUWz6ntVNRuyFqLp9QXLVSI6Xw95VT38ZFeFVD/WN6kGPU/oJtVFjgB4txMZ4oEYFjRcB9xh1rPbH8SYQA5A432kayUBrPhRBQTkZRB2U4/Dw5m/nk4cUJLso76UQIYcVBvJNUXJM/nc8fkurb8euZ1uJZRCAicDIgsFMEFuTOd7/73TmHg0+sG2+8MRBdv/M7v2O/+7u/Gxy7P+MZzwgE0ZwFH+MEd9iOL6/5ZC0QWPTf5wA0XrmPo5XV1ZUQWfjKgtDCbxbkFsL84WRWEpN8Ug9zE9MJU9QFF2yUiei4/e8/uss++pGHrLu7KKfuMpuIEhGICEQEIgInFQLhuaR2/1/8wGoPH2HGcAKL8Ngk7K6nKpiTavzUURVCOA1KK4m5CnNB8qJxVdIDS755wqoihcJ8JvIqo23IizlNglYJ2ln4nEJDK5BfKgeBBPGT0xv8rpY2y8nZenV8zCarQzYxsj+QTnSgVOiU+d5he7T3kDiuXmlW6Q2RGtlQygfyC2ftkGpHZIp4dn5QuxRuCZpaLeMjVunbbdVyX+LIXWaE7FjYrkkbs0B3xp5rLkiBQIf8ZTU3DckSUVsPq/6MHspKejiDhBuV9hVjRoLCgfoPZ8UY5hJlCRpmtONl58ob4yMCIDDrNbQvDiM0JycC3CD8xtDob51Onw8BHkL84YIHDYT6EI9PrpJPbtDkIw9EE4cTU4RcU+dcJJWTW+SjDm+L2tPn6TbjeUQgInByI4ATd47vf//70sI5bOvWrWs4YBycX3vttSJNWu31r3+9QWS9//3vt8suu6xh/tUe6W80Ia84/Hq199v7xz2bez0HJuJSMpPpQqKNhdN3CC2uud87keXzDHMJBwyW3/svvXSLXXf9kJy6P6KdCR+wm37xPJFjidaatxnDiEBEICIQEVjbCIT7v4bg9/4lj4aCU5pYwiuQJZeeVSDsKCiiBqJprv7Q3zL+n9Qs1BSEVEGMTkdePrH0YIOJIbsRkq+pWdpNIoxyylytKL46FfK6jynMB0dFRuFXa73IpWzbFsuq4IRMCCfHem2i/yFrKnTJf1WLbWjvtMODfcGpOi/xOjqLVpQ5YPNUNZBew5UJ26tJtk+O3YsdMj8s9cgZ/EZrE3lV1m6FWdXZVJTdv6QgjavWXFkk1oTqm7SSNL+aZHo4FR7MsjZZPqx5uioSj50Sm2RmKD9ZIsiGRdy1SlsME0OOxdBSjJGdCkeEWZSIwEIIzCKwFsoc01c/ArpPziKpQo9Z9KfiieOGWS8excMCxBIPGGhHpfNyo66PS9dDOuWcpOJtu5NThNRLHIc/xFCecukjXWc8jwhEBCIC9QhgYnf++efb//zP/wSfUU996lPrs0xfYzKIT6yqbl6ve93rglbWl770JTv99NOn86z2Eyes0v1cKxpY6T6nz1kDMxcwL6CV1d2dEFm+gyEhabxE5mBuYp5AmJc4x1fIT//0Ttu/f8Q+85kjtv2Mh+1FL3pciE9yxs+IQEQgIhARWPsI1J5kanPA4sfjBdC8Oj6PvfQEogUCqvYev2F3cOJOXnxjQQBB0LTLhxQ9CvFak5QKMsWTKWGzDpy1Q/hQriyNAHbvK2itU8zmAil0ROZ88hmv5yqRVUVNmPJlNd5/n40P77GmypAuWyxXXGebpYll2VZr7twm7a68TVUGbXJImlrlQ7ZVJoPlcW0SM1q29SKsmttEMqmunOocUx1j5SNWkJN3ymVErLXl8jJrLItwkzbZpMilrDSw8JMlzbEpaW4Nj5TlDB5TyaxIq5pTejlwx8QLgg9iaoKyDRGaiQQT8oNTvZmhpnlprqkeVYJPsIXqmqk1np2sCEQTwjX4l/UbH11nAZ8mmNI/ao8nD2XSQhoPD/6WO52XfDwopP1PkZd6PHSCCxIqTUhRH2/VnZzimnPKIqEv9Ke+Q0ly/IwIRAQiAotGAKfsk7pZ3XnnnTYfgUWFEF7Pf/7z5XtpwN7+9rfbs5/9bPvHf/xHe+ITnxjSFt3oY5gxTWL5+VrTwGoEn88LzB3MJ+xgiEIdBBaO3zEv5MUJJBZavsxPzFl+lEo5e8lLzpGPrQfse987JNPCbjvvvI2NmopxEYGIQEQgIrBWEUg/5CxqDBTggSMj0kMayybS5agnokVV1DBTJeXPCXqsgI8rTVCYGCKYDkK+cKC1xU6DOHD3+Zsd+tpFDkFesTMgGlpoak2KqWF+g6zB31VTUyE4UN8/NGYj5VFrZRQt67RjYd4mRDj1Hr5fE+WIdbaKiJLz9uaOs2xq6wVW3rbTyrLXb9uzx7J3fsOmDo1Ly6toZ23I277+IzLb77W8yC0IrKbSOssM77fDI8PWrnZbtAthk0iqkiblbhFXY5p8JyYqlmMXQ2lm4cWrKdurUfZpZ8KKfGThaD6j3Qvl5F2TNX1PHNWr/xo/JB5mlY2EWHxk8XcqCUPMFtOCxhrYItQ1orqinNoIZCEiWAyyKIyyOhFgcZ/+zad//h7vDwDpaz+HROKcv7MTRx56HMQUB3kJnYDi+0GcvyXnmnSuyUOalyEe8brrz0Ni/IgIRAQiAscJgYsuuigQWOzWtxjBnPD6668Pi8e3vvWt9uu//uv23ve+16688krdz47Pm9nF9GM5eTAFGNFW2Hu0ED377LN1n9WC3G/yy6lwlZbx+YW5pqUl8ZWlYQeH7zh+x7yQlytOZDGHAcP69a0iKM+2iy46Yg880Cvz0jZpdKmCKBGBiEBEICKw5hHgPs/zT/oZY+FB6QGqJpwlrtf1AGOaVI6zZEXelKRBVJ1AgwqH6ZAtGWlRSbtKIYQOWlv9laoV9eDEWHBuPliBwFLfNJkR5/6vIHwgwgIZJr9TOFtvzQ1ar4iqHpFOmCZmZP6XlR+rqd49trdf5nyqYEOx06bWbbf+i863XZeLNOvZYxseOs3OrD7RssMHpY2l3QalbbVBeSty3j4+etByEFIyTSzk22xSBNYjA4O2rlSxnpaSxtAUfGE1VcY0745J62pUWmIqnCsFx/E5+e86MDyiMWj8GkirMOiWp/dhjdXRRwsLMgv/WIGUq2EPYcfftaqxo3WGMC7w8mvigkN7TiR5YZf2s5XExs9TDYEs5AMLxUhgrfyfnptu7ffZsLG50sNNW79r0p0kSldAOmn14nGkU46/NYcTT/zdOXcyims/PC8hZf2gTq+X9tLn9e3H64hARCAisJIIoIEFiYMGFuFitJEggl7xilcYDtLf+MY32lve8hZ7z3veE0gstLRWq9Df7du32y233BL8feHT62QksBx/5hafq9iI0bWyfPdCSC00syCwOFjDdHSU7MILt9iZZ2rbcL3BrcoPRz6vB4XaHEkYJSIQEYgIRATWHgJhvjvmezjklfyZBGrlmCubBSKkC4LWVVakT0WaSkEjSSaDEEv4r+oTeXVIDtS71QU0juhBn8ztMJlDBwCfWexUWBAJhBYS2loj2j1Q+lHyqd4qQmnI9g4NW3lIpJPM/5paN1pTS491tq+zgdGBQCR1tPVbUW9/jpw/YV2XftYu7PmK7dl2jR1+9Kds0wMbLNM/HnxclaT1NXnkPtW1Xz64ILAK0ugqyY9VXuaFFds9OCKUptRmm+ILVlJ/q9p9cBJTxfGyyCt2PpTJoswMIdnob047JLbI91WriCrM+3HKjkDkoVklPeowbtdQCz7E1EoZNwGqg9xodtUTWECboEtdCcZp7TfaiHJqIRBeObP4Q+LiLsFhqZ/8qPw2yI9sLhznivf2+DtQnkW7n3t96bJ+ThpCyOEkFSGkFAfPY5BS7n+Kup244ryemPK6vN7QQPyICEQEIgKrEAEct+/YscMOHDhgBw8etI0bF2c2hibWi1/8Yt0j88Gx+2//9m/bBz/4QbvkkktW4SiTLkGuQdjhx+vDH/6wvepVrwoJiyHtVu2gFtExn5OYw5jT0MrCnBACCzILx++cM5cxNzbzpleL7akpjpm5dNa8qXifsxfRhZglIhARiAhEBB5jBGbdw5fVF+76kChQRcdfqB3yCm0hdtyTL/ZAxBT0sIWJYI/ihkRGQd7g5BzyBoG46ReJRTyk1gaZxK8rFgKRBQE0qglvXI7Ss83d1lpqt4I0pAYGD1lr3y6RThBPLVZo32LbKgO26/BB6xvqtw2ZirVsPGTX5W+2l9z7TfvkGd+1P33y2bbuGzIv7H3EMtK0gpTKjR6xoQGZFw7ssnzLxuCLq7VQsp7CmO0bqdi+4TGRadqNsKUoLa0WPZsO2rjaaVK5ZnxkSSuMephRj4iFKoqkapcfrE6ZEbaIsGO8mPuBC+NtymQ1FsYsM0qV4jEWQgpya5i8OnIi/8YxU0wJGKHFVZB61pjqDbszKi7KqYtAILBW8UvnVfOX4UfmPxUW1EEUQZzHE+c32JA+zweYk5dFt4uXhbzi3NMJadPJJognyhPiMwRCimsW+Bycs9AnnjL+AEA73ncPve0YRgQiAhGBtYYA5M2ll15qt99+uz388MOLJrAYJ4QQjt1HpcYDgXXdddfZZz/7WTvjjDN0n/Sb/OpCJKebOuMdkx3d+973vmBKuLp6uLK94c/CvOdzHzsY4itraCghsiC0EtPCjMitivJpMgwPKzN/T59nqcvPV7bXsfaIQEQgIhAROB4I8Ly1vOk5lFTpnEiTrJ7bmBOIO34CyUK1mMWxeyCmcmhdEdkkE8AuvXxBS+mAtJswHWQckDLeE8gqynQXcsqfl7lgq3WMTVhveUzO1cekVSUDyLwIrNxh6x3utc6Bh0VytVimIDJKuwYWunbaepFdu3p7rUe+rTYp7fJ9h+3cD4zZrzx1r93+E3fYffKLVbpH6k4iiJraNlt++ICV+/bZ6GCvrZ+Ufyu1mRdhtVEa3kMi2fDZ1af220rKL7IsP1WxgfKIdcjvFhpb+OfKyJE8zucPK9+BEaErp/BBi0xkE6TVoEipIe1iyDiTXRibg2YWztrBp5iVzpUSIaUwDaza0Q7fndxTNZq3pa22vC/B8ftjx5oecwSykCW8zYwS7jvTtzN+G+nFbfo25/Hh98P9il9lAyHe0yCSKOdlyU4c+BNCOpGXcxbnTj5xHRzbiozSJhQh3gkryng+b8vbo/70OddRIgIRgYjAyYbAZZddZt/85jdt9+7dxvlSBL9XaGINiQF55zvfGQitD33oQ6Ge1WpOSJ+vuOKKQGIx7quvvnopQz5p8jK/MVfKsnJ6B8Ph4cTpO4TW5GTG7rlnn+bIvPxjdWgeTTSyHACfi8M8ydzsCTGMCEQEIgIRgVWHQLhn+417Wb3jgU1v/adkkx7olGVVMqsQfp2YO3DQDlc1zoee1SCmMB/EjxNaVbwUy4vEwq/UgAgd/FtxYCrXITN331EtaGfJjBCDwqzy90jleGCsYoNlOVbHbA8irNQmUumw7T/0sG1VvgI7DeY7tJvgacHZeu/wbTbWf8C6RrZYy4Eme/jLZm27Ru3pF3/BfrztAjlhl88tEVDNHafrOM3aeh+2Bw7sFnk0YJtaK3La3mrFQqvt7DK770i/NKsqtl6mj60yJcw0t6jFURuAQEP7Sn6wbGpCZoR6WBWmIyK9MHss6QEVB/O5pimZHkpLugpZhUllsithKSdfYWP4+Jo0uYoPmIIFj9PgWS8TItzwLSaWKyQlDt/rc8XrUwmBLPeCY7ofrCG00j8MztP3r4BDaixpTMICl+wq5OeOGwQTcVx7Wqqa6TJOUkE6oS4JGYWWFGWIc+0pXhhrvR3iKJMu5/UT+nm6rXgeEYgIRARONQQgrQa1XR0E1nIEM8Ibb7wxaGThD+sNb3iD/f7v//6qduyOJtbTn/5027xZb1CZSE5h8TmUFz3MoxBa5TLmhc126NCUff7zd1lXV6dIv53W09MeXhrx4sjneA9PYQjj0CMCEYGIwKpHwHfm48XF8kQPT5Al2lmvIUtSqzTZOTAzbdI3V1vUhqYVJBUEDSEwEDXaAABAAElEQVR+mSCzIK9aZUrHjoQVaVsVmWikrdQq5+Zd8ol1UL6kyE9ezO66CtK4GmfnwZFQBsImL82mYr7FWvLDIoUqtrHSb7lCj+KKMtHLS9uprF0FH7It0pwq9ZxjTe0ipDq328bO3VYd6LWxXpnltRXsUZnZT906aecc3GPd22TGqPKZob1W6j5LxFe7tXdusfUipPYM9AeNqNM75MOq1GUtpU7b1lGxB/tHRKKNWEnEWUaaYc1y2n54SHb7mUPWIZPGjBzWQ+RxjGm8EFidGmMbmlXKX9A4s03VoNEFRYWzezS20KICAzTXKDufKEswy4QIJCu4RTm1EVj2bWA1wcYCNtwb1KlGX2l+FsSn08J5KoI6IIvmEup3Ia8L5xzcUD3knAPtKBbUriXFc0ZI071Tv/9AUnl5J6q4dkmfe1wMIwIRgYhARGAGAfxW4RcKE8Jxbd28nN0Ecex+ww03WKds0n7rt34rOHb/wz/8Q3vqU5+qeWGeiWGmGyf8rCjG5vzzz1+1/TvRgPhcypzLXNva2mTPfOZG7dr4gP31X3/DfnzHLnvd659lbW1tYb2gr0owN0zP7d7nMPdqzk9N+54Uw4hARCAiEBE4wQhwn56QdhOaN7kcD0pLvTsn+TNT7P4395yOFlBJpFSziBZM3DBpm0vbh14EQkaMSq5ZZJQIqDGRVZXJ5rDzYFHaQiPqL1pGU/JhBZmT1cNfdzEXyBxM9CBwaDMnZ+hZkT6nyVfWAakQj49X1M9JrWcKIqsK9nB5UKRRn21UHU3K010qyrfUuB0cljaV7bXTZEbY1LYlOHVv6TzdRsoDNnwwY/vPb7Gf2GC2+0GzjQcGrXudyLDWDuvfv8sKQwcs07LOsqX1tnnd6dKWMnukX47gR0Ztm+rLF7vk+2rcWtTGkEwY142PWV4mhjhtx9n83sEhjUvaVsKLvw/EHyZ++PfCMX0pr/UY/dWY0byqlqtWFmht0tzKy7QQc0J2ZRzVgQ+shf6iwYxQdQcCiwajnNIITGtgLed2sNLIpfvEgtK/r+l470NYcHLR4DudjkLbibye3+sMRZUxfZ2uG+LJy3LO295ARtWIKq5Jh6zyeJ57/KAub9fb9vpjGBGICEQEIgLLQ4Dd+fBbtWfPHuvr65O52PplVYQm0wtf+MJACL3+9a8Pzt3/6Z/+yS644IJl1XciCi2HrDsR/Xqs22COZR7u6cnL2f3ldv/9t9hfvv/rtnnLERGUvyCNvaSH5NGzhR4WktD7nV4HUFf62vPEMCIQEYgIRAROHALhWU4f4m+WKP4UyNMjx9wi5aBpc768HuDGZQKH0/BG4rHUCBmD/yq0icZEekFesZMg15jOVURIBV1pZW4TUdUlJ+f4f4KUQZso0yTNpkKXdYjwycgkbxIn5xMVjbVobcWSZbXz4D4RSaXsEfmjahc5VLJtbZO2JzMSfGR1DBy07o5eay51W7Z1sxX7h2x037jd1f5Eu+aKb1ruwJiNZ0RAtVetuXuTyKdvWHfvvXKYLqoOv1fS3tqoyU4GhyLQhrWL76jlSz3S+OqSGWOf8o/Y8OiwyCv1U3+AnIA6JKftzU1l65zIBkftaFQ5uXRIfr46CjrY3VCaZzi2Bx8NVWNINK7QUhvR3BswkFkl4piGiwYfQWttoUwNysWokw+BLA5PWZzxfTjRCzV+9Onvobfv8em0WQtIZSCPC2leljgWpVwjHu/lw1iVn0UraZ7PiSYIKCeiOPcDgopz8pHOG14ntKiDeBev069jGBGICEQEIgIrgwAaUuedd57t3bvXjhw5smwCi965Y3d8Yv3u7/6uXXvttfaJT3wiOEtfrZpYK4PqyVNrqZS3P/qjN9ltt/2sfepTf2pPeELWXvKSl8nMMBt2MWQHQ+Z2fIGyHmJt4OsFUPD1RbJImp128qAURxIRiAhEBFY3AjjvTj8XLq+3PBzqIXHWU+RMTWF3u1oqz3JoFck6MBAvM7lmztDOQoOKAz9WgcASUVMVOVWQCV2r/FtVRGixw15oWfXxuNghEoudCvtkbkcZHkYhkpp1tIvA6tUug5Pjo4HYQuOpWyaDj8hsb5+IpNNUUYs0pIoy89shImvPQJ8NjvZb+/B+a27fbE3SnGoekGP13f324/ITrXxdq52VG7MfbJ2yQc11+XaZIepBua//UeuWT61smzxpsQOhzAm7NQEOVx4QKTZqpdaytMI6rL3QIlJrRFpYo/LDJRVnmTeiMSV6TqaFaJElaDJ+iLzg30uRR0bHpJ1V1u6FkF6M3oLz+vJEU9BQAzMXIIgSEVgKAlnePLqkF20ed7xDvq9ztePx/j0mb+r7PasrkEfk93TO09dOUFHIySknn1isQnI5EcW1m/dxTryne1nq8bbqz7mOEhGICEQEIgInHgGIJUzpPvnJTwYC61h7gH8piCt2J8Sx+0tf+lL7y7/8S3vKU54SCK5jrT+WP/EIoKn2gQ+83170ohfrb/lHduaZ6+1Zz7paOxg2BxKL3Qv15w4klpsWsoZwMsvXFunwxI8ithgRiAhEBE5hBHg4TD33LQ0JCksyevibEgkzB4ElrikIREyi7YORIERLrbzO8pBQEFtBg0q780kjiRwQOFXlg5gallkcgukcpogT1cSUsFXmdmh2tYgA6pQ/LLS7MDtE46pZRFVGOwc2TYxZy9iQVWWy19Q8omdPTAYLIrsq1qtdAfPDo7ZFmlAFaWLlCp22RdpbgyO9VhnaY7mhTdqVsMOaMPU7OGw/vOeJ9nfPfIa9/Jc/b9/cst723LPOWjX8ttZ2e+TwQdW/27pUV1aaW03tWywvf1odw312oO+ANooZEoHVJr/MrSKs+uzQSEWE3LB2GMwG/1UlaZgF31caN1jxjAyxBV6YBuILq2OsbN0BvmTnwElhgb8wyCvyw2tF8ip8VeLHEhGAhl6W8MVjMYeE72ZyuuCnlwkZVVC/7eQ0VR8R5IM8IqQtj0vOZuLDD0D5IJ04KOOElF+7TwzPkyanPA/1eDu0kT73NmMYEYgIRAQiAqsLAdfA2rdv33EhsBgdPrFe+cpXBgfpb33rW+2Nb3yjvfvd7w6O01fr7oSr66+y+npz1llnyTn/u+03f/M3pZH1B3bOOWcFzTpt8mTd3QmBhWkhB07gK5WEwILEck11RhXWJJzU1iUeRxglIhARiAhEBFYGAaeQuB8vTbhZ+4Okn6du4KnK3N8VZm20l5BXMxkoxY57kFDZjMgYMV4ZhVx7/9Cowg8UEVVNGFxTH4QXhBWO39ulmYWjc5y8Q3jh8yqn80y2ZE2Fbq1BjtjIyCG9VBmVQkVBGlM5O03M08NDZTssYqhVxND6osgzmfjlc23WRjvVQRsfeDjsRkjPm/oPWuvtOfvLJ77a/vuMdbarco58X223jvG91tm23g73H7ZHeg9LQ6pkHe3SwtLRrKOtY7PtHzhsQ6MDVipqd0MRdDifP6zdCPer/U7MH9XXdvUfQg7tKsgqTAR5dm6RMy0ILcYF6QXh507XBUPI11xNCKwZZONZRGBpCAQCiy8ci7KlyKz8/KLnKQ+pxOGkkJcl9LY9jj74OWlejjBNTEE8QUwRByFFyEE+J6rSZTl38X74dQwjAhGBiEBEYG0iwK40O3fuFMkwYY8++mgIjwfJBIl1/fXXW0dHRyA93vzmN9sf//Ef2+WXX655i0kvylpCgL/Zs5/97PC3RLPune98h/3DP/zDtLZ1SbuB609d28FQjmiHkwMTQ9YYPDRxQGiF5U5qzePfhlTUWoIm9jUiEBGICKx6BHg25BjsX86dtnaXJphKPRDWjTpoXcGyeBa/udfy0TLJLAEwL0RwQl7J4HJ9pl/4veKqVYcvF4gj74QmEUidFpE/mBJOivyZkL+rqXFNOlM9MiVsCeZ8mVGRWHqTQh3s/IcvLFkB2hERSaPVigirYZFo2s2vtEGaU1UbPXyfDfU/Yu1y624i1TIjk9bzw91W/o8n2X888SzLH2mzs+8oWLPMEDFX3NzWao8MDFn/UK+1jhywpq4zpL3Vbvm2Ddr5sGh98nm1rnVQWloyR5RmFdpW/dIAY6dBtM3WlXLWIf86nE9NiVhTvzhnV0X+Tkc03iGZTh4alZN6PYS7AShkFkRhk5OKGl+UiMBSEQgEFl+0YxHKs8BzwihdV1jsKZ08fk46P2gOxMs6EeXmfK45RXyasHIyijjE6/L6ktj4GRGICEQEIgKnAgJdXV22efNmOeu+X2rvUr9HreY4COaEz3/+8zV/TQWn7r/6q79q//qv/2po80RZewiwcyOadT/84Q/t7/7u7wLx+fa3v316DcHag6NVTwz4xIK86tcW5L29CbHlaw7S0usZllBhHVKD5FjXVGsP2djjiEBEICKwsggwD+tpMtybl9ZSuEOHsskOhDz61h5AG1SE+R/aReSYFNlC6bSgNTUFCaabPk7fZREnQqZme1jLSBkIK8iqtlw2aClBaWFahyYWpnZFxZe0xhhTG1WZEE6KkGqS3yuT4/MmkVj5XMkGx/ptSmua9qI0vnTdI59VheyQfE+NBe2sQnVE/qs2WLZlvUwLD9i+3n3y8PWgFeQHi10Pm/fcbaf/5wZbf/dmm1RfSw/dZZkD96l3ItC0A+FW9bs6UbXx4YOWHdwv28KN1ixfWF0tHfbgyKCNjA1aa1E7Eoq8whyyPDEetMsg77qmcno2Z5fBnEizTNhZEWKqIFCK8j05Ii00tLCGBFBeuzSihYZAEqKtpSqi+WBAJH4sB4EsZFB6IUYlcxFB5PXDF2iEHJRJq3V6HYROQLlmFAtE/WaDBhVxOEgnJI6D/JTzI90nr3c5g41lIgIRgYhARODkQwAtqe3bt9t9990n06/KcSOwQAr/SZBYA3KU9La3vc1e8IIX2Ec+8pGwO2F07L72vkutYqfe9KY32be//W1773vfG0isG264QWsPLT5q4msVXqJpk0vtZmgmv/7BXxYmhqxR8JXluxf6OsjLa/kShOU6axZfL9WiYxARiAhEBCICS0Qg3GdVJqFBllh4OjuqVRxzSzD5E8GCJDvnzW4RIgYTOvxkoVlUnZzbplFclQ1KCwm/UcH0ECJHkUMid9plftiiSaazIHM7EVtT1SGRVQPSgqLlTCCgYNHQespnta4RgZWVuWCHTP6am3vlI6tik5U+ax7frElJfqrkx2ri8D7brbcu2+QIPp/Xi7wj91mzyLHiw502WVaZ0T6bKh8R8SZCTI7g2fVwfExvaCr9NjG4O/imksMuK6lfeU2EI9L0KmVFqkm/DL9dmEYGLTWNqyqMgh5VkxzBa1xtctg+WKkG/1jswtgjDa1Do3gFA78ZM0KuILbSApbMleAd58s0MvF8LgSgoacJqEAY6VqairMkvTjjHKKKvJBZLPSc1GJRxxrQySgnqrgmLX14ORoK7ao+P0/O4mdEICIQEYgIRAQWRqBdLMO2bdvs+9//ftDAWrjE0nJAblx33XV641m1d7zjHXbTTTfZn/3ZnwVzQgiuKGsLgZ07dwbH/Ghjvec977EzzjjDrrrqKq1lZj/YsDZhTYNpIVpZ+MrCtBCtLEK9BA/aALPMC7VGCst1lWVZw5ophGsLotjbiEBEICKw+hCo3U+X1jHuwIhIoUCnSIsi7ESoG/gcAsE0n4yJfEILyWueLy9zQFWEV1YPvhA7Y3rzgWkd5oSlvCgg+ZgqiQCakvP2CcglaUVNiYDCeTskEgTWwFjVivmqNReKIrYK1qoyQ4NytC4zw+bSEWlhbZLWVrt1yhb+/iN9KjdsG0U65UWuVff1BqfyI5UxaVSNSoOryTa0tllJuw82t6qczAYnhvfZxMAuPeBLvbgpJ4pvKvi3Ko+LXNO6B8JJFFuIo9+QfJgSTkojS42pT4mZ4ZAILMaLtla7NMwg63QZjrw0s/ABVi/Ms5gnQmIh7GIYJSKwEALTuxCybnMiCY0sP9dvZ5qQ4pzFnBNRTlBxTXlC8nDu5agH8bD+PCTGj4hARCAiEBGICCwTAQgsNLA+/vGPy+xLdl8rIO7YvaQFIv6wfud3fic4dr/yyis132nii7KmEMCX2fve9z77tV/7tUBG7tixI2hjNRoE6xdf36Ax7r6yILHYwZAQx+8QWSzeWUNxcI4QhKWQPjwuJMSPiEBEICIQEVgUAsfv3gmBxcFa4WhCZTGdGVdnIHIWQ2HRAoQP5og4PEeTCU2jURFZ45o0crWH6Cn5sZqs6u0I5ojSkBKjFQisnCYgNJ/KlbJ2C1Qd0sLKaOfBFjl4HxrttfzIQdUhv1kikbpaOq17eMiGKiLHpLVVUBsDOj80MiYCTbsf6iF+SIRYdWLAzpAD+ELHdtkVSsVYbY8N7LbK+IPBdHFSpokQSphGJn3Fd9dUIJpwQj8KoaXrqnx3FbRzIThkRarha7IikgpTQswkW3OJY3c4KTS2xiC86iX1J0gIPjS7okQE5kcgmBByU4CYamtL/D+wFkd1nt+Uk1SkQ0z5wYKOfIQcLulzj4thRCAiEBGICEQEVgqBvCaq008/XeTAVPCDtXPnzhVpChLr5S9/ubRxWu03fuM3AokFCXLZZZeFhduKNBorXTEErr766vB3RKvuT//0T+0P/uAP5jU/9fUO6yPWRmhlyf1aILAwMcS8EDLLCaxZJoaMIrUqZ9nEJXWyBosSEYgIRAQiAvMjcGy3yqS0vDnp3nvsmtMQNbNu6qmuF/SwDFlVFkElnic4eIeWwel6XhpQEEBoeXVDYMnsKaP4irSfJsZGLD9e1fN3QfMCztI114hIgvjBcXvbhN6UNCk/ZoSVHpsSgTUo/1VdeZFacsyOn6xtHa3BR1azJpdRMUeHRsfUvtm2zi5ra98kNwsjtuvgI9Y/fMQ2rpMvKvnQmhofs8zgo7an74j8cuH/i90TJ4PGWCn0F39W6qvGBQEHuVXRwMrqa4v6lJHWVpgf1Q7mla55VRLZBSkVdiHURAcRB/mXFq5In0IBRpWg2UbdUSIC8yGQ3bLF7PBhkwNcs61bk0UZBcIXUT8cD+erJKZFBCICEYGIQETgsURgiyazHjkruu222wxiYqUEk0H8YLHr4ete9zq76aab7Atf+EIg0FaqzVjvyiDA35KdJm+99Vb7i7/4Czv33HPtNa95zaIaY23ESz4OdjDEvBAtLDSycPoOmeXrJ4gsfV0CsTVdOesrXbCWJ1/dmn46WzyJCEQEIgIRAe6RulnCa3DjXLKEu61KEbbqs6iqPG7JlYUCc1EsEEeQVBAxED34wIKggZPBGbq4qxBCLg3L5I5d+/BJhW+pAWlHZaaqMvMrS3spIZKoY1jlSOuRk/cmaT01ibDC9K8oZ+97B/tVxx4rtG4UkZSVX+kOK+RkHqn6BmUyyDjb1UZnzzbLdZ9rOH7fqnqOqNy6cp81dZ6hnQzXWbbYY8OHDtnekXLoN/0qyRk7vruCNpb6PSZSrUP9yml8UyKj8HlVkrliSaaNUyKuIOkwExwM2mnyca2yOWm75GQ+2Kb+5LVT4bjMEuuFsfP3RYMLEiv5Q9fnitcRgRkEmnbsMDmjNTvttGQR5gsytKvQtgrfo5n88SwiEBGICEQEIgKrDgF2IXQCa6U7h8kgJNa73vUuOfcesmuuucZ+8IMfBFJrpduO9R9fBNavX29vfOMbgw8stOo+97nPJQ9KS2iGdRJrJzSyNm0ymSKadqpM1lXEYXbIgSY7ayvya60eDprhXFHJwUmUiEBEICIQEWiIwPJukSnSBPO8E/BwK84mmNyhsURzkFhoNUEGoVWFWSGkFFpMk+xCqIkA31qHylXbP1KxR4bKdmRsXJSQzPGUH+fxI+Xh4OzdlD8j8iqXK6rspPVpx8CJ8uHgRwttqKZ8lwiubmstdQQSqZDXjoGFHmtad6Y1bTzfurq3h76M/v/svQecJVWZxv12jtM9OYfuyYkMgrv81hXZxQQqCEoOguSclJzGAUTSquyqCPqt6LfrrmF19dufeZck/CSDhBnSwAxpUvd0Dt/znLqnu/pyu+em7q5b9zlQfe+tcOqcf9Wt6fP0+z4HUVj9Xa1O+CqtbLRZEzDjIM7FtMEdbBte2S6KcvSpovjGCCqKTBS4mBq4tbPL2rvaEV3V7SKvuP8W9IFeVmwz/nf112F/z4IXlvXhf1e4HxcWF9jm3uHfy9A+iVV6EQFHoJS/VPEvh3wdg++zsIuACIiACIhA3gmMpYDFxjNt8ZhjjrErr7zStm7daqeeeqrdf//9+OtiCo+HvPdWFeaTwOrVq90MkzRzv/TSS50YmU39/B2KAlUtJn+aMiUQsChmMbqdqYa0aeDvWt6aIfxHQverO47H7/76XSwb+DpGBEQg1gT4bAwkjmy7yaPpLYWH9E5mIsz2DOHjqvCPwQQYnFOwqsZ7aD0QaYKZ9vhvBVvDVMLtEKnaELFE0YiRSBSNtsC0fVtHDyKc4FcFYYdRUBR8dnQjHRAzBvYjioqlFN5XlfiH5K0d7batbTusrJDDjopLIW6VIaKqAsvUmip4WyEEGKmK/bX4h2jSXCubtNgmVNfY9pZ3rLd1E1II25GWWG2NtQ3W3FBvU6sxsyDqZbu60B4KWEwfpADHdjqS6APLZrT1rR1dtg39YNu5P6/VDkSesf3O9worGF3FSCzMN4jUSERkIZKLgpYvrJeil08xpEjmRC/+o6oiAkkEXKQe7hH9wpQERh9FQAREQAQKh8D06dONy0svveSiosai5d7Y/dZbb7W33nrLLr/8cnvggQcUiTUW8PN8jr//+7+3a665xl5++WW7/vrr3X2Uyynwu74Tqmj4TosGaGNu4fvGxsGILEZlMXqLv4fxl34W/8r3HCNwm4oIiIAIiEA2BBIP1oFDx+aByue2E2HgA8UZ+HhWRlNRoOF7Rh/RCJ6zDG6liAV1K4hYYjodUtKRd96C9V0Qdbg/TdHbIQp1d7ZYX+dWJ2LRO6sa/4hw37d2tNm29u2IwkIuO4+AJ1Zp9SRrgCjFWRBpzO5aUAO/rIbZNqF+irV37rAumLf3tr7pjiurnGATJ0yxefiLy3x4aVG0oijFGQcpoFGE6sFnRlmxR0z7Y7u3IpWQqZI70B/6XFG84nv6fNFQvhv+XvT0Ig8fmcY+OWEu8Q8cI9IomLlUUWxj4T48b6rCuobZlGp3rYsZAfyKpSICIiACIiAChU2AEVHNzc0uAuq5554bs87wvJ/97GedCfhrr73m0tGeeuqpMTu/TpQ/Aocffri7fv/93//tPLG20Mwqx8LfzSlSMSoLFm3OroFi1ty5ZtOmBespYNEYnvtR+AoXDr04mGFJ/J4ffNBPERABESgiAu45yGdhaj0jDRKJB2kae+a6C5tIkYeFIgujmRjFFC7BPvBLhMjD6CWKWYHZebAXj6ZwRCGIkVmBgATRC+l6fR1bkPrXAt8pzC6IE1DMYR2bYdje1tkKMQozA3JWQMxYWFk9AUIUzNVh+G7tW1ErxCf4ZFXXTcOxiJRqfct6YeDe1w5DbMBlqmFN/UybVDfRptZWu1RHilBOtEKj2S40yxWm+3E9Ux8pPjkzdmyhCTtN7ilmbYHvFdMMORsi+0ERjKmBgUdYkJoY1Db0J8U+d64Ex/BWsquGEkZRj31XKT4CSb8qFR8A9VgEREAERCAeBBbBeIhRUX/5y1/GtEM0Az/44IPdLHavv/66HX300bZhw4Yhf0kc0wbpZFkRoBh53nnnGYWsb33rW/bzn//c+YtkVVnSQfwd20dlMQKLkVhNTWYLFwYphjSCp4BFIYtphsyaSP69nL/Hc13y+qRT6aMIiIAIxJIABY3c5QrWMPppaTQzZ3tZ3Bnxoydk8OS3UfRh9NJm+EZRzKLI4ws2ubS6YMZDCGGIuGrt6sJMgkgX7ISIhdkDe/qQHojC496Gd9a7bUgz7Ia4xZkFy+B9VQmxCkrV9hb4XbW8ZSWt27A3jOarG62+utZ2dLTZ5m1vWgcErL4e+GHhmNKaqVZWPwfm7PVWDSHMeVSh7X1oUCnEJ7ZwsJXB+1Cz2RxX2CYKV++2d7loLPaDkVsU3WoRmcY0S4pZqQrr64AoRkP45ML+0IOL6ZnDRWglH6PP8SIgASte11O9EQEREIGiJbB48WInYD322GNjzoAi1mGHHWbXXXcdZqBrsYMOOsgeffRRpROO+ZXI7YQNyPn78pe/bPvtt59LJXz66adzq3CYoylQUayiBymjsWj6zsgsRmnRI4uCFl+5Xzgqi7/UJw8UUv/6P8yJtVoEREAECpBAkFpGASXTxvsnZEJyKcGD1bj49ZnWN/L+1GMYFcTIpFakB3K2QR955FMEKW65aKtQVWwdj0m0cmALj+lEiiDXl5T0u0itHZhdsAsRWB1Y2iF6+X8TuM87EIta2hGF1QmvrJ4ORGJV2gT8Y7MdHlm9m1+G6/obiMSCiFVSZnVVMIKHCPQ2jnlp8zZr43GI3oKJFkzgJ1pZ7UyrhohFz6r2RBsyxc++0xdrK7yyGGXWjVRCFtJnVNpIV4GRXL5v7qDED6Y2+rKzOvx+eo0XgcE7IF79Um9EQAREQASKjMB4ClhEzQieY4891hmCb9682c4991z7v//7P4lYBXYfLl++3C644AKXjvqFL3zBnnnmmVHpASOpuFCoYlQWZzCkiNXcbIbJEd06zmLIyCwuqaKyXMNYz6i0UJWKgAiIQIQIQKFhynV2hUNePCn7+bRMvM+uorSPCsSnQLCh0MJoIZqVU8ih2JROoQDUBpGqE8fQJ4oLxaB329ptM6KtOJMh9/GFflfvtcHbqgMRV53boYr14Lzl1tbVaTu2vWH9ELH6WzYhZKsbvu7VVldZ7Yzgd0Boewc+Wj0QxRDChX9wKq0EIlZ17SSbhL+oMNqJ6X++OIqDH/3qlK8U8ZhO6MQ8tJ9Cnf9Hi2Kfr8a/pqwkaSWb4tMQQ81K2ksf40pAAlZcr6z6JQIiIAJFRoAzEdLI/dVXXzUKSONRmMJIEevOO++0N9980xm7P/jgg3lLRRuPPhXbOUvx192PfOQjToB84okn7JJLLjH6m41m4S/gHJgx8oozGM6bF4hZ3iuLQhaFLi9m8Q/Q/pd2jgUGhy+D60ezvapbBERABMaSgNdowiJKZudPDHkReQR1JrNDc9ibz2YKNnxeM/VtUK5Jv1KKXhSYaKjO+vh5G0Ss9+AvRWHIC1gUgDjTH2cLbO/YZr3t70CLanU+XFy3HSmEPVvXWd/2Dc4IHgFdVl1Za9Pr62xSVTnahlkAIWD1IXqLwlcpjODLIGJNqJlgM+uqrQGzKrIjjBPjuVz0k/+HKP3uOBGOEWisw10VvkGphEjGOndWGNFFktyfEWTZMN3ZObQ92gQS3+ZoN1KtEwEREAEREIGdEWAa36pVq6yjoyPnWeR2dq6RtjMS69BDDzXOTkjh4/zzz7e//vWvIx2ibREjUAMl6bTTTrPTTz/dfve73zlBsq0tmLp8NJvK390pTjG9kDMY+qgsRmbNnm2GyaGciEWfLApaqaKyQn/cdk3d+XBgNHukukVABEQgPwQo3jjVI6PqeJQ7MnEUn4hjM/yl0MI0whb4QDEai4UCU6aF1lkdEKoSVTgBiHVSvOKshr5wtsMJ+CsH0xg7e7oxY+HWYMbC/iDia2t7m3VgxsHu7S9bb8c7SM+j2XuF1cEPa8HkKTaputLNRuj8teCz1Y/jSioxG2HNZJtcW2+z6qqsCv9AdaNfTkrDeerhZcXzMRoqXarsh/f1Cl9PRmOF0wN9v5JfuyDGURQkU9Lk+VWKi0C691pxUVFvRUAEREAECpLAbrvt5lK/XnjhhXFtfxmUBRq7r1mzxjZu3OiMwdevX49fCAd/2RzXBurkOyVAEeuOO+6wAw880H74wx/aL37xizGNpKOYRYGKUVlMKWQ0VnOzWVNTIG5RwKLQRTGLkVnc35chdxnWh7f5ffQqAiIgAoVCwP/TmfmzjA9Gv/Adh77MQxydITDFGf47T4GFAhNFlvDzmBFG2cyc1+UBoOWufhcHhQ+hwroZJTW5usKdfwsEq/bOFmvp7HTHbEHU1utbt9rW1vdsS8s71olt/fCkKkUqYXX1JGuon+oEpN6ubZjp8D14aOGPNohYK63ATIYwdp9YXWfTaiqc+Tq9txhFxbTIiVUVzpR9OEP2QfpBY8nEi1DQwgaKS5FMeGQNrEzxhowZhUaBkMcE1zfFjloVWwKj8+2NLS51TAREQAREIMoEdt99d+vu7rbxFrDIqAKqwhFHHGFXXXWVbd++3UVlPfzww/LEivINlKJtX/3qVzFr4EwnRj7wwAMp9hj9VRy0UaSqrw+isihkLVwYzGbIdbUQuSh0UcxiKiKjuHzhuCc09nFDOb9NryIgAiJQEASoU3DJqvgDvZSCh6UTsYavjGJQOulsyTVQuHKRV91Buh+386zhkkUQlhOLWDdLOR7wYRHM109hiNFIjMKqwV8/KKC90dqBWQC7rdNFLcHkHbMdrt/WZhtbO+GjBc+rnnZXZ0lVo5VWYxYRiFWd+B2qsw3ph+3vwisLUVqcmbCi3sqqpyBaq96JVdSdQtqTY+XS+RKNcf9moTHVaMcERGnVV5YP8GQ/KDzRCyxc6N8VCFLhtanf008r3X1T16C1hUwg9CtOIXdDbRcBERABERABs3AEVh9+GRrvQk+s448/3s1O+O6779qFF14oY/fxvigZnn8RpgikD9a2bdvssssus9dffz3DGvK3OwcFjMqiJxa9subMMWtqgpA1C4OWCYMiFqOzhksx5GgqMcZwDQu/z19LVZMIiIAI5I8A45i8DJV5rXzK+aP5nhFYeJAOU5gOVwvRpQ4LI4wyKTwLvaroORUurMXXVBn+C0N4pxHe81g2hT5aNFT3dXCGQK6joOW9sErxj0Ql/pLBtrcghZFG7y5QCXUweovRS1y3FWJWK2Y07OvFbIUlqKNyArzbJ2CmwFIYxO+wbohYvUhD7IcfliFKi9tLKxqspqLKzUzYSV8uLL5U4nxMMeR5q9FG8qutwGe8J9Ma5wEW7E2xirMMZlvYVx+F5YW9bOvScYVHQAJW4V0ztVgEREAERGAYAtOmTUOq1VzbtGnTuBm5JzeNItYxxxxjt99++4Cx+5///Gf3i2TyvvocPQKMpPvkJz9pZ555pj311FNuhsL29uCv1uPZWo6BvFcWAsQCIQuvk/FHdEZleVN4H5WF8Y0r/CP+kGED1vtt49kfnVsEREAEhiXAhxaWxGNs2N1G3sBKaPqNvwAYQlqHKRSHKLhQiKktL8v4nEOerzgHn69caDpOwSmb5y3N60shMtVXlFtDVRlErIAE66KgxY98tlMUojMUJyNhBFlyCmO4yxSBWjq7rKtrB9IFO9BIsCmvtYryKtsCcevt7TCC52yG3TtQOYSq8hqIWPWIBq6GGFUWRFH1YoZECGIsFNGqsZ7CFV/DUWLczhRDv85rV8msuF+4sA/+mPB6vqcI1oYoLi/cJW/X5/gSkIAV32urnomACIhAURLYc889bSt8Ht54443I9J8iyKc//Wm75ZZb7JVXXrEzzjjD1q1bF5n2qSEjE6hDyNM555zj0kB/8pOf2M033zzyAWO4lQMYphcyAotC1vz5wQyGjM6ieMWILUZjMcWQrxS+wsUJWhhFBMOhwdfwPnovAiIgAuNJYGdCR/pt4wMQD0LngeWfekOP5jPVF4pYw6UShvfz+6d6ZXVcUBVELM6ZFzpBqgOGWVeBE1bj+AkQsShkUdjxQhDfkxGjovqTor9SVcfIKEZEtUOA2tzW6mYe7O/tRkMZvVXh2rixrcM2t7yHbVsgcPGPNpDGyqqtDLMTVpVXDohm4XQ+9pG8hushNmVU6iCE1cPXK5WIxb77/mdUqXYueAJJv8YUfH/UAREQAREQgSInsMcee0ROwOIl4SyJhxxyiN1www3GdMJPfepTbnbCKKQ6Fvktk1b3GUl344032vLly+2uu+6y++67z00YkNbBY7QTxSqKVpytkLMWLlwYCFpMN6R4xW1MP/TCVngwMTBAxAAjvH6Mmq7TiIAIiMDwBPwDKkMBZGiFiUoQaTSiVO/PlTi4CkJPcqFQQyFpOHEreX//mYJLts9XHudSA+FJxTYlgrBc5JWvswMRSd0QpVzElD8pXoktjI6RZROrKpHyV2bbYe7e3r7ZiViGdMFSrGNUFyOr3oaItW1HYhujtChilVZaDf5BqUX/WSdT+LxhPT66dYxg84tvG7dlUlybgZ70y8ONz6QS7RtLAu//Rsaym+qUCIiACIhAsRDwAtabb74ZuS4zEuvII4+0K664wnkqMbXwoYcekrF75K5U6gYxRfX73/++NTQ0GM3d77///jGdmTB1q96/lgMGH5U1fXogYjU3B75Z3uzdv1LYovDlBxmpIrI0dng/Y60RAREYOwLBcylJWcr49DweQ194PI1UOENeuDDtL7nQSJ3iFSO00i1dvYFvUza94FmCZiC6CeeuwR/EeH5niA44vhWdUMhaYcLe3Uvfq0HfMKYvUrRiJBP3ZZpkA4zVJyC6aQdEr42tMHRnpFVXC7b3Ol8t9qulq9fea2u3jo4t8MPaZv3wy6KIVQ4RbSJmO/QzDzKNj+IZz8lzTXB1s/5y54fFurDJbed7ilvplvT3TLdG7VfoBEb+Bhd679R+ERABERCBoiOwatUqNxPhhg0bIhchw4vBSJ4TTjjBzWr31ltv2aWXXuqEkF7+1VQl8gSYorpmzRoX5Xfrrbfa22+/Hdk2c8BDLyxGXE2aZPCHG0wvpFcWo7FwO7roLApZ3NenGPpBlntFPRpERPYyq2EiEHsCfA5x6e727zLpsnuKpX1AD3bvDeWmpUpfg+bvBKVMIrAo8rAlfaG6023UwPOXKhCexhTO+HznJ87G51bjPWdAZDQUF6b2cQ8ey/0ZtcVXHsOFPlk1iKJiauK77V22dcc26+tusd6eTrcH+8Y2b+7ocabuPRCw+iBw9WNmQvpx1eIfDKb4+dKDfdmWgbYmNlQk/lHhNnadfl5e+HK7sDEpCld7EW6opJhiZ60qKgISsIrqcquzIiACIhB/AhORPzUb+VMUsFpaWiLZYYpYRx11lDN256x2X/7yl+2xxx7DL6HD/CYXyV4Ub6MOPvhgO/vss+3hhx+2m266KfIgONDhGIJiFYLHDIFkNm9eIGgxQosph9zGhZFZfPVCFjvH2zJ8Z7I+FREQAREYKwK9UJXoI47J8VByfQBx+Dv8EJiiCWcS9P8c83k33DNvpG2eDUUbLr5Q6Mm0lDJiCYcFhuXB8V488yKPr7MdkVAUsChmJZ/KH9ONbWwTxSWmC7JNWzo6rLOr1bq6O1z/fX3sI+tr6dhhPV0QsXpg+t7f46K0GqsqXGQX9+W5GGXGCLbk83J7OLJt8AoGfeH2VIUiHH29woJiqv20rrgIDP/tLS4O6q0IiIAIiEBMCDBNb+nSpc7Efdu2bZHtFdtJHyymor388st20kknOdEtsg1WwwYIVCOk6dhjj7X999/fvvGNb9gdd9wxsC3qbzgYYaQVhSp6Y1HIamoK0gwZpcV0Qi7czoX7JhcOTgYHIEPfJ++rzyIgAiKQG4Egcok/nTAysuYxwqkYx8OhL8JNR5iFkBVwhrseKmaJkizIBEKS3zryK/dl9BELX/2sfSMfNbiVz1qKTCzOM7OvG4IO2peoky9e4OFZ2iFOUYBj4fPevQYviJwKntfch2mGBMqUPxYKRVvhh8Wlg6IRt0HgmoBZBWn43t3Xa1vb26wbIhdN3UutD+JVKby0yrFfcCIKYTw1RTR/mTyrRHMTLQleuM7vN2RD4gP7yLaOtE/4ODaDsyB6f7DwNr2PDwEJWPG5luqJCIiACIgACHgBixFYnI0wyoXG7hSxrrvuOtuyZYt99KMftaeeeiqSvkpR5jgebaMf1jXXXGNMWf3Sl75kP/3pTwvOy8yLWbW1QVQWZzBcuDAwgGd6IX20uI0LhSxGZfkB0ZABRWKQNB7XQecUAREoAgLugROkzWXeW/+AYrobK+Lwd+QhMIUVijgUULxQFD4v10GrSVtQ64Hg5NL7IOxkWigw0TOKLaewxiVIDwxqcsJeqFLf3goc11hZ4aKs2J9w6cKKlu4etAlCU2KbF7e4nxedqG3VIc2Q9dBDi9FeG3d0wty909rQF7arFoLR9Noql05IqtyHIl0borbYVnKknOYjzPnK7TwHt+dSmI5Yw0YmCr3JGFVG7y32RyWeBAaveDz7p16JgAiIgAgUGQGKQozAool7lCOw/GWphPkQo3lo7E4R6+STT7YHHnig4MQQ359iel29erV97Wtfs5kzZ9r1119vjz/+eEF2n6IUo64oVNEbizMYNjWZzZmDmbYmBJFYfvZCphd6Mct3FuOQIUXjhiE49EEERCBHAkmPmCxr45MJSwmFrJ0/pboh8tDgfHsXIpWSCmUXCjgUYNJpGwWjVgg6PlIqqbphP9JAntFXiZbjfBCeYKze3gOT9sRRWDUgOPmKeBwN2uux0Ky9EiFJLtUQD2u2l4Latk54W3EGwoSoRq+vKuzHiKvqxDlZN32zaquqrbay2kVrMSLqvY5u+GZ1Oz48rgHnmV5baVNqAmN3HkfhqhVtpVDFfvO8vjDVkNvYn9xKf2JGxsCcnv1m9BVTJav5j5pKLAlIwIrlZVWnREAERKB4CVDAampqss7OTidiuZD7iOPwxu5MJ9y0aZNddtllErEifs188w444ACXBrpx40a77bbbjJ5mhVwYZUVDdwpXM2YEqYWMzKJXFv2zaAhPEYv7cOEYAWOFIYVDkvCq8PshO+qDCIiACKRDgCp5rlrHgAxEYSO9IfBIghOjiHIXYEbuPM3OnYCE6CdGVDG6irP9UQCiCJWyJDgxMmkKZgpsRIofn8FtEJQ6cRwLdSMKc1sgRFGkYyGRSjzQaxFtRW8rCmcUn9xZSlBHeY1VV1Q603d6Ym2B+MVXlnpGaeE8jYlZBymWUeBjpBi9r7xI5nbGDydq8ZrmWFhFoktuhkWyIqcaiHB8rxJPAul9e+PZd/VKBERABEQgpgQmI4xkBkbfL7zwQiRnIkyFnSLW5z73OePMdq+++qpdcsklLp0w1b5aFy0CNHVn5NxPfvITu+uuu6y9vT1aDcyiNRSlGGnFqCx6YzEqi0LWrFmBdxYjsihe0SeLohb3DZchQxPUlSxyhffVexEQAREYicCQ58lIO6bclnw0o3WSHlgpjxvflZRfGElEIakSXlN8hjKKi4ITl5GCl7hvBR7QVeWV8KiqcJFTFLwoHPlCMYwClBfh+nEQU/JKSiutAb+P0NuKezszeLyWlKKe8iqXMsj66ZlFEYziFCPRqsorcFwlIrggdmE76+c2phL6tEZ/7ny+sn4KZjwnUxqruIAZBaxUM0jm89yqa3wISMAaH+46qwiIgAiIwCgS4EyEc5D/9PzzzxeMgEUc3hPrxhtvdMbuRx99tIvIGkVUqjoPBCg+nn766fbxj3/c1q5d6/yw8lBtJKrgoIBRWfTDYgQWBawFC8yamoIUQ0ZjcTtFLIpajMri53DhmCk0bnLRAOHtei8CIiACIxFwzxDugOdR5mXoQYF4BWXeGIkV3ULxhSIMRSz2gGKSi4iCMNTtw45SNd93twSiV1k5/tAQRFOlEnNYpy+MmKLQVIIUy4qKaptWU+WirRjx1QsDd1dKKmHoDmEMD3keywirrR0QsRCNRgWpHIJZAwQzGqmj6W4fVDmqhUz8KdAEJ1oRAY3lZeY+qujHrfKkXzHGrR06sQiIgAiIgAjkjYAXsAopAst3niLWYYcd5ozdW1pa7CMf+Yj95S9/kSeWBxTR11lQdmjm/jd/8zd23nnn2cMPPxzRlubWLIpTFK2gETuPrIULA0GLUVqMwmJEFqO2uE+q9EJ3dowuONBQEQEREIG0CXiVIu0Dwjvy4PBDhxFY4c/hfaPxPhBjKMgE7fF/BKCfVndohsRhW4suU4wqLS13EUkUwkYqTJfsgKl7H+rmcVVIF6QQxVTJzu5O68fshyXW6+qqRkSYr8/5hMFPqxtCF0sZzsdUQprPj3zG1K2haEcvq1wLo8l8G3OtS8dHi4AErGhdD7VGBERABEQgDwS8gPXSSy9ZR0dHHmoc2ypo7H788cfblVdeae+9956dddZZ8sQa20uQ1dn22msvJ2JxJszzzz/fnnvuuazqKYSDOL7wUVn0x/IzGNIEnpFYFLEYleU9s8JiloumCA1Gcx+qFAIxtVEERCBrAonnRfbPCh7pHzqMvIq+gBWwCmYf5PtuCElMlXMpfb4rwU7v++mesXCv6ndC18g7Uyxi6h0FH9bd1wfTeuBi5FYNhCqXCtjdbX097dbX2+lSDrk/RSz+O8BZBbchlbClC/swUgvb6ENVn4UPFevjOVk3qsmosJcMTPPOYGSlEk8CErDieV3VKxEQAREoagJM6Zo7d651dXXZunXrCpIF+0AR64477nBm9Jdffrk99NBD+AXR/3pWkN2KfaMPOugg51/2yCOPuJkJX3vttVj3mQMORl5RqGIUFr52LsWQnllTpgRCFoUuphYyKov78phw4TAjeV14u96LgAgUN4H8SRGsiQIWQkUjnkLorzg9qigiMfIKGXsDpuV+e6pX9rIXvyv0Q4yiiDUcP4pEFIwYaVWNfDsXbdXT7Y4pRQpiNdIFuU9rd4+1dnZYW1eHbYd5ew8qpM8UjeJZN1MJaere3t1l/b097phge3B8qjbSoL4W9YfN1hmz5VIm3T8ISf9QpKoktI56FTkxkoxphd7bK7SL3saEgASsmFxIdUMEREAERGAoAXpgMRLrscceG7qhgD4xEuuzn/2s3XLLLfbKK6/YBRdcEOuongK6NMM2ldfslFNOcVFz3tSdqaBxLxxv+PRCzmDoo7LmzTObOdOssXFQ6PJeWWHRKvzHcr/ev8adnfonAiKwEwIQJ8LPiJ3svZPNGP7Cy8mFGe1kz/HfHERcUUBiRJFfRmoXHbMo4FCMgoKVWFIfEfhslToxiu8ZgbWDkVQQoSh8VeKhTkGJhu070Ia3d3Q643Y/O2MVBShsZ7u2I43w7bZO29rZ5WY8rMCxE2AET1P3ZP8tRnvV4VhGWlHowkdXvPE6P2YmX3FmxWBmRhrHdzhjd0StQcxSiR8BCVjxu6bqkQiIgAiIAAhQwGrEqJn+UYVcypB79elPf9rWrFljr7/+upupkLMUMmxfJZoEamAEdc011xijse6++27705/+VFTXi4MRpgwyKotRWPgqWlNTEJlFI3gKXYzKopDFfcLphbyivLVZh3/NdCATzbtCrRIBEciWQH7/tXNxPtk2ZcyOC0cRUYfh5w6KUjsp0INcoYDVAyGKKYF8T4EnVaFoNAGeVXzOckY/znTYi1RB60cqIUo5HtgUnNyMg6iH6YIUs1gfj6lF9BZfuxDx9V57t70FEauDoWJYyeiuxupym0hPLD74E6Uc23zkFQUyXhEWRnux8PebQWv2YF06P330VSeAsQ4yU4kfgcE7KX59U49EQAREQASKmABTCBmBVegCFi8hjd2POOIIu+qqq2zbtm32qU99yh599FEZu0f4/qZ4eu2111pTU5Nddtll9uyzz0a4taPXNIxNBsQqRmVxBsOFC4PZDL1PFoUsmr8zzdCLWX7c4V9Hr4WqWQREINoEEqoGJY2s9YjwgazP1xndnrOvjIhiWhyL86faCQD2iml9LIw+YmofhSUuvh63MfTDk+GzmoJPW08PIph6IH51OeGL67mweBGMdfuZEClEeRGrB8dT4HqvvWtA5KJw1YhIrMaqMidoUbBi+qAvrv7EB25joZfVTrqaOGLoC9Msu3BwYEi/c7Fv6NH6VCgEJGAVypVSO0VABERABDIiMGPGDJs6dao9//zz1tramtGxUdyZnlgnnniiXX311fb22287k/AHHnhAIlYUL1aiTStWrLBzzjnH3n33XTvjjDMK1o8tH4g5LqE4RbGKRu/0yGpqCtILGZVFMYsiFiOyuDBCy//B3g+w8tEO1SECIlB4BLzckY2o8f7esjYOgX2t798jKmsCEaoXQlRvkBK4k4Y5/SchAtH0vR2zCu5gRFVCBEs+nDwpbPE8ni0/t0DAau0KzsvP+N/RYjQWRSY+kxkN5gUtilQ1SAmkLsV62tDetu5B0cz5XSGVkJ5XNHevQB2sl/uybtbHq8H6+Z5CGl+zKZxJkTMjuhTKbCrQMZEnIAEr8pdIDRQBERABEciGAAWf5uZmZ+ROESsOhX067rjj7Pbbb7cNGzYYjd1pFi5j92heXfphMf3ztNNOswcffNDNUEgxq9gLhSlGW9Eri/5YnMGQCyO06uuDbdxOIQu3vBO+hmOWGKsNt1nrRUAEYkBgqJgx9FNm3eOxlErogUUz9+gXH0lFoSed4mU57u4isCA0MTIpVaG9O1PtnMhF0Qi7YXcnQLVAwKIQRPGMghK9qqpg9D6hssy9p3jF+vlagfU0gq+HSEVPLNbDqK+wMOYjtSpRDwUtnpOpiKyfdXB9IIAFbUrV3nTWsasUx1TiS0ACVnyvrXomAiIgAkVPYNmyZS797sknn4wNC4oihx56qH31q1+19evXO7PwQp1pMTYXZYSO1EORueiii+zzn/+8/frXv7bvfOc7bsAwwiFFs4niE2clZPQVsn1dVBZTDOmZRe8sL1756CxGcCUXDpRYJGQFHPRTBGJJgN/zvGkSLtYHFaZ4oBQ4PD4Pw/6YzpQdQpGPlEruHvdnoh23Ey/f8x0FIEZv0bydIhS3c6FANbmq0iZXV0C0KnVRTtyHUVn00ZqE9VNrKqwB76vwl4puiFjeh6oW+9fCE6vaCVWB0Xwws2JwbopjLK5NebvWrkr9iBkBCVgxu6DqjgiIgAiIwCCBpUuXOgHriSeeGFwZg3f0xGJkz/XXX2+bNm2yz3zmM/biiy8qEiui15am7vfee6/tuuuu9s///M/2s5/9TKmfSdeKUVlMG2Q6IbJ/XUQWAiht1qwgIovbmGJIMYvvuX+4YJzkiheygqFQeA+9FwERKFQC1DNy0zT8EyH5tVCJDN9uBh/5qCoKSN1QhGiqPhy/zkSElY+EohhF0/YeeEl503imI9LfihFSjMCaCE+reqQDkiYN0ylS8T3FqYkwbZ8MEYsRW2wLI60oSlEIYwohUw2ZcshIrXDh7IkqIpAOgaR//tM5RPuIgAiIgAiIQGEQ8BFYcROwSL8Co/ijjjrKrrjiCtuyZYsdeeSR9uc//1nCSERvzVL8wn7LLbcgda7S1q5dG4vJBUYLNSOtGH3FqCxGYy1caIY5GWzSpGC9j8himiH3pZjlx0IcKLEMN1gLtuqnCIhAQRHgFzovX2qKJFwYfRU/wYSIKDRRLOLCNMCWThiy+wcjticXRkFxhkGan1O8YiofybT7vwrgPY/ndr4y8qoOkVj1ELL43GX8lDObxzaauTdUVkDgqnTG7YGIxXZgJkTUh1O52Qe5vrbCzz2IZzjqoWjmy0iXugIP/GpEcvlZDP0xei0eAhKwiudaq6ciIAIiUHQEZsMpmkbur7zyipu9L24AvLH7DTfc4CKxLrnkEntAxu6Rvcx77rmnm5HwzTfftOuuu842b94c2baOd8M4lqEwRZGKUVn0x6JPFlMMmV5I/ywKWdxOsYtLOMUwebwWGhuNd9d0fhEQgQwJjCRopFeVr8GLJPEUsMiCKX0UpXzaoO/5SJz885KiEP2pKDT1hgQsfmaEVldPkO5XVlo+EEnFY+mFxSgtHlNSAq+s8kprgIhFXywKUzy2DZFYNHdntBbPQyGKgpfz1ioNxDC2ke3lkqpU4jgKXy6SCyJYqR7sqTDFfp0ErNhfYnVQBERABrlfBQAAQABJREFUBIqXAFPtdtttN+vo6LCXXnopliAoYh1zzDF222232WuvvWZf/vKXXXRP2Acjlh0vwE7xWh122GF2yimn2P333++i5wqwG2PeZI5R6JXFFELOYMioLIpZjMqCPu3WM62QYhaN37kvxa9w8QM0v84PY/1nvYqACESbgBM1sv7ihg/kez4gKGLFr7gILDqxZ1lIh8/cwfiooCJGdHGGP4pZgUhV6szbuZXbmCrYynRBtwOixMsqXKQWra3a0J7tjAbDwrRG1k/xqgaRVBSjGFHF87Lw8FS/v3B7FfZllBhLKcQs/K9ShASS/nkvQgLqsgiIgAiIQKwJMOqls7PT4mx0znRCemLddNNNztj9i1/8or3++uuxvq6F2rkJCB06//zz7e/+7u/s29/+thMeC7Uv49FuClOMtmIE1rRpZk1NgZjF2QwZqcXtFLrq6gJBKzHWcR4sQ9qrgc8QHPogAlEm4AXo3L62lMBYA1+heBumPHVCFl5iVtjDdIp/Pob3ZVQTBYJU25hG2IEoKithuiF9rAIpgdFe9MtiqmBbTw8VKIe6HA9kpiTyYye2t2LWQYpYFKkYedVYhXRDeGZRwKIwxXb3QODia3Jx0WG53QDJVepzgRII7roCbbyaLQIiIAIiIAI7I0ABixFYcRawyIAiFs3cmZr2zjvv2Mc//nF79tlnZey+sxtkHLZTxLr55ptdeitnk/zpT39qPfylXyVtAhxcea8sphQyKqupyay5GcNSjEsZhUWhi2mGfGWEVnhAFsqOcefUuCht9NpRBMaeABUNr2Jlffbwt5zRVxSxirvQTJ0Cky8kRCN2Ck+pCr2u3KVIbAwTdQIVxKltnd1INexGJBYirbAfhadyvKHIxTRCRmrtgJDFQiN3toGphnVIDWQJkhTd24EffHaznRS5fATWwEa9KToCqe/OosOgDouACIiACMSVwO677+7EgfXr18dezKFB+LHHHmuXX365vffee3bSSSfZQw89JGP3CN7cnCHzRz/6EVLequ3GG280TjSQKm0igk2PXJM4uKFAReGKXllNTcHC2QwZicWILC5eyKLwxWPCJdVf/MPb9V4ERGD8CFDUyM93NFFLSQXEFTwUYhqBlcmVgtafsqTylxq4Ch5j0oO0HQLXVkRhvdfRBbGqE75YwQyEXiRjYiP9sNq76ZnV76KwGioDPy16YiXPTOgbRtGK25hyyFkQ+fimnpmzpulPoNeCIiABq6AulxorAiIgAiKQKYGZyC3iQuPsrVu3Znp4we1PnyUKV0wnZJ/pifXggw9KxIrglfzQhz7kIuZ4ne68806Zuud4jTiWojhF0YpeWbNmBUIW0wsbGwOBiyIWFwpa4ais5IFQkr6VY8t0uAiIQE4EBgSTnGoJHUzZBuGZTgoJrS6yt8nCIDEzyorRUqmegUz96+WPAUExcWFC3BhhtbWj27Z09DhPLHpehaOmeASFLvpp0a+Lz20KU/SzCgWDhWqEzIidKmCmxRkQ+Z7G8Gxj6mTDIYfqQwwJSMCK4UVVl0RABERABIYS2HXXXV1E0qZNm4ZuiOknilhHHnmk3XLLLfbqq6/apZdeak899VRMe1vY3aJ32XHHHWe//OUvnYhV2L2JTuuZAUOhil5ZFLBo+s6F732KIQUsmr7T/D08gyF7ER6WcYClIgIiMH4E/Pcx9+/iQE3QrjQMpvk6Zyz0he8oKnGmwFSFa10Ultueeh9WFxi6U8Dqcd5XNFwPXzuKWpy5kNFYnDWxDwexNj5qsef7Ts01FahgwOodO7ONwzTzfcdrRbwI6Jsbr+up3oiACIiACKQgwJkIN2/ebMUiYBEBPbEOPfRQW7t2rfP/4kyFb7/9dgo6WjWeBOqhppx66qlGr7brr7/e7rvvvvFsTuzOzUET/bDohTVpUjBzYVOT2bx5ZvTOonjl0w8ZleWtX8IDI74PD75iB0kdEoGoE6C6wSVPBU5KqIlL/ArN0eljlU7hs22IWIXPXs8aaR7D/n4YsScbCYZOSBGMMxJ2UJxCnRSgkoUpRmBR6NoOkWsb0g6D83JmQe49WPiJ68rwcOYm3gaUu3w7B/fUu2IhkN7dXSw01E8REAEREIFYEqCARU+oYhKweCHLMXI/7LDD7Nprr3Xpkx/+8Ied11IvfnFUiQ6BeVBTKF6tWrXKTj75ZPvDH/4gP6xRuDwc/FDMYlQW/bEYkbVwYfCeQhYXCl0UsvieYpYfS4UFLb9u6DBrFBqsKkVABByBQLTIFQZrSXxr++P57WWvKmiajoUpeZmWIA4KEVhQh3qGUYh6IVwF2zljIJmmLtxGY/fwteOzk+mEbBo9sChgceZC7tcGX6wu1M12j9R0Rm9RdGMKoUpxEpCAVZzXXb0WAREQgaIisGLFCjcTIb2Gik28obH7CSecYFdccYW9++67dsYZZzhjd816F62vwL777uui5Rph1sSZJP/6179Gq4Exao0bRCH4gumDjMryMxjylZ8pYHHhdkZnUfTyohUx+HGThk8xuinUlWgTyNuXLVwRZZKRpJJoI0nVusArKuETlUPfSCmVQESBqwPCkzNiR/ofUxBHKozE4uQkboISvDIyrB4zDlbD84rP1DbU0YKZC9+DZxbTDUeqjqIVFwpf3G+kfUdqk7YVPgEJWIV/DdUDERABERCBnRCYDEdnGrm/9tprtmPHjp3sHb/N9MQ68cQT7dZbb7UNGzbYZZddZk8++WT8OlrgPfrkJz9pV199tT3++OPuWm3cuLHAexTt5nMA5b2yaPLOGQyZWshl6tTA+J0RWRSxuPj0wuF6Fa+h8HC91HoRGHsCTiYZWSvJoFGoyCnSMMmL2SyE7BafQxSysonA8hBTiVfcxkvQjWipHUgNpPjEyKmRShBrFTwZeSzN18vQsOryMsxAWOb+GMA6GInFpQ0LPbm4T9j4nTU43yxux/4UzoakPo7UCG2LHQFOwaAiAiIgAiIgArEmQAFn0aJFTsBqbW21hoaGWPc3VefI4HOf+xwG4hV20UUXYTBeaj/60Y9S7ap140jg2GOPddFX3/72t62pqckuvPBCRAIhFEhlVAlgXOUirRhtRdwUtDo7YUYMvXvbtmDhZ9q+MAMXgQBuCTeKAzQW1sXtHHT5dW6DfoiACGRHgN+37I4MHeW/kfyCMoYDqnTMBCwfmULxKvCSyowaBSf+F6QShtCF3jKqimJTJwSs4YQuvzvbEVDnz2AGQ6LnM5Kpju1+R25Dvb2IruIxNRC4uJ3RVp146PI9I666sA/PSTFLpXgJ+Pu8eAmo5yIgAiIgArEnEBawWlpaYt/f4TpITywau99www3W3d3tzN2H21frx4dAXV2dXXDBBUa/sjVr1tgf//jH8WlIEZ+VkVb0wOJshYzKWrAg8MqaOzcQthiNxe3DphZmNmYsYtLqugikRwCaRVD8a3qHJe0ViChOUqGC4kzc/bqkXQv0YxhPNj1zWEY6ECdg0BWjsDiLYPh8qZD5+vjKhR5XPu2QMwqmOhWFKnpscWsVUg0bKstdRJavn8eP5L3l99NrfAkoAiu+11Y9EwEREAERSBCggLV48WL793//dytmAYs4KGIxEmv58uW2cuVK3SMRJDAf7uJM82QK4dlnn22/+tWvXARhBJsa6yb5QRcjsihYMXCTMxdSA9+6Bf4tCB+ADmxdXUHEFYMCBgbaIMOBmBvA4T0Hajsb7MUapjonAjkQcN8d/OB3KvvCqJ1AMgnkkYrYfSf5/CEi9pJpeCWMFs0AGI/jMlyEC+tqRwgq0/vSSeGj2MU2+ecg33cgcqsfYVisi0uqgsArbAuuUni7O56VqhQ1geHuz6KGos6LgAiIgAjEiwDT5igK0P9KvkJmFPQ+8IEPIMIEISYqkSTwwQ9+0M4//3x755137NRTT7UXX3wxku0slkb5qCw/g2FTs1lTk9msWWYTJ2L2Qpi+MzILti4Dsxf6QRsZcaAW/sx1KiIgAukT4HcoX5ljFGmCCKx4DYUHJTr0Dg+cTJ85fn//6jAl/QjPLpi06X0fXVqgV9USW5mCSP8sGsEPV3hcqiir3v4+l0I43HFaXxwE4vWtLY5rpl6KgAiIgAhkSIDGodOmTbMZM2bYs88+i1+C9Re8DBFq9zEmwHv2M5/5jJ1zzjkujZDphJs2bRrjVuh0yQQ4sGPqIM3dGY01e3aQXsgZDJluyCgtCllcuF/Y+J3juHAZaZAY3k/vRaDoCSS+O8nfocy4BLLV4DH4khqU50RU1uD6wn0XzPgXtL8cEVj0kgq8sDLrE8WvbI5LPgv9qtrhl0WxKnzteDmTHodDDuVxNGsPH8Md3HEjHTikFn2IKwGlEMb1yqpfIiACIiACQwhMwWiTMxE+99xz+KVIvwENgaMPkSRAP6xLL73UTT7wH//xH7Z69WqXUsgIOpXxJUDxiQsvBdMLcalcKmFbm9n27YMphj6tkMbvLP41+KSfIiAC6RBw/2Tjn+38/tONcEnDlzdGhb/Z0OC8siyIUanCK3Qsa+kaPtppaPcDkY9/QGEN6fypj2IXxbLhZiRkxFUPcwIzLJyNsK+7BwbupZixMBDU6JulIgKKwNI9IAIiIAIiUBQEJk+eLAGrKK50vDpZi1Cf22+/3fbZZx/75je/aQ8//LAE2IhdYgpZTB2sQTAHHjNGs/eFi8yam82mTg1ELi90MTKL+7MkD8b9+mCrfoqACHgCmcsf/siRXisgh3CG13gNh5NT78pLSp3ANBIJvy3MOfzeb0/1WglxiYJZPiK2kutnXxi91QoBju/p68UZCVWKm0C8vrHFfS3VexEQAREQgREIUMCaBcMaegl1dnaOsKc2iUC0CDQgL+2aa66xariJMyLr+eefj1YD1ZoBAhShKFIxldDPYLgIYhYymF2UFg3hKWb5NMNwiuFAJYk3GqYlE9HnoiUAtTddQWXnjBI1lTB9ELnAMYvq4Sx9nMWPiyt4kJSnqY67FMTgqLR/BumGkAHz8MAarg5GcbUiGotRXowqUyluAroDivv6q/ciIAIiUDQEahAeMRehEe3t7bZu3bqi6bc6WvgEmM6x995721lnneXu3XPPPdfeeOONwu9YjHvA8SI9sHxU1rx5QUQWXxmVxfkTmHoY9sp63xgzDwPCGCNW14qIQP7EqzA0DoOZRhivQv+oHfCd4uJFrHRmDCQF7sfjeRxf0ylp7pZOVc6zq3IYFYt6HPvEVlWXK5kwLaAx3UkCVkwvrLolAiIgAiLwfgKciZAz7z3yyCPv36g1IhBhAhRgjz76aDvppJPs97//vd1www1OjI1wk9U0EKAoxSgrRl75qCw8hoxCFuaUcDMYcpuPyKLo5YWs5IEh10vT0m1VlASoWqSnp6SNx7k8Ib0uboWYnO8UHiDtPX3wn8Lio7F20lkKV9y3Cz5a6eJmxBeP8WLZTk4x4mZqVzSeHylNkH2qRs52hSKxRmQZ543x+9bG+WqpbyIgAiIgAjkRmIdR44QJE+zRRx/NqR4dLALjQaCxsdGuvvpq+8d//Ef74Q9/aPfcc894NEPnzJIABSgKVJzBkFFYPiprwYJgRkNGZHG7j8zyQlb4dBxUSsQKE9H7YiDA+55LXks/h8Hx/jZRiGpNRC2lw46M27B/B0SidAvP0cZZBtM9YKT9UAl9rrz5fKpdGRlGwawGAtZIQleqY7UuHgQkYMXjOqoXIiACIiACaRBYgJEiBSxFYKUBS7tEkgAjse6++27n50Zz91//+teY2a43km1Vo4YnwKgsRl1x9kJ6ZTU1wfh9odmcOYZnVOCTRaGL0Vk0iKeY5SOy/EAxlcA1/Bm1RQQKmIC/6XPuAivKW2U5t2YsKsi0t9kQ8s+mXPvj20pfLf43XKGxO59/9RVl1lBZZnV4bawslz/WcMBitl4CVswuqLojAiIgAiIwPAGauE+aNMmeffZZa+N89yoiUIAEZiD37I477rCuri5bu3atPfPMMwXYCzWZBDgIo0BFsWrKlEDAalpgmDE1ELdo+E4Ry0dnUfjywlW+Bo26EiJQnAQokCDsMWazEBbytWQ6ovPggsjoxaxU/eFW7kt/yHI8FBmxxcgtemOVD+OhlaoerStMAhKwCvO6qdUiIAIiIAJZEOAsbosXL7aOjg574YUXsqhBh4hANAh86EMfsi996UtuVs2bb75ZM2tG47Lk1AqKUxSqGhrNZs8OorKguUN0D0zfvZDFfXxUVqoTDh+3kGpvrROB6BNwYu1IikY2XSihgTsFLH1jssE3Gsd0wa+rrbvPpTCOZCIP7cq4b/I+jNziohJvAhKw4n191TsREAEREIEkAitWrHB/tXv66aeTtuijCBQOgSqE5hx11FF27LHH2q9+9Stbs2ZN4TReLR2RgBeymErISCx6ZHHhexrBe8N3CllezApX6Mf5fhyn4VyYjt4XIgHe0/6+zq39/DYkvhH9fOVQON7fEEYkMcWuEIQdXmN6aqVjOs99Uu1HX6x4X1FAKvIiAavIbwB1XwREQASKjQAFrFKMECVgFduVj19/G6BmnHvuucZ7+itf+Yrde++98etkEfeIAhRN3WF75qKw5s41a24OxKxp0wb9sXxkFqOywsWnGOZn4B+uWe9FYIwJ5O0mprSRWNwMhDCii7ncUY4HCVPsqpBe50XtMb56o3I63hKckTA5CquUKYS8xCqxJSABK7aXVh0TAREQARFIRWDlypUDEVj9foSXaketE4ECIDAbuWY0c6cv1pVXXmm/+c1vZOpeANct0yZ6MYtRWTR9Z0QWTd+ZYkiBi15Z3i+LEVqM4koerPrPGttlSl/7R4JAXkSswdn16KOEhLNIdG00G1GW+MJX4aFAMSvXwkiuyjR9phgNRfFstEovfofrRCph+Nbg2RSDNVrEo1Hv6N1R0eifWiECIiACIiACQwjMw9z1NHJ/5ZVXrKWlZcg2fRCBQiSw995727e+9S0nzN5000320ksvFWI31OY0CTDSimIVvbE4a2Fzsxkea84EnmKWj8hi9Bb3pZjF4vX68GAv2KKfIhBtArx383PfegGHr1wYgUUfrPgWz43aFQ3Pcy1MSawpL0vLLL0UJ6Wxuqee67lTHc8orI5QJBbFqzzodKlOpXURIZD7XRyRjqgZIiACIiACIpAOgTKM6Pbaay83CyFFLBURiAOBT3ziE3b55Ze7GTa/8Y1v2NatW+PQLfVhGAIcoHEsSiGLvliMypo/fzC9cOLEYGZDRmPRJ8tHZQ1T3agOMIc7p9aLQGYEvBST2VHD7R2IKhSvuIymxDJcC8ZmfW8IWz78oRh8xRn/0vHUIlXKVxSyRrO09/RaG0QsRmN1pDB3H81zq+6xJyABa+yZ64wiIAIiIALjTGCfffZxAtbLL788zi3R6UUgfwQOP/xwO+SQQ+zee++173znO/mrWDVFmgDHht4ra/JkM3plMcWQUVneK8sLWRS8uG/yeDI0xo3xUD7Sl1GNG4GAix4M36Qj7Jv+JlbIFMJ4pxGGPaKSv/fps3r/nukIWCTMJdyG99eUnzVuBkMIWR1YfLRpcs3ptDn5GH2OHgEJWNG7JmqRCIiACIjAKBNgylVbW5tJwBpl0Kp+TAlMhnpxwQUXuAjDiy++2P7nf/5nTM+vk40/AUZlMeKqvj6IympqClIMYZVm9M/iAJYiFtMMUwlZ7AEHnKMbL8GzqIhAlgScCsO7NJfi7/Jy3OsUsOJ7x4dn68uVGolj8j9X6D+1s9KNnRkdtfM9d1ZTetuHSzVlBBhnYqytjLdYmR6lwt9LAlbhX0P1QAREQAREIEMCTCHs7Oy0V5BC2Icpm1VEIC4ElixZYldddZUtX77cTjzxRHv88cfj0jX1IwMCHOP7FEPvlUXTdy6NjYMiFoUsClr0ynK6QOIc4QFnfIf2GQDVruNKINBKwndi+H0mTQvf2XhfAtM445JtfZmce/z27YWQxJ73hvMJs2wOI51au3qtJ43fnRh5xbS+8S7VMJKnmXy8r/J4Ux6780vAGjvWOpMIiIAIiEBECHDmtmnIrXnjjTds+/btEWmVmiEC+SHw4Q9/2K644goXZUgxa/369fmpWLUUJAEKWUwhZFQWJqt06YVNTWYzZwZRWV7E4j7e+D1ZzNLAryAvfWwa7SJroMBU4h7NrYTvZL6HgutErPD63M4QtaMpXHVCbOqk2Tle+TmXwuO7UE8etLBcmpH2sfTsovG8SnwISMCKz7VUT0RABERABDIgsHr1anvnnXfcksFh2lUECoIA/bAuvPBC++1vf2u33Xabvf322wXRbjVy9AhQlGKkVV2dGb2ymFbY1GQ2a1YwgyFTDJl+6JdwVFbyoFfDwdG7Tqr5/QT6+krga1RilYgWZEm+H4O1mf7kfHWYAcHwBTB8KWIcn8M0wvbeXmMkVrEVpg+GBfli638c+ysBK45XVX0SAREQARHYKQEvYGlgv1NU2qEACVRChTjnnHPsiCOOsHvuucfuu+8+6+rqKsCeqMmjQcB7ZVG0ooDlZzCkqMVILUZiMSKL6YUUtLh/uPhhsAaGYSp6P1oEfARWfh5hvHu9BNsLcaMZn5ZiHUWs+JYgDTO+/UurZ/7BldbO2imqBJL+OYpqM9UuERABERABEcgvAS9gMQpLRQTiSKChocGuvPJK23fffe2mm26yp556Ko7dVJ9yIEABipFWNbABolcWZzBsbg7SDKdODcQrClncnlLISgwIvRyQQ1N0qAjslACCiPJQwncrbuD+GohYu0HEWo664x2JlQd4BVcFfbgk3hXcZRuxwRKwRsSjjSIgAiIgAnElQJPrlpYWe+utt2TkHteLrH7BtHuhXXbZZTZx4kQ77bTT3MQFwiICqQhQzGLkFaOyvFcWTd+nTw8ELHpl+YWiFqOyfASWD2zwn8MSQapzaZ0IZEMgPwLWwN2KJmAWwhLeyPUJEWt3rEN+rZuZMJsW6pioEZB4FbUrknt7JGDlzlA1iIAIiIAIFCCBKVOmYJA2w15++WVrb28vwB6oySKQHoH999/fzjjjDPvrX//q0gpfffXV9A7UXkVJwEdlUayiV5aPypo3L/DKqq0dTC30xu8+xdAPFr1EUJQA1emIEwjLq3xfjegrilgTIGKtwvtVWEcRC2quSsET4LOIUVgq8SEgASs+11I9EQEREAERyIBADXJimpErQwGrra0tgyO1qwgUFoEqGBkdd9xxdsopp9ivf/1ru/HGG23r1q2F1Qm1dswJUMiiMEUfLGSjYubWwCuLflmM0EJQn4vIYtQW96GY5SOwxryxOqEIZEQgIWi4Fw6HKWJRsKqyktKleL8C75FTG5NIrLBkh04VXemGeX0flkKZObHoLlCGHZa0nCEw7S4CIiACIhAPArUII2hqarJnn31WAlY8Lql6MQKBxsZGu/766239+vX24x//2D7wgQ/YCSecAMGh2Ic2I0DTpgECvE0oVHmxCreTdXaatbYaxFCz7dthJQQxgH5aTPPq6wuWcOAD6/CfedcpJmIAr96MOYHEc8/fiEwjpHiFm7QfNylFLITt4B59Busp9uOGLtDCLtaUl1on1Jte/wUs0L5k2+yu3j7jTIyKxMqWYLSOUwRWtK6HWiMCIiACIjBGBChgKQJrjGDrNJEgUFdXZ/fee68tWLDAbrnlFnvggQfcYC0SjVMjCoYAo7IYbYXbyflj4XaC15rZnDnBDIbcxogsmr5T0PIlPHameCXt1JPR67gSSGhZuCPRDIpYmLHAGbsvw5qVWAe1limGBVxK8WUrHehnAXcky6bzeUPxTqJ5lgAjdlhhfxsjBlPNEQEREAERKBwC1TB4mY9cmG3bttnGjRsLp+FqqQjkQIAzE1599dWInGl1MxQyIktFBLIhQAGKYhZnKKRXFgUsClkUtJheSK8s+mhRyKKoxeit4USrIh5bZ4Nex4wqgUrcp1BgS+rwuhwi1i44Gz2xQmrsqJ4//5WHxeP8164aRWBsCUjAGlveOpsIiIAIiECECNDEfRqMXZ5++ukItUpNEYHRI1AKxeHDH/6wM3N/8skn3QyFW7ZsGb0TquaiIEAhi0JVeAZDClmzZiF+BQEsFLIoYnFhVBb3DxdGRgwnboX30/tiJJCImwmpnKG3+QXiTsXaEYlluFmdsTtFLEZiFaaIxS51Iqe3WNMH83uDqLYoEJAHVhSugtogAiIgAiIwLgQoXk3HHPESsMYFv046TgTq6+vtpJNOsldeecXuvvtuW7Jkid1www3j1BqdNk4EKEIx0ooiFSOzaP7O6KyWlsAva8cOMy7cjz5Z9MviwpIcJcJ9ktcFe+pnMREIfPooKo1B4WkG1FREYRmM3pBSWGLLsB7+WPYs1m3Gkrhp8a4QCv2fVEQgLgSS/v4Rl26pHyIgAiIgAiKwcwIUsLg88wyNWlVEoHgITJo0ydasWWO77rqr3XXXXfa9732veDqvno46AYpPPiqLItbMmUFqYVOT2bx5QXohhS5GZHmvrOSorHAjqSuoFCeBQMQMBJgVq3zsxSiaqg/cbKUQrhA6yNkJS2ohunpPLOTHFrgnVpzvpIHLF+dOFnnfJGAV+Q2g7ouACIhAMRPwEVicibCnp6eYUajvRUiAfljf/e53ETFTbjfffLP9/ve/R1TMKA4Mi5CxuhwQYEQW0wihmzqvrEWLzChmTZ0arOc2Gr9T0KL4lVwGgmKSN+hz7An0Yga5XXattIWLKuyvz/RYGUavYzN7qrvrIGIhlHBAxEI6Ycle+IzcWK5TiRyBcrjVN1aWF7VpfeQuSp4bJAErz0BVnQiIgAiIQOEQ4EyE8xAO0NbWZi+99FLhNFwtFYE8EVi5cqWLwNq+fbsTsWTqniewqiYlAYpTFKkYlYXsbUykERi/IxDWkNnq0g79DIaM0BouKosaVwqdK+U5tbLQCfTDR63KDvroVFu2vNL6EJJVXl7iIveGuz/y12MvYgWRWCWMxLLFELF2xylmY8HNrBIpAm7GRYhY1eEpUCPVQjUmVwISsHIlqONFQAREQAQKmkBTUxNmy6q1Rx99tKD7ocaLQLYEPv7xj9uFF15oNHW/88474UlUWP4u2fZbx40fAQpZFKj8DIZMK8Sj2ObODaKy6uoCoYtilxeyeMxA4fvE5/Dqge16ExsCZRAi5sxptIMOarazz11iHzlwkpWV91lJab8TQ0e/o17EwiwFMHe3knLcevMgYnF2QolYo88/szP0QODsg+dXvwz0MgNXQHtLwCqgi6WmioAIiIAI5J9Ac3OzE7AeeeSR/FeuGkWgAAhUI3/rmGOOsU984hP2gx/8wIlYBdBsNTEGBChKMYqGUVc+KouzFzIyizMYToTdkE8tpFcWxSwew7GpH59SXvBFYpYnEZ9XXu9KpIRVVZXbwoVT7AsnL7XjT5iHf7fNuroZjTX6fQ3uMd5dFK8QKlhSgde5uBdXYR0M3gw5siqRINAL8WpHd6+beTESDVIj8k5AAlbekapCERABERCBQiLQ1BREYEnAKqSrprbmm8BUmBFdfPHFNnv2bBeN9dOf/jTfp1B9IjAiAQoVPiqL3liMylq40AyPaDeTIbdx8UJWqvQxCg2UGVTiS2DixGr71KcW2bnnLXT3RXdPn/NXG82MMd5T/e7O4h1Gc3fkwDoRaz5ErF2xjiKWhtWAEIniorDCynYkWqVG5IuAvmn5Iql6REAEREAECpLAfPypn2bWTJ/q6uoqyD6o0SKQDwJLliyxO+64w2bMmGHnnXeePfzww0rDyAdY1ZExAS9mMcqGXlnNzWaLFwcG8BMmBFFZPjKLwgX398WPW7kutNpv1msMCPDa7rvvPLv6mpW2ckUNfLH6EMk3uimFwb3En4FMWmK4EUsqcY8xnXA3rGc64RiEg8Xg+qkLIpALAQlYudDTsSIgAiIgAgVPoAqjoGXLljnx6vnnny/4/qgDIpALgQMOOMBuv/1293245ZZb7LXXXsulOh0rAjkRoFBBgYpC1uTJgYDFqCxGZ3FGQxq/U8jy0VmMyvJilkszxNkD4SGnZujgiBJYsmSaXX3trvbpT0+3+oYSY/rYaEZiBRj8HVWGews3ZkkVXhmJ5UUsGbtH9HZRs2JCQAJWTC6kuiECIiACIpA9gdWrV8P0s8+ee+657CvRkSIQEwKf+9zn7KyzzrI//OEP9s1vftO2bdsWk56pG4VMgOIU0wcZgTUTGVv0yuJCryyKWbByc6beFLN8VBbFLB+R5fvu5Qf/Wa+FTaCxscaOPAq+WMfPw71QjuvdNyB6jk7PYBDuKuadRE8siliMxKIn1mqsww2p2QkdIf0QgdEgoDjH0aCqOkVABERABAqKAAUszlgjAaugLpsaO4oETjrpJPd9uOuuu2zRokX2xS9+cRTPpqpFIH0CFKV8xBVnMWxsNGtvN2tpGVz4mftwQk38bcIt/gxe0HLilv/gN+q1IAlUV5fbAQfMxyyW9fbdu1+0Z5/tgsF7Ce6BEuvpyXeXSiBWBSIW39HAncbu/SVwyepHaCBWBTPgvYFtuPlUREAE8kpAEVh5xanKREAEREAECpHAqlWr3C+czz77bCE2X20WgbwTmIkQl0suucQo7p577rn22GOP5f0cqlAEciXAqKwKZGxxBkNGYjU3GwTXIMWQaYeM2OLCfcLphTyvn8Uw1zbo+GgQqKgos1WrptlXb9nPPnxANURLxGJhSb7u+WltIGINxvfR2J2eWD6dcBecJl7G7mVQfKvLJR3k5/5RLbkQ0F2YCz0dKwIiIAIiEAsCjDChkfsrr7yCv+Ljz/gqIiACtssuu9gVV1xhc+bMsWOPPdZ9P4RFBKJKgEIF/bCYTohb1pm+M8VwypQgvZAphhSzGJmVStRgRBZL4iX4oJ8FR6AUF/fii/e1E06YaZMmlyGdsN95qPGa57fwTkEIn4vi43uKWHUhEWt3rMONGJN0worSEqvMP0TwURGBzAjk/auc2em1twiIgAiIgAhEg8A+++xjra2tMq2OxuVQKyJC4GMf+5ibkfCFF16wSy+9VN+PiFwXNWN4AhSiKFQxKgsTajqfLEZlcTZDphsyMsunIPLVC1c+IktZhcOzLZQtJbion/r0YjvzzGZbvqLaOjoDX6z86y+42ZA6OBiJxXRC5LW6SKwFuLd2xTbOTlj4xu59UOp6/ZekUG4EtTOWBCRgxfKyqlMiIAIiIAKZEth7771d9JVmXcuUnPaPMwEOBE844QQ744wz7Je//KX90z/9k23ZsiXOXVbfYkKAwhQFKvpkcQZDzlzIiKy5cwMxywtZTC8cLiorJiiKshuVleW2736z7cyzViClcAI8sWCIBhHGG/znDwqjr8IlMHYvKamBmMXZCb2xO27GAi7dSMfs6JGnVwFfwtg0XQJWbC6lOiICIiACIpALAR+B9frrr+dSjY4VgdgRqK+vt+uuu84++tGP2ne/+137xS9+AWPkvDsjx46bOhQNAhSyGHnD9EIfldXUZMaFqYaMyqKI5ZfhBA7Ww5J4CT7oZ6QJlCLtbcGCBjvttF3s5FNmWFl5n/PFquHEgaN6ITnErsU5vIhV+J5YDL5SBFakb/eiaZwErKK51OqoCIiACIjASAT22msv27Fjh0uRCmYQGmlvbROB4iJAj7i1a9fakiVLbM2aNbZ+/friAqDexoIARQsKVPTDmjo1iMZauNCc+Tu9s8Km79wvnHLms6eYMDaq2kcsSEerE3V1lXbooSvg6bfU5s4rxayVfVYJQXP0Cu8Q3ikQsJyIxXTC3fCZxu64sVREQASyJiABK2t0OlAEREAERCBOBGbPng2z3ym2YcMGGbnH6cKqL3kjwMkO6IPV1tZmp556qilaMW9oVdE4EKCYxagrBBg6r6zm5mAGQ85myEgtph76GQx9VJaP2qE04YvELE8i2q+MxvrAvnPswotW2N5711l3dz9SR4NZCsNCZV56Eb5BrDokYu2J6uNj7J4XVqpEBDIkIAErQ2DaXQREQAREIJ4E6PWzcuVK27Rpk7333nvx7KR6JQI5EODsXgceeKCdfPLJ9sgjj9iFF15ob731Vg416lARGH8CPiqrDhPIccZCphVSzOIrP0+YMDh7YSqvLEVkjf81zKQFy5ZNtdNOX2qHHDLNqmv6raQUvlghM/9M6hp2X6dqemmTw+0qiFgQspwnFo3d57t1wx6fwwaetQw3tT97DlXpUBGIJAEJWJG8LGqUCIiACIjAWBOggLVixQonYG3evHmsT6/ziUBBEJiA0fyZZ55pRx11lP3sZz+zr3/969bR0VEQbVcjRWBnBMJeWYzEouk7FwTo2sSJgxFZFLJ8VBbrHBJwg88SD3ZGeny3z57daMcet9jOv2AZrm2J9XT3DUkXzV/r/J3AtEGmE1LEYjrhHvjchAXTZea5VJaVWl1FmZUh4kxFBOJIQAJWHK+q+iQCIiACIpAxAUaXeAFLEVgZ49MBRUSAqba333677bvvvnbPPffYf/3XfxVR79XVYiDAqCyKVJypkN5YnLmwuTkQs6ZNC9ILKWAxxdBHZYW5eEGL9UhGCJOJzvva2kr74Adn2kUXr7JlK6qsp7fPXcv6+tG4YrwjOOymsXsl7omZeKUnFtTRPHtiVZSVWDnEq1LefCoiEEMCErBieFHVJREQAREQgcwJMAJr2bJlLn3w3XffNRm5Z85QRxQPgVqM7CleVcMN+8Ybb7Q///nP+s4Uz+Uvqp4yKoteWeEZDGEH51IMmXbI2Q2TvbI8IBq/U7qQlOCJROuV/+4vXToF3n6r7O//vgGphP3O4J0m//kv/k6giMWUQopY9MRqxpKfSCzeZ0wfZKGIpfvOodCPmBGQgBWzC6ruiIAIiIAIZE+AkSUzZ860F1980To7O7OvSEeKQBEQaGpqsmuvvdY2btzoXjkBgooIxJkAo64oWPmoLM5gOB92RvTKYrQWt1Hs8lFZCS1hIMXQf5awEK27ZObMBqQT7mpHHT3Dpk4rtY7OwNzdX6/8tdaLWBCwrAIC1gwse6H6Jiz5Uc38vdXb1z9w3+Wv/apJBMafgASs8b8GaoEIiIAIiEBECNDfZz5GI+vWrZOAFZFromZEl0AZRvMHH3ywnXHGGfbggw/a2rVrraurK7oNVstEIA8EKGp4r6zGxmAGQ/pkNTUF7+mVxRkMKXZRyPJiFk/NiCz3GrxAvEi80cu4E6iqKrcjjlhuXzy1GRO6QEwq6cP16XfRdflsXCArcQieELFsOs7j0wnzI2L14UbjoiICcSSAx6qKCIiACIiACIgACdRjPnUvYNGYupGjExUREIFhCTQgr+r00093ou8PfvADW4TcKs5OqCICxUCAApQXqZh2xjRDBu+2tppt3x4sPT2BcMXX3l6zvr5BMtIYBllE5d2++862WTPr7T/+42X73z9tgzcWrzGM3nH98lGCxD6KSxSxYOpOEbN/OgSzXRNp2C9jRTeW7AoCr1zxr9nVoqNEILoEFIEV3WujlomACIiACIwxAUVgjTFwnS4WBJh6y1TCqVOnuiisn/zkJ7HolzohApkQ8FFZCORFKnoQkcWoLKYX+rRCphhS6KLolSr6yq9TYFYm5PO7bxlm8WteONHOO383O/xzUyA69kHEClIK83cmp1qhOr5SxMIMhc7YnbMTLsCC8L0sCrWrLrS3Hapbr9TRLAjqkEIgIAGrEK6S2igCIiACIjAmBGhMzQiszZs3O1+fMTmpTiICMSDA7833vvc9pFaV2nXXXWcPPfQQIk1CoSYx6KO6IALpEKAIRTGLQhXFK3pk0StrzhwzilsUr7iNYpZPL/TCldccKERIxEqH9ujtU15easccs4t9+bL5Nm1auZWU9rvrxtTQfJR+d4X9laapOxfvibUIp8jO2L0DAla3wq/ycYlUR0QJSMCK6IVRs0RABERABMaHAE3cGVHy5JNPjk8DdFYRKFAC+++/v33ta1+zt99+22677TbbtGlTgfZEzRaB/BCg2EE/rMmTzWbPNmtqMps3z5CeHpi+cxtnMOSSHJVFacMXiVmexNi/fuhDi+yyy5fafvtBfYQnVlkZpKc8XBBWEYhY7BM/VeInjd1nYdkD7yliYWYAtw0vKiIgAo6ABCzdCCIgAiIgAiIQIkABazJGG0888URord6KgAikQ+Czn/2sM3X/3//9X/vWt76F9BsYyKiIQJETYEQWRSpGYM2YgSSxBcHCVEOKWX72Qu7DdEMKX2GRJCxmEWUe9JMivyKZdX/58mkwd19mn/zkFERi8dggpTDXaKzgOvqry4qRTmiI9iqZiWVPvF/o1vGMKiIgAgEB9xUUDBEQAREQAREQgYCAIrB0J4hA9gRqEFJy/PHH29/8zd/YHXfc4dIKs69NR4pAvAhQlGKkFbLVbdKkwaisuXMNaWpmdXWDMxxSzBpOIKHkIRFrbO+N6dPr7PNHLrWzzppv9ROCWf4oTHLJrfBKehGL7zk7IedZmwoRa3e8NmPBzaAiAiLgCOT8lRNHERABERABEYgTAR+BpRTCOF1V9WUsCczFaPyKK65AytRs+8IXvmB//OMfx/L0OpcIFAQBCh+MtvKm74zKaoZWwRRDemRRvKKI5dMMk4WSAckDmgf+VxkDAnV1lXbgPzTb17+xty1ZUmLdPX1WmhQtl10zeAVxRd1F5XuYupfQ6X+6lZbsjc/NWHCzqIiACLj5O4VBBERABERABEQgQaAOfwJfgJFEW1ubvfDCC+IiAiKQBYHdd9/dzUg4A/lS5513nj333HNZ1KJDRKA4CFCcYhrhxImB2fsi2B81NSEGZ2ogYvnZC1OmF3olC6gofaiMPoHp0+vtiiv3so8c2Ogi6uiNxWuYLDJm1hJcPdRj3snfRWJx3VSIWPuiqiVYYJqmq5wZVu0dOwKKwIrdJVWHREAEREAEciWwCKOHKowY/vKXv+RalY4XgaIlcMghh9i1115rGzZssK9+9av25ptvFi0LdVwE0iHAFEOKVA0NZtOnBzMYNjcHQhYjtZhiSDGLC/ejYMJjvIblX9M5l/bJjQBTCr/whWV2xBGzIDSWQneCwTuDpnA9si842F1QXkkO05lOyHUUsbwnlkSs7PnqyDgQkIAVh6uoPoiACIiACOSVgASsvOJUZUVM4MQTT3SeWP/5n//pTN1bWlqKmIa6LgLpEaCGQa8sphJyBkN6ZDHFcM4cwyy5gYcW0wuHM30PnyU3QSVck94nE5g0qdYOPazZzr9guS1fWW7d3X05CliJM7iLliRiOU8szk64EDvhxlARgSIlQIc4FREQAREQAREQgRCBxYsXY+BQbY899lhord6KgAhkSqASI+xzzz3X1q1bZ7fddpstX77cPv/5z2dajfYXgaIkQB2DCyOuKFYxAovm762tQxdO9snMs54es76+YPHABjLSsAJVDURr+e16zY1AVVW57bHHNJs5s9ruved5+9OfWnHNSp342N6eS924Wrx4btpDzE5Y0oFrB2N329NdxH57EZV35nICHSsCBUlAEVgFednUaBEQAREQgdEk0NzcDOPcGidg9XBEoCICIpA1gXlwpb788stherzELrroInv99dezrksHikCxEqCQRWN3RmUxCotRWU1NQWQWRS2mFHLxYlcqPybG9LAelfwTmDVrgp19zi6YqXCa1db1W3t7v1VCeMyp8GI5BZIXDSIWZicssem4hnvjdSXW1WPRcD4nxjq44Ajoji+4S6YGi4AIiIAIjDYBRo2sWrUKf83ukZH7aMNW/UVBYO+997ZLLrnE9fXII490vlhF0XF1UgRGgQB1DaYYMiKLXllNTWY0fp8zO5jVkCIWhS5GbXE/75XFpiRHZI1C84q2yvr6KjvuuJV22ukLbO68cuvqGjR3z1o4HCJiQaGE0XuJSyfcKyFiwRxNIlbR3nPF2HEJWMV41dVnERABERCBnRLYbbfdnID1/PPP73Rf7SACIrBzAgcffLCdcsop9sADD9iVV15pGzdu3PlB2kMERGBYAtQ2GJVVWxt4Zc2GRxbFLEZn0TurHgE6FLIYmUUhi/uGhRRFZA2LNusNJQB84IFNdu55i2yffeqttKzPCYjkn3UZuGgcukOVxOcSa8DLSrwuxTq4/kvEyhqvDiwsArl8lQqrp2qtCIiACIiACGRAYNddd1UEVga8tKsI7IwA03LPPvtse+WVV+zHP/6xzZ8/3y6++GIMspkGoyICIpALAUZZMeKKYhUFLaYVdnSYcd6E7dvN2toMJuNBBBZ9suibxddwRBbPT60keV0u7SrWY1evnonZCevs//v1G/bLX75lO+BbVlFR4q5BbkygQlKsKunC68QgCgtKZL/xj22cJIOypIoIxJeAIrDie23VMxEQAREQgRwIKAIrB3g6VASGITAZYSF33HGHffCDH7S7774bhsd/wmBZA65hcGm1CGRMgAIUo30oYk2caDYbaYWMyoIVnU2bZvB3DCKxvFcWo7LCxX8dWY9KbgRmzpwAT6wldvIp86x+AsSrnsGUwuxq9heFr5UQrxiNNRmi4+pEJBYuOt6piECcCUjAivPVVd9EQAREQASyJsCZCOtgMPLqq69ixif86VRFBEQgLwQaGhqciNXY2GhXXXWVvfTSS3mpV5WIgAgMJcCoLEZkTYBN0owZgZC1cCG8spBqSIGrEtu8XxZFr7BoJSFrKMtsP1VVldk//uNCu+LKxTZjehkYBymFZTnlQfUjzopCVQV+ckG4XcmueF2BdTJ2z/Za6bjCICABqzCuk1opAiIgAiIwDgT23HNP27Ztm73xxhvjcHadUgTiS2ARHKcvvPBCZ+Z+wQUX2KZNm+LbWfVMBCJAgJFWTDFkaiEFLApZ8xcEMxrSJ4sLxSwKXmGvrGQhS/E92V3MXXaZbV+7bXf7yIGTrBpRcMzTLMl6JM6rwMjVQMSykjIkFSKdsGQXrFmO9TJ2BwSVmBLI+msTUx7qlgiIgAiIgAgMEKCAtXXrVglYA0T0RgTyQ4AzfX7mM5+xk046yX73u985U3eKxSoiIAKjR4ARVlwoZCEQ0s1gyNTCpqbgPYIiXWQWRSzuw6gsRnGxeCFLCb8Bj2x+TplSb6d8cYUd8bmZNmkyFMUE1GwM3mnjHhS+4oJBxLISilgyds/m2uiYwiEgAatwrpVaKgIiIAIiMMYEFIE1xsB1uqIiMAmhIOeff74dcsghdt9999l3v/vdouq/OisC40mAQpb3yuKMhZy5sAkRWfPw6r2yKGR5MSsclTWe7S70c9fXV9onP9lsZ5zRbAuayhFHFUiCyV5kmfWTQ3p6YlHImhQSsRiJ5YWuzGrU3iIQVQISsKJ6ZdQuERABERCBcSewxx57KIVw3K+CGhBnAtMwUr7rrrtswYIFduedd9ovfvGLOHdXfROBSBLwMxjWQ++YNh1CVpNZc3OQasioLIorTC/kkuyV5TtEQYxFcknAYaSfNTUVtt8HZ9stX9vH9tmnHObufU7I8gxHOjbVtsGouCRjd6QUmkGd1FVJhU3rCpSABKwCvXBqtgiIgAiIwOgTmI3pm6ZMmWKvv/66jNxHH7fOUKQEJmKqtHvuucd9x9auXWuPPfaYZiYs0ntB3R5fAhRQvFjFqCx6ZVHI4kIhy4tY9MtiZBaFLy+6hFMM/brx7U20z14CSHV1lXbV1fvZEUdMweyQlP76rQbm+pnyC47kT5ZBY/cSw+yEJbtjHaafNKiQKiIQAwISsGJwEdUFERABERCB0SFQjj81L1261Hlg0QtLRQREYHQI7LXXXvaVr3zFzUh4880327vvvjs6J1KtIiACaRGgiEKRqh6T2vkZDClkzZoZzGpYAyNyL2QxKiuVmMUTeVklrZMW4U4VFWV25FHL4Y0135oXVlpHR79xhsLMRSyfjEjiTCXkNIfV4L8Ida3C+6lYJGIBgkqBE5CAVeAXUM0XAREQAREYPQIUsJYtW2ZvvvmmM3MfvTOpZhEobgL8rh1++OF2yimn2G9/+1uXTljcRNR7EYgGAQopjMqqq0MyGqKyZiMqq6kJr7ODzxMgcPnZCyl4cd+w+DKY3haN/kSxFUwpPPDA+XbmWUvsAx+ose7uPqf8JbMcue2Dtu7uYEZildRgqU2IWCtxOEUsDf9H5qitUSegOzjqV0jtEwEREAERGDcCisAaN/Q6cRESYCrh6aefbn/7t39rX//61+3uu+8uQgrqsghEl4D3ypoAr6yZiMSCdR2MyBGVNStIMaSAxWgszmDI92EhK9yr4daH9ym292VlpbZy5VSIWKvssMMmW2lJn/VBxyLL7Hkx4ooiVn0oEmsK1ikurtjurzj1VwJWnK6m+iICIiACIpBXAuEILKU05RWtKhOBlATmwHTn+uuvRzpSqV166aX2m9/8JuV+WikCIjB+BCioUKhiGiEmE3UzGDY3mzEyazrslphayOghn2LI9+Hi/bJYD/5XCRGYNq3OTjxptZ17/gJrnNhvHZ39Lj0ztEsabxn3hsWFvyVELJsA1kshZu2KbRKx0oCoXSJKQAJWRC+MmiUCIiACIhANAjRxp5n7iy++iLD+7mg0Sq0QgRgTWL16tX3/+993Pbzsssvs6aeflql7jK+3ulbYBLyYxais6ZjBkBFZCxcGKYZMO6xOzF4YnsGQx7BQyKLG4j+7lfoBcbDU/uEfmu3SLy2zFSuqEIkViFhO8EtL8eNOWEpCIhbTCa0uJGLJ2F23WmESkIBVmNdNrRYBERABERgjAo2YeolRIS+88IIErDFirtOIwCc+8Qlbs2aNbdiwwaUTKgJS94QIRJ8AI60oVDEqy89gOG8+4n0Q8FOL2fUYkcWUOEZvhf2dfESW72FaGo3fOcavu+8+084+Z4n93d9NtMqqfgh9MHgH4/QFPy9iOZkQB1ZCwKIn1hLUsRrkZOwe49sntl3j9AQqIiACIiACIiACwxCgL48XsHp6eobZS6tFQATyTeDYY491kY//+q//ioiOhXbBBRdg4KtfXfPNWfWJQD4J+CghClkUqxiFhX9Gra3NbPt2vO4wa+8wzLYXnLW315zXE/2efKHcwsK6ksWtYEvx/Fy4cIqdfmatrd7lLfv3H79u77zVh5TCEiO39ApFLOzpNCzErpRUuY/Wv8it7+9/BhvfTuyQXo3aSwTGk4AisMaTvs4tAiIgAiIQeQKKwIr8JVIDY0qgBgY7p512mu2xxx62du1a+/nPfx7TnqpbIhBPAhSgqDkz+oozGM6dG6QYzptnNi3hlUWzdwpdXIb1yoonnrR71dhYYx/92Hw766xFtqC53HoTKYX19VSm0ixOxOIPLhCxShoSkVir8FmeWGlS1G4RICABKwIXQU0QAREQARGILoH6+nqbh9+233vvPdu0aVN0G6qWiUDMCJRg9Lt48WK7/PLLbcaMGXbkkUfaU089FbNeqjsiUBwE/AyG+CfVeWU1NQVeWXNmm9E/i9sZtRX2yvJkwhFZXEcJptgKfbH22We2felLK2zVqmoEVPUjqq3fCX9psyC4fv7gAtjO2H0ZxKzd8J4ilqQBQFCJOAHdpRG/QGqeCIiACIjA+BNgCiFTCR977LHxb4xaIAJFRmD//fe3q6++GoPcCXbeeec5X6wiQ6DuikBsCDAqi2IV/bCcVxaismj6zgWWk25mQ26jkMWIrLDnk08n9IJWbKBk0JEFCybbtdftbgcfMskmNJh1ddMbC5IUNal0CvdzIlYpjkHYm4zd06GmfSJEoOwalAi1R00RAREQAREQgcgRYPTVb37zGzeAPuiggyLXPjVIBOJOYJdddjF60P3bv/0bfHS22957722MjlQRAREoXAIUXShQea8sfqW5MK0wLMokv0/ucbraTfJxhfq5srIcz8AZ1tDQi8jwDtu2rRe8ShzLsJfYsP0bAFaC4xjPUoaYLLgTWU4AAEAASURBVJiVldBjEGZl1o6lWGTC9bbvvvvaxz72MfRZpRAIyAmzEK6S2igCIiACIjCuBGbPnq0IrHG9Ajq5CJidffbZtm7dOvvhD39oCxYssDPPPBMG0Rh0qYiACBQ0AS9k0SsL1ncQZgKTd5q+74Dpe2srJBVoKhRnGIVFA3O+DheR5YKMCprIzhtPZgccsMBmzaq3H//7a/aXv+wAjxIX3TZUxKIQNaBYpajYR2Ih/K1/sVMO+/uZqv0OlmIRsVJg0arIEqDkqiICIiACIiACIjACAaUQjgBHm0RgjAgwhfCKK66AD8w+9rWvfc3uv//+MTqzTiMCIjAWBCjKeK8s+mLNmmU2f75Zc3NgAM91NIVnhBZfuS+X4cpIss1wxxTS+oqKMlu9eppdeNEu9tGPNlhPLxS+kn7wCQtPpBD+nKqHhFiJaKxGSF1L8LoLPsvYPRUprRt/AiN85ce/cWqBCIiACIiACESBAFOV5uO36Fb8Gfill16KQpPUBhEoSgLNGMleddVVmMFsml100UXuO1mUINRpEYg5AR+VxYgsemVxBsNFiwIxa+rUwEOLPllhMcsj8XKNf/Xr4/haWloC77AqO/Os3e3sc2ZaNZhwlsKwd1jQ753RoNAFTyw3OyGN3XfHZ4CWsXuATz8jQ0ACVmQuhRoiAiIgAiIQZQJLly7FX3zL7YknnohyM9U2EYg9gf3228/OPfdce+ONN+yII46wjRs3xr7P6qAIFDMBilmMuGIEFiYktaamQMzie3pmUeSijxb34cL9w8V/Tlod3qXg39MD6+MfX2ZXXr3MdtmlFgJWYO4+2LGRe89ZDUEO/9GArB6vjMTi7IQIg+M6FRGICAEJWBG5EGqGCIiACIhAtAlQwKrAn3olYEX7Oql18SdQhtCCww8/3I455hj71a9+Zdddd529++678e+4eigCRU6AQhQjizhL4eTJZvPmBbMX8pVRWRMSBvAUsbgf0wt5zHBeWXHDSRFr991nIhpruR1w4EQrK4eIBWGKstRgSR2JxX2GilgTsGZpIhKLIhagqohABAjoTozARVATREAEREAEok/AC1iPP/549BurFopAzAlMnDjRLr/8cheF9aMf/ciWL19up512mlUxp0hFBEQg1gQoSnHh193PYMg0Q5q9c2lpCczfu7sD8Yqm5t4APhlMWOBK3laon+fNa7DjjlsKgW+D3fevbzgjfIpbgZBHMcuLWGFhK4i/oojFtSUunRCKoDVjKU0c+wbew0FfRQTGkYAisMYRvk4tAiIgAiJQOASWLFniIrCeeeYZ6+ZvxSoiIALjSmD69Ol27733GsXlb3zjG/bwww+Pa3t0chEQgbEnQAGKEVdMI2QUFr2yFi40a2oKPjNay6cW+qiscCsp6rAOlsRL8KHAf06aVGOHHLLI1t60qy1oLrE+19FwL1P3NojE4jYuFfhZAz7NWPbE55lYENqmIgLjSEAC1jjC16lFQAREQAQKhwDTB3fbbTdM5d1u69evL5yGq6UiEGMCnGDh1ltvtc7OTmfuvm7duhj3Vl0TAREYiQCFKPxTbXV1ZtC3rbk58MqiqNXQMBixRUErPHthOMXQi1kjnadQtpWXl9qSJZPxbNzd9tuvxiqYUohZCodKdT4aa7BXQTIh11MqgLmYE7EW4th98H42FiVxAYLKOBGQgDVO4HVaERABERCBwiOwxx57uIGyZiIsvGunFseXwJ577mnnn3++PfXUUy6tcPPmzfHtrHomAiKwUwIUoRhtxagsemXNmRMIWZhM2M1oSON3RmZR7PJilheuvJjFkzAGKQ5l9uwG+GKttE98cpo1NLJHFLJ8z/gmWcQK4rAGPbEoWJXjmAVY9sB7AJWxOxiojAcByafjQV3nFAEREAERKEgCErAK8rKp0TEnUINR6tFHH22vvvqq/cu//Is1NTU5Y/dKmuOoiIAIFDUBRlrxUUCxqrY2ELAQSO18srZvN0RVG2wB4OwEayfvk+VFrGRZp5BBTptWb8cdv9iWr2i0f/t/X7b169BhqliukwNqVqiLgYgVyHh8X+F2pYjF0u8gvYF38sRyQPRjzAhIwBoz1DqRCIiACIhAoRNgpAdTlZSmVOhXUu2PG4Fp06bZpZdeai+88IITseiLddJJJ8Wtm+qPCIhAlgSo1TDaykdmMaVwypRAyKLpO83f29qCyilkUdDyQlb4lE7zKVBlq6am0j70oTk2a1a1/T/fX2ePPsIOlwY6luuT75gXtPwr1uP/khKogCwlTfhBPgBlG7FIxCIPlbEhoBTCseGss4iACIiACMSAAI3ca/En3P+/vTsNsrO6732/WvPcmueWWrMEEgaJyZh5sDFgPAQcxxUfJ3GSm1Q5rnPi65ObuvdVhqqU763zIuX4OBXHiWPHiW1ibCYDBgw2BoEGJklIIDSDJDSheQJ013c1S2w1Pezu3rt7D99Vtendez/Dej6Pkig//df/odLj6NGjNXBFXoICtSMwefLk8I1vfCP+P6j9w9/93d+Fxx57rHYuzitRQIGSCBBA5aosQqz4vzZCc3NL4/emppb+WVRr5eWFBF7sk0cOtfis4OP8dVX8nD9/XPjzry4Ot9w2JlanxYWCKZxi6lwRrxxk8RnjvYtNHxNiDYkmuSeWjd0Tkf/pNQEDrF6j9kQKKKCAAtUuwGOoaeROj51du3ZV++U4fwVqTmDWrFnh+9//fti3b1/427/927Bu3br3lrrU3KV6QQooUAIBAir6YY0Z0/IEw7lzQwq0YlFn6qE1eHBLmNVWkEWeUxhulWA6vXaIMWOGhS9/+YLwB1+aEsaMjW3bczKXZtBWNPd+iMVyQpq7NzQ0x9el8X1M/lKz9/jDoUCZBVxCWGZgD6+AAgooUFsCBFhUdhBgzZkzpyIu7oc//KEVYRVxJ5xEJQi8/fbbYfHixeGJJ55IIda3vvWtMHLkyEqYmnNQQIEKFSCIouqKqiyeYkigRaH1wYMtP0+cCOHUqZY+WSwxbN0vi/1TJVO8vtb1SxV6yTF8agif/NT8MHXa0PCfP9gZNrxyPLz7TrwQrqHNi4jfvfcUw9wTq1+YFc409I/bPx+ve1vcMyI5FCijgAFWGXE9tAIKKKBA7QkQYN11111h5076PlTG+OpXvxpef/31ypiMs1CgggR+8IMfhK9//esGWBV0T5yKApUsQBCVe2VRmUWgRXhFmEXTd/pl8TsjN37PYRaf5dwnB1p8VunjkkuawoQJI8O99+wITzy+P11r+3Mm4IpXeSY2dqcnVrzQhjMzWkrRYup1JmyN37/d/u5+o0APBQywegjo7goooIAC9SVQqUsIJ06cGB544IH6uhlerQIdCPzLv/xL+Id/+IcOtvArBRRQoG0BAiheLCHkKYa5KosQ6623WoKs+EyXVKmUm76fE2TlJKvtw1fcpzNnjg6/9/vDwtSpm8N//MeucPQIQVV7A5z4XQyxQqy+SlVZZ+IywhRmvRtDrO3xS0Os9vT8vGcCBlg983NvBRRQQIE6E5gyZUoYPXp02LZtW3xi0bHU1L0SCAbGtQ/Lli2rhKk4BwUqQuChhx6qiHk4CQUUqG4BgiyqsngRaMW/AqSnFlKNRaDFi+8IsOIK5jafYMgxKnmJIfMbOXJQ+K07FoQZM4eEv/2bzeHkifhhSqrauX8sJzwTW2rHSiyWI4YzzWk5YfrYEKsdND/uqYBN3Hsq6P4KKKCAAnUlMDj+7XVu7PJKgHWYv706FFBAAQUUUKAuBHiCISHW2LEhTJsWQnxuROyH2RJqseQwv+inVdj4PfeUqobCrEsumRn+97cuCpdePjwMGZoKqwruLVeQryKGVmRc6T/9U4jVQEP3hkviJzPj57F0zaFAiQUMsEoM6uEUUEABBWpbIAdY27dvj//qGv/Z1aGAAgoooIACdSVAwREh1YgRIcQV/KG5OYZZ8TV5MpVMIVZntyw9ZBuqswi+2hop/2nriz7+bMqUxvDf//v54bZPjA+jGpllS2iVKq3anBsXWBhiLY0hVuyNZYjVppYfdl8g/o+TQwEFFFBAAQWKFcgB1i9/+UsrsIpFczsFFFBAAQVqUIAgi0orAiuqr0bGpu/jxrUsKzxyJMRWAyEcP/7+0wtz4/f2KrLej4r6HmvMmKHhs5+dE5qahoX//I8dYecb78RJ0by9oZ2nFBJitXwfYk+s1CIrNXbfFj8/3fcX5AxqQsAAqyZuoxehgAIKKNBbAoNiN1eWEO7atSvs27evt07reRRQQAEFFFCgggWosqLhO1VXBFqnY2ZDeJUbvxNmsQ3hVe6XlYOsfFnUORGKtf48f9/bP0eOHByuv35GWLx4fPhf/+uFsPalt1OA9f48WiqzCK5aqrT4SSVWhIhPJzzT0C/2eB8Y67e2xM9j1/uzyw/jW4cC3RAgJnUooIACCiigQJEC/MvjhAkTYv+LsWHDhg3xL6Gxa6tDAQUUUEABBRSIArkqi4osGr7TK2v27BCam0OYML6lUouQi+/5SQVX4SgMr4iD+noMGNAvPp1wRPibv7k0fPRjI96b75k0d4KrHGG1hFjMNodYA+K7mdHjsvhzXvw8NtRK37GNQ4HuCViB1T0391JAAQUUqGMBwiueRrh+/foUYPVrr7lFHRt56QoooIACCtS7AGEWPbDolUVV1pgxIRw9GsLBgyG2IYg1SSfikwvjyjyWFhYuL8whViVVZA0ZMjD84R+dH6ZN3xYeuH9PeHP3e9VYrBX8wOCzGGA1vBOrySbEnxeksrIzYXP8PJaiFcReH9jVDxToQMAAqwMcv1JAAQUUUKAtAQKsybFT68svv2wFVltAfqaAAgoooIACZwVyVVZeZkigdTKuqCPMIsiiXxa/v/12ynnaDLPywYiG3q96yp/2zs+RI4eEz3xmTpgxY2T48Y+2hHVrT8UTx75XZ+eUIrf3JpNDLK5p0nshFnPfFL+Payv77Crem54/qlLAAKsqb5uTVkABBRToS4EcYD388MMGWH15Izy3AgoooIACVSRAkMVr8OCWfllUZbHMMAdZR2n8HrOdUzEXogorV2UVdivI4RXHyZVavUkwYED/cNllU2Il+tBw1483h8cePRT/LtSQ+nu9+y4dimitQHjVElE1vNcT68yZyfHamTTLDjfGb2P5mSEWTI4uCBhgdQHLTRVQQAEFFEBgZHxG9vTp08PevXvDzp07w6xZs4RRQAEFFFBAAQWKFiDLYXkhLwKtxsYYXMUqrMMxxGKJIc3fqcpiEFRRnUWglUcOr/oiyOKcM2eODn/8fywKM5u3hx/+5xvhyGFCrDMpzMpzJKo6kyq03mvsHqbEr2LTrzj5M+G1+N4QK1v5szgBA6zinNxKAQUUUECBswL8C+KMGTPC8OHDw6pVqwywzsr4RgEFFFBAAQW6KsDSQl6EWUMLq7JiiHXovSWGNHvPvbL4mQOs/DMHWTFb6rW6JpYU/tZvzY1tFYaE73xnW9j5+jupwqxlTi21YoUhVlpu2DA5znBZnCTfEGK5nLCrf17qeXtq/BwKKKCAAgoo0EWBpqamVIlFgOVQQAEFFFBAAQV6KkAIRZDFEwpp+D5teoj/SBZCc3PL7yw55DsqtvITDNmHkYOsvMSw5dPy/5d/1PvIR6aH//E/5oTFS4amEK7lOt6bWJwCUVXL4LN+MeSaGF8fip/Pib/Hi4rvHAoUI2AFVjFKbqOAAgoooEArAQKsUaNGhZUrV7b6xl8VUEABBRRQQIGeCZxTlTW0pVfW8fgAPxq+H4yVWSfi6rvTp8/tk1XYK6tnZ+/a3oRYS5ZMDl/7n8PCzx/YFR58cFc4+FaMpeLnOVhrqQtrCbBSYNUwpSW2OluJ5dMJu6Zen1sbYNXnffeqFVBAAQV6KMASQnphrVixoodHcncFFFBAAQUUUKBtAaqZcq8sqq9Gjgph7LiWHlk0f+d1LGY/BEUEWLnx+/vBUctxOU7rz9o+Y/c/nThxVPjtzw0LU6YODv/5HzvCzjdo2nUm9O/fEOdFeEUlFovA6IzVP64iJMSKayPDoDi3V+PPmMydrdaKbx0KtBJwCWErEH9VQAEFFFCgGAHCq5kzZ8Ymq4fCpk08EtqhgAIKKKCAAgqUT4CqrEGDeJhMiH2nYiP1GSE0N8elhtNC7MvZEnSxtJAlhvTMaiu04rNyjiFDBoQbbmgKf/7VOaFpRku9DMEac29ZKpiXE8bG7iF+H3tiNTRcHF/nx+9jOhc/dSjQnoABVnsyfq6AAgoooEAnAosWLYp/IesX1qxZ08mWfq2AAgoooIACCpROgIBqcKzIGj06xCcjhzAntpOa1RzChAktAVZhr6yW8Kjl3LkKq5xBVv/+/cLixZPD//v/XRiuvGp4mmde3siywpYqrJafLRVYo1KA1RJixccxpiqtlvn6XwUKBQywCjV8r4ACCiigQBcEFi5cmAKsl156qQt7uakCCiiggAIKKFAaAfIglhhSlTVxUohPSY5B1qz4fmLLZzR+p2qLyiy2y8FV6yArf16aWbUcpbFxWPiL/+ui8LnPTYpza6nGIkzr3y9XYeUQi+8a49wWxdd56b2VWKW8E7VzrJY/RbVzPV6JAgoooIACvSZgBVavUXsiBRRQQAEFFOhAgACKqqxceUWgdfJkS4+s2O0g9cqi8fvbb7f0yiLAoiqKF/sWBlr5fQenK/qrAQP6h09+anbsizU8/OS/Xg+vvnIyne/9c7b0xWoIg2P3q3EpxOLgZ86sjf+1J1bR0HWyoQFWndxoL1MBBRRQoPQC8+fPj39RHBI2bNgQ/5J4MvaciE0nHAoooIACCiigQB8JEAzx4q8kVF5RgcUyQ5q98wTDw4db3vMEQ0ZhoMXvpQyvOB5jyJCB4YorpoTm5lHh3/5tQ3jy18dCPyaZxvs/G8LAGGKNjfOnH5YhVkLwP+cIuITwHA5/UUABBRRQoHgBAqvFixeHgwcPhu3btxe/o1sqoIACCiiggAJlFiAjYtng0KEhjItPLqRX1uzZLY3fx49/f1lhXmLI8j4CrBxisX/OmfLP7k6ZSqwZM0aFv/iLpfFJhaPjOVqWEbK0MUdYvGuITyRsSCHWhfHci+PpbOzeXfNa3M8AqxbvqtekgAIKKNBrAhdffHE4fvx42Lx5c6+d0xMpoIACCiiggAJdEchhFhVZNHpvbg5h7tyWUGtUzIio2GL5IWFW7pVVGGbxvqchFvMdOLB/+N3fXRz+/P+cGaZNH5iWMPaLSx/fH0QUA2OIRWP3xfFFNVYsIbOx+/tEdfzOAKuOb76XroACCijQcwECrGPHjhlg9ZzSIyiggAIKKKBAmQUIoeiVRVXW2LEhTJsWUtP3pqYQxowJYcSIliCLyihebT3BkCn2JMwixLr++hnhz74yJ1y0dFhcNthyPM7V72yD9/4xxBrzXohlY/cy/7GomsPbA6tqbpUTVUABBRSoRAErsCrxrjgnBRRQQAEFFOhMgMAoLx+kMosAKxaVpz5ZNH7n/alTH2z6XrjEsK33nZ2X7/v37xcuuGBCPOegcN9928PP798f3nm3IQzo31CwjLElxAqpCuvd+Pm6uKeN3YvxrdVtDLBq9c56XQoooIACvSIwN9bfDx8+PPXAohJrGH8DdCiggAIKKKCAAlUiQDUVywZ5sYyQJYX0zKLhe37Fv+Kk7995JwRePL0wh1dcZl5iWPhZZ5ffEE88Y8bo8N/+29CwYMHu8J1/3hIO7D8Tq65aQix6YsWzpkqsEGIVVsOZeJ6X42eGWJ3Z1ur3Bli1eme9LgUUUECBXhEYEP+2t3DhwvDmm2+mVzNNJRwKKKCAAgoooEAVCrQs42tZPhj/fS4FWYRX8Xk1Yf/+lqostiGoykEWYRYhWB75fbFh1ogRg8N1102PvbkGh//9zY1h65aYkMXjUR126hRhVjxBGBY/WpI+N8TK0vX30x5Y9XfPvWIFFFBAgRILLFmyJOzZsye9SnxoD6eAAgoooIACCvSJAEEVzd1Hxx7q9MqaMyekflk0gadSiz5aeQki2+ZBcMUrB1n5845+9osHWLJkYvjzry4Il10+MgyK/bdOx+WLcaVh6NcQJ9EQ06wwOIZYC+NxF8X3jfFVkJp1dHC/qxmBgj9mNXNNXogCCiiggAK9KrB48eIUXlGF5VBAAQUUUEABBWpJgCCKhu4sLZw4McRlfyHMnt3yNMPGmCPRPSE3fc9PMOT6W1dgdRZosXRw7txx4ct/Ni/81p2TY5P5hrRUkf0aQkzLGmJqFobH9/NjiLUwvjfEwrmehksI6+lue60KKKCAAmURyBVYu3fvLsvxPagCCiiggAIKKNDXAgRJBFQ8xZAKrJEjQzh5MoSjR2NXqtiW6siREE6caHlyIcsKc5+stpYYtg638rURYo0bNyJ87nOzQ1PT0HDXj7aHTZveTl8PHjTkvSWF/VIlFiVeNnbPcvXx0wCrPu6zV6mAAgooUEaByZMnh8b4T5Dbtm2Lf3E7Ef9Sx78QOhRQQAEFFFBAgdoTSBVRMcxieSFLCOmVxRMMCbB45TArB1hvx/wpv0cjh1ccJ79vrTRo0IBw1VVTw+RJQ8K//duW8OILx8Pp04Rng2PvrZignYmv1NidY/h0wtZ+tfq7Swhr9c56XQoooIACvSbAUwhnzZoVtmzZEv8VMv4zpEMBBRRQQAEFFKgDAUKoXJHFkwunT29ZXhj/WpRCLQKu/KJ6KzeAL6ThGIz8s+U3qr36h4WLxof/+/9ZEm76WGNcptiQGsc3NMQDxb5YDXEJIY3dGxrOj7vEBC0Yb2S7Wv1pBVat3lmvSwEFFFCg1wSGxi6mzc3NKcA6Fh/VM46/wTkUUEABBRRQQIE6EiCAIqSiIosG7/TH4gmGhw+3VGWxvJBqrFyRlZcW5iosfnKM/Dt0LCkcMWJI+JM/OS82kn8t3H/f/vDm7tPxPANjVVf/8O47pF8xwIr9sc6cWRPf740vnlroqEUBA6xavKtekwIKKKBArwoQYM2O3UyfeeYZK7B6Vd6TKaCAAgoooEClCRBCUZVFc3e6KtD8nX/bY2khYdbx4y29sgiyCKveeadliSHXcW549f7vQ4YMDJ/85NwwdequcO89u8PaNVS8x15Y/QbHfUbHSqwF6fczZ16MPw2xIkJNDgOsmrytXpQCCiigQG8KEGDNirXyNHHfv39/b57acymggAIKKKCAAhUrwJJBlhDylEICrbFjW8IrwixeVGidOtUSVOUwi585yCqsyBo8eEC47LIpMcQaEe7+ydbwxOMHY1+shtCvYWA4E59OGOLTCQm1zpx5Pv40xKrYPxQ9mJiLRHuA564KKKCAAgog0C/+7WzSpEnxaTwjw4YNG0RRQAEFFFBAAQUUKBAgiGJ5ISHW6NEhLgcM8R//QpgxI4SJE1s+p2qLxvD5SYfsnoOs/H7gwP6hubkxfOkPF4Tf/lxMw2Lt1Zkz/UL/foPi38eGx/jqvLjscFn8fEJ8GXfgVkvDCqxaupteiwIKKKBAnwlMmDAh/gVsYlizhv4LDgUUUEABBRRQQIG2BKjK4lVYlUUl1ltvhXDwYEuFVl5WmH/mflkcj75YjY2Dw2/dsSDMmPl6+M4/vxH7Yr0To6wYZjX0D/3OLAjvNpx5rxLrzbiHPbHaug/V+JkBVjXeNeesgAIKKFBxAjnAWrt2bcXNzQkpoIACCiiggAKVKEDVVV5mOGJES68sHujM8sIjR1oavrPEkACL1/sVWQ1xaeKAcPnlTWH8+BHhP/9ja3jh+WPh5MkYXIUhYUC/+eHt2FurZTmhIVYl3vvuzMmauu6ouY8CCiiggAKtBAywWoH4qwIKKKCAAgooUIQAywtziEXDd5YUzpwZ4lLBlvcsOWTpIUsLqdriJ/tQiTVgQP8wb97Y8Pt/MCfccuvY2M6hf/y8f2wiPzwuK1wQ+2Mti3VZ8YAuJyziTlT+JlZgVf49coYKKKCAAlUgMCr+jWvq1Klhz549YefOnWHKlClVMGunqIACCiiggAIKVI4AwRQBFS/6YRFonTgR4lOeW5YXUpXF7wReVGOxxJBwqqmpMS4pHBjmzR8ZG7zvCJs2nYpB1rD4Whi/j03ezzwTf+6OL5cTRoSqHVZgVe2tc+IKKKCAApUkQCP35vhPhYPj37ZWrVpVSVNzLgoooIACCiigQNUJ5Kqs+Iyc+LCckJq+U5VFA/jGxpYQa8iQlqBr4MCG+ITD4eHKK6eHr/3P88LNH28MjaMHxEqsoWHS5EWxEuvKWIkVdwxxzaKjagUMsKr21jlxBRRQQIFKEyDAGhZr3FesWFFpU3M+CiiggAIKKKBAVQpQlUWYRb+soUPj8wXjAwZnzQphzpyWIItKrfwaMqRfmD69Mdx559xw52cnxoqsgeHQwX5h/IS5cd+rYkVWczSI6xAdVSngEsKqvG1OWgEFFFCgEgUIsIYPH26AVYk3xzkpoIACCiigQFULsFyQJYSEVVRlxb9ypUqs48dDOHy4pfH7yZMhnDrVECZPHhFuuKEpVm4NDQ8/vDtsfPVkbPoeG2vFOqwTJwfEhvCb4vt4gPi7o3oEDLCq5145UwUUUECBChfIFVgrV66MPRneif9SaJl6hd8yp6eAAgoooIACVSLAX6tyM3cqsqjMIsSiKoteWePGvf/0wmPHeErh0HDZZZNjxdbg8MADr4ennzoSe2E1hTFjhoT9+4fF9/tikDU8/jwTj2WQVQ1/DAywquEuOUcFFFBAgaoQGBn/OZAQa926dWH79u3pfVVM3EkqoIACCiiggAIVLkBj9xEjWiZZmDflXlk8oZCA6/TpEKjKOnSoIRw8OCgGXOPDkCH9w6mTm8MTjx8NR49Mjse5JlZzjQgnT46Or5Px+9hMy1HxAgZYFX+LnKACCiigQLUI8K93559/frj//vtTiEWY5VCgUOBEfHTSiy++mJaZjh8/Plx11VXp6ZWF2/heAQUUUEABBdoWKAyuWm/Bd/kJhuRRuSrryJH+sTprbKy8GhgGDtwUHnvscDh2dGQYPuzSuM3pcOzYibgscUiq6Gp9TH+vLAEDrMq6H85GAQUUUKDKBRYvXpyu4OWXXw633HJLlV+N0y+lwNtvvx0f670pfPvb3w733ntv7MsxKezevTs2mr0zTJkypZSn8lgKKKCAAgrUtUAOs6jYoipr9Oh+YeLEUfH/3s4P05u2hbt/ciD20RoVrrmmKfbRajS8qpI/LQZYVXKjnKYCCiigQHUIUIFFLwWWEToUKBQ4HtczPPfcc+HZZ58Ne/bsiUsbDoWf//zngdCTaqyBrH1wKKCAAgoooEDJBAiy6J1FRdbgwQ1x6eCw8LWvzQoLFw4Le/e8HZYsGWt4VTLt8h/IAKv8xp5BAQUUUKCOBObPn5/6KGzcuDGwXMyeCnV08zu4VELNw/ERSSwf3LZtW2ryT6C1fv36sHz58vgX6YWpCssmsh0g+pUCCiiggALdFCDI4jV0aENobh4cfv/3p8XeV++kZYX9+sUvHFUhEHv3OxRQQAEFFFCgVALDYp36okWL4tNt9oc33nijVIf1OFUu8O6774adO3eGV155JVVecTmEWnv37g1PPfVUWlrIEkOHAgoooIACCpRXoH//hrhscEB6OuHAgUYi5dUu7dG9W6X19GgKKKCAAgqESy+9ND7Z5kiqtJFDAQROnTqVqq22bNmSqq+yyrFjx8LatWvT0sKDBw/mj/2pgAIKKKCAAmUWoCLLUV0CBljVdb+crQIKKKBAFQhccsklKcDaunVrFcy2dqZIRdM777wTH599Ov2k6qlSxtGjR8NLL70UduzYcc6UmCNVWE8//XTYvn17qso6ZwN/UUABBRRQQAEFFEgC9sDyD4ICCiiggAIlFsgBFr2OHL0jQGjFEj1CIiqZRo8eHRYsWBBmzpwZH6ndt3/dIVRjOSn9rg4cOPABEHphMW+eXDlv3rzYYDY+MsmhgAIKKKCAAgoocI5A3/6N7pyp+IsCCiiggAK1ITB37tzYJHRoqqghnOC9o3wCJ0+eTAHQvffeG1599dXkTTXW9OnTw0033RSuuuqq8p28iCMTrhFO5ebtrXfJAdeTTz4ZLr744sCDABwKKKCAAgoooIAC5woYYJ3r4W8KKKCAAgr0WGDQoEGpkmbXrl1h3759KUjp8UE9QJsCLMF77bXXwl133ZWs77zzztiUdUJ48803w4oVK8Ldd98dxo4dm0KhgQMHtnmMcn9IgMXTBztq6s8TCletWpWCrqamJkPPct8Uj6+AAgoooIACVSdgD6yqu2VOWAEFFFCg0gUaYlfQ8847L+QAq9LnW83zO3ToUHj00UcDzdDvuOOOcPPNN6cm+jfeeGP4xCc+kZYPfuc730n3gkqn3h4EbLt37w7r1q1LAVt75+cJhPTHWrlyZdizZ097m/m5AgoooIACCihQtwIGWHV7671wBRRQQIFyCRBgLVq0KAUXVGA5yiPAk/1YMrhmzZpw+eWXp+CK5ZpUwI0cOTKFiHxOb6zly5cHwq7eHoRmGzduTOEUIVV7gyWP+/fvD0899VSqKOto2/aO4ecKKKCAAgoooEAtCxhg1fLd9doUUEABBfpEIFdgsYyNahrCCUdpBTAlHLz//vvDpEmTwrJly0JjY+PZk3APCLH4/KKLLkpP+du8eXN6QuHZjXrhDUEUywepxuts0MuLsOv5558Pb731Vmeb+70CCiiggAIKKFBXAgZYdXW7vVgFFFBAgd4SmDJlShg+fHhq3E0PJEdpBai+ovfVgw8+mBqfT506NfTrd+5fa/r37x/4nCosnkzI8jyqnHorUOQ8R48eDWvXru1w+WCWYftchbV9+/bA8kOHAgoooIACCiigQIvAuX/TU0UBBRRQQAEFSiJA9c/MmTNTyHLixImSHNODvC9AhdLq1asDIdWSJUtSWPj+t++/o3H77Nmzw+TJk8Ozzz6bKpx6qxcWwSVVX/S2orqqmEEvL/plrV+/PoVfxezjNgoooIACCiigQD0IGGDVw132GhVQQAEFel1gxIgRYcaMGQZYZZCnUin3tfrUpz4VRo8e/YHqq8LTjh8/Pj0Vctu2bakX1vHjxwu/Ltt7Qiv6c7F8sNiqL6quWHr6+OOPp+o9q7DKdns8sAIKKKCAAgpUmYABVpXdMKergAIKKFAdAgRYVGBt2rSp6Oqb6riyvp8lfaUIsHi63+23395u9VWeKU3dJ0yYkPpfUYX1yiuvFB0o5WN05yeVdywf7EqAxXlY7kh1Gf2wiq3c6s783EcBBRRQQAEFFKgmAQOsarpbzlUBBRRQoGoE6H9FBRbhhU8iLO1tY/ngli1bwrhx48KsWbMCywQ7GjR0p8E7lVoESo888kggXCq2KqqjY7f3HZVT3HcCTAKprgyWHr7++uth1apV6SEAXdnXbRVQQAEFFFBAgVoVMMCq1TvrdSmggAIK9KlAbiA+ZMiQ1M+oTydTYyen0TnBIL2vqK4ioOpsUBFHgEWo9NRTT6U+UzSCL9egSmzr1q2pUqw7PbcOHDiQAiyauXdn/3Jdl8dVQAEFFFBAAQX6SsAAq6/kPa8CCiigQM0LTJo0KdB/6cUXX6z5a+3NCyTcyQFWseclUBwwYEBaRvjCCy+Exx57LNAwvVyDKiqqr1jm2J1BhRhLHZ9//vlAxZlDAQUUUEABBRSodwEDrHr/E+D1K6CAAgqUTYAn37HMzQCrdMRUNtHknPBpwYIFRR+4X79+KcBihz179qQliOXsL0WAxTLHvXv3fmCOVIxROcbSx46qxwi/fvWrX6WnGJZzueMHJugHCiiggAIKKKBABQoMqMA5OSUFFFBAAQVqQoAKLAIsKn4cpRGgMoklhKNGjQr4FjtYPjhv3rwwZ86c9MTCCy64IAwePLjY3bu0HWETwRVPPTx69Og5+1IFRlXe3Llz09JAtiFQa2s545EjR1LPLp5kOHv27DBy5MhzjuUvCiiggAIKKKBAPQkYYNXT3fZaFVBAAQV6VYDQZOrUqeHhhx9OS96oyHL0TIAAi6bo2HYlgJo4cWL49Kc/HRYvXpwqsc4///wUgvVsNm3vTYC1efPm8MYbbwSauedBFRjzuPPOO8MnPvGJNI8nn3wy3H333SmooiKssNKK91SbPfPMM+HDH/6wAVaG9KcCCiiggAIK1KWAAVZd3nYvWgEFFFCgNwQILHhKHlU39DK6+eabe+O0NX0Olg7SiH3s2LGBvlbFDpbrzZw5MwVIVDvR1J37U45B8LRx48bUwL3w+MOGDUtB1Oc///mwdOnSdH4a0fP6xje+EQizjh8/XrhLqjZbvnx5CsSmT5+elh6es4G/KKCAAgoooIACdSJQnr+51Qmel6mAAgoooEBnAixZ40mEq1at6mxTvy9CgN5SvMaMGdNh/6i2DkWF0yOPPBK+/vWvhw0bNqTjtLVdTz8jICPAotF8HvS6ogLv1ltvDSxfJNQkQCOIu+GGG8JXvvKVFG7RG6tw8ARCKrmowqIaq7Ciq3A73yuggAIKKKCAArUuYAVWrd9hr08BBRRQoE8FcoC1evXqPp1HrZycCiV6YDU2Nna5gorQiN5TVEhRDdVRA/WeeNHTqnX/K0LMiy66KC1h5H3hYC5XXHFF6pdFOLdixYrAUsk8qDh74oknwrXXXpsqyFqHXHk7fyqggAIKKKCAArUsYAVWLd9dr00BBRRQoM8FaL49dOjQ1MidJ+g5eiaAIVVINHHv6hJAgiv2JxCiOorqplIPzrFp06Z0/FwtRVBGzy76WBFoth75+6uuuir1x5o/f36q0MrbUdHFMWnmfujQoXP6ZOVt/KmAAgoooIACCtS6gAFWrd9hr08BBRRQoE8FCC7ovURVDkvBHN0XIBzKT/Xj6Y5dDbA4MxVONIE/fPhw2ZbjvfLKK2m5X77SXPlFryv+PLQ1uBaeqvjxj3883HLLLWm5Yb4+grDczH3nzp0GWG0B+pkCCiiggAIK1LyAAVbN32IvUAEFFFCgrwXoeUS1D32XHN0XIMg5cOBAoJcVoVBXB03feSrkJZdcEpqamrp1jM7OyRy5z7t37z67KU9LvPzyy9PyxRxKnf2y4A3zY16f/OQnw9VXX53CrrzM8ciRI6mKj3CscHlhwe6+VUABBRRQQAEFalrAAKumb68Xp4ACCihQCQIEWCxdW79+fSVMp6rnQBBIJRav7gwCJPpoURFX6iWduUJsx44dqcKL+RFA0XCe/lc0ce9sEHadd9554Y477khPJ+R3BsHY66+/HlauXJmWQHZ2HL9XQAEFFFBAAQVqTcAAq9buqNejgAIKKFBxAjnAonrG0X2BHFoRQnVUydTeGQiBqIx66KGHwuOPP56CrPa27c7nHH/r1q0pHOM9g0oxelrlZv7FHHfkyJGpYuujH/1omDZt2tlm8zSv52mWmzdvLtsTFIuZn9sooIACCiiggAJ9IWCA1RfqnlMBBRRQoK4EFixYEKikee2119Lyt7q6+BJeLNVMBEI0cOdJfnl5XVdOQQhGFRfVVzkQ68r+HW3LcQkp9+7de3azgQMHhmXLlqWli2c/7OQN1zV+/Phw0003pcbvXC+DZu78GVq+fHl46623OjmKXyuggAIKKKCAArUlYIBVW/fTq1FAAQUUqECBESNGBEKs/PS7Cpxi1UyJAAvPvLSuqxPvTuhV7DkIxAiwuM8MqsQaGxvTUkCazndlEHzxZ4Z+WCwp5HcGFWS/+c1v0gMBCMwcCiiggAIKKKBAvQgYYNXLnfY6FVBAAQX6VIAeSDz9jj5Gju4LEEDR7Lyng7CJJxLSEL1UvbAIlFhCyH1mDBo0KIVQzc3N6X1X58xSQhrO33jjjakii/2PHTuWeqnRCys/kbGrx3V7BRRQQAEFFFCgGgW6/gifarxK56yAAgoooEAfC7CM7IEHHgg0+HZ0XyAvASxm+R99qHgRUtE/KgeIfHb48OHUEJ1leVR0zZ49O0yfPr3bSxM5Jk8KpDk8x2RQJbZkyZIwZcqUbvXsIqyj8TsBFoHVoUOHUoBFFdaTTz4ZrrvuujT37vQD6/4dcE8FFFBAAQUUUKBvBAyw+sbdsyqggAIK1JnA0qVLU4BigNWzG0+VE1VIVE+1NXJlFdVJ9KJ64403zr6otGIpHmET+2/ZsiUFimxLUETTdBru01+rq4N5cW8JynhP+EQF1fnnnx8mTZrUrX5dzIEqroULF4Zbb701HZ8nWRKUvfDCC2HdunVhwoQJKcQq59LIrlq4vQIKKKCAAgooUA4BA6xyqHpMBRRQQAEFWgnwFDrCCEKOkydPdruHU6vD1s2vBFMETwQ1VBxRVUWQxe+EUnxG5RNVSjQ637hxY9i+fXsKlNiPpuhUWNFDi6f4jRkzJlxxxRUpyNq0aVN49NFHw69//evQ1NSUwqyuBkKEVpyP5urMlWWOhGLNcfng8OHDu32fmAdzvfrqq8Pzzz8fdu3alYI5zvV4fJIi/bGGDRtWkmWV3Z6kOyqggAIKKKCAAr0gYIDVC8ieQgEFFFBAgaFDh4a5c+emHlgHDhxI4YYq7QvkwIrwiWCKsIpKKV4TJ05MzdIJqqiWmj9/fgpwXn311fDcc8+l8Ir9x44dG2bMmBEID3lREbVt27awevXq9CRDwiWe8Mf+HItQiACM43e1zxYB1s6dO8/2vyIoY1kiywe7Goa1ViGgmzVrVnoq4Zo1a1JIRlDG0whvueWWdA7+fDkUUEABBRRQQIFaFjDAquW767UpoIACClSMAIEIT5UjQCF8oDrH0b4Ay/14oh9L5qiYIlyibxVL9Aid+IzB0ky+Y1sqqQiOWLbHT54GyP58zpK7adOmpUotAiWeCkjIxYtt+YyfVMl1J3BiSSLnYdliPibBGAFWKQZ9umjofuWVV6bzvPnmm6lhPIEd12uAVQplj6GAAgoooIAClSxggFXJd8e5KaCAAgrUjADhCAEWVTMEWI4PChD8EFIRRv3mN78JL774Yqq+YokcoRVBDQETlVQsGeSJji+//HIgzCHguf7668Oll14aqKwi4CK0ysEXzdVZdkjQw0/Cre9973vpWByPY1GtxRzoMUXVEy+Cx2ICLZaFcg72ZYwePTpVYLH8r1SDMIxrfPbZZ9OfIcKyZ555Jn1GLyybuZdK2uMooIACCiigQCUKGGBV4l1xTgoooIACNSeQK7B4ghzhieODAjwlkL5OhHyEMVRXEUYR3BDQsCSQgGvDhg1h1apVqZoNV57S96EPfSjMmzcvBVIETgRIixcvToESyw4JrY4fPx5YgsdSP4IlAioqvQjKWKrIcsSf/vSnqRKL81GxxXJCjkXIxfecr/Ug9OKe5v5XzJ25EIgRXJZq8FRDel7dcMMNKaAjdKPCjCoszkeI51BAAQUUUEABBWpVoHR/q6pVIa9LAQUUUECBEggQakydOjVVEPH0O4KTUoYbJZhinx6CEIgnBlJRRNNzejsRXvEeO3pMEUBRVUXIxZI9Ai6W1dF4nYAJTz6nCor3VG6xVJDgi+PTR4vqLnpqLVq0KMycOTNVcPE0P/pVcTx6YTEPQi5CMiq2cgN4Ai3CNI7JsZkXI8+diigGn/PkQOZVykEwx9JTAiz6eBGa8VCAp59+Olx77bXnzKmU5/VYCiiggAIKKKBAJQgYYFXCXXAOCiiggAJ1IdDY2JiehEezcYIWA6xzbzsN1KmwuuCCC1IAREhEaENlE0sFaX5P+ESARH+pyy67LIVLBEaESARIBDs8gZAlh0uWLEnLNjkOg2NRjUW11aRJk9I+9CQj/KK3FBVbLPPM8yAc4nuWKBJssT8VWTSEb47hGgEVv3N+lg/mpaFUalERVY4+Z1RhMcePfvSjqZqMOXLNVK1xvnyt58r6mwIKKKCAAgooUP0CBljVfw+9AgUUUECBKhHIARZVQARYNt5+/8YRDhE6sQyOvlWEQSzXoxqKirWXXnopEN5cd911KYRiuSFL+9iG8Ipw6xe/+EX4+7//+7Br165UuUUo9Yd/+IepLxbbUMFFOIU751mxYkVqiE7lFUsQqfbiHuXgiZ5bbM9cOCbBI0Hagw8+mJYT8lRJtmFZH8v5mAPXQaUWIVe5lvSx/JGKK3ph3XfffSmw+8lPfhKWLVuWnnTZ1jLH96V9p4ACCiiggAIKVKeAAVZ13jdnrYACCihQhQI5wPrlL3+ZAqwqvISyTpnleVRfsUTw7rvvTiHNypUrU0B1zTXXpGorwieqtKiy+tSnPpVCLSqqaNrOPvSDIhwkxGGZJtVKNHYnwKL6ihe9rwgROTZhFcFPrvYqvEAqqXjRD2vWrFlpbjwFcevWrSnMYg7042I+fEbYxaD6iuWieYlh4TFL8Z5rY/kj109lGBVYXMsDDzwQvvCFL6Qlk+U6dynm7zEUUEABBRRQQIHuCBhgdUfNfRRQQAEFFOiGABU506dPT1VFVPWwFM7RIkDAhM8VV1yRQqYnn3wyVTThlZf2EV7Rx4qwiWonwiiW/7EvnoRIhFYMPqMXVu5LRQ+tvA+BV+5vRZUWSwE7CnyoqiL0ouIrh5BUbLFskACL+VARRqN4tiU0495yno6O23Ll3fsv5ySYYykh1V/07KIBPfNiaSXVZA4FFFBAAQUUUKCWBFq6j9bSFXktCiiggAIKVKgAPa8IZAYNGhTWrl1bobPs/WkRLtFriqV5LBe8+uqrw+23354alOenDbL8j1CKZYQ0VacXFsENg9CIcImn/vE+f5bDJn5nX0ImfhJ6sVzxYx/7WFr+xzGLHRyf+0djeCqtbrrpphSAMR+ug3vMeWk2T2UUoVY5BvOg/9bHP/7x1L+LqiyepvijH/0oGeYgrxzn9pgKKKCAAgoooEBfCFiB1RfqnlMBBRRQoG4FWFpG2MJSN0Kaeh8s92MZ3De/+c1A1RV9pf70T/803HjjjamXFH2t7rnnnhQGERbx1EGqm6gwWr9+fVr+R5UTTxH83Oc+F1jix9I+Qi6eZMgT+xiES1RpMahQogk8YSLhVQ690pdd+A/npSqMJu88ETDPg2WJ3N+f/exn6ToIyphPqQdhGU87/MxnPpOumbAPLyrAmIMVfqUW93gKKKCAAgoo0JcCBlh9qe+5FVBAAQXqToAAiybcBBz1PqgS2rRpU/jud78bfvzjH6cleVQS0VOK3lP0piKIIZihx9O3v/3t1B+LyieCLCqhqKgigMKUsIo+WjRcp8qKMIyqLLahP9Xu3bvTcemzxXacqxSDZYocn+OxhC+/HnnkkdRknScF3nHHHamPVqmXFOZll7/3e7+XlqbS9J6G7jSSp0cWRg4FFFBAAQUUUKAWBAywauEueg0KKKCAAlUjkCuwnn/++aqZczkmSnhFI/Uf/vCH4b/+679SdRSNya+NT9ejOoqeU4Q99KdiuR5P+1u3bl2qxPr1r3+dghmqrliqhymBFUv36AuVe0+xP+ehQmrNmjUp2KIhO8sHSxVeYUP/KQIsgjSeSEhoRqBG1RVzfOKJJ8L3vve9FChxHVxbKQfnufnmm9M8/vVf/zUtT/3+97+f3PCkUsuhgAIKKKCAAgpUu4B/o6n2O+j8FVBAAQWqSoAwhqoiQg2agBOo1NtgOR9PDbzrrrvSMjt6U1100UVpSSXL7QiAcqUSQRPhFFVXhFksj2OJIGEWDdRZfkhINGfOnPQTT4IsQhv6ZhFcPf3006nhO8sLL7zwwrRssJTmLB/kGmiszjxYIsrSRAK5/P7+++9PTwkkPGO+pRxYUVFGlRdh3X333ReWL1+eljfyOZVoXenzVcq5eSwFFFBAAQUUUKBUAgZYpZL0OAoooIACChQhQNhAGEMVDtVD9Hqqp0F1FEv8eGLez3/+87S8j15VLHdjySCNyVtXKFHZRJBF3yt6PjU3N6dKJ5qWY0gzd8IsQhr6Wi1atCiFYDRWp9KN7wmOWG5HqFTKiqRc4cUTETk24WRetsecqcS66qqr0hMQn3nmmRS8sV0pK8D484MZQdXv/u7vBvqKPfDAA2m5JddNTzEqvwyx6ul/0rxWBRRQQAEFak/AAKv27qlXpIACCihQ4QI5wCJcqacAi/CKaiUajROwECjReJ0n6VF1RcDSWUP1HGRNmjQp9bNiGeIf//Efp4otnuzIk/9oBk+lG32gCLQuv/zy1NydkIdAh2CL9xyrs/N19kfpyJEjafkj10Z1GAFc4TF5TxUWfbFWrFiRwjTOT/P3Ug/8li5dms5PiEUT+bvvvjsFaoRYBHulDs5KfQ0eTwEFFFBAAQUUaE/AAKs9GT9XQAEFFFCgTAK5x1M99cEqDK/oe0WwRLUQPasIeApDn2LYCb9mzZqVgqlt27aFW2+9NVx88cXhox/9aKAyi+bwLDP8zW9+E06cOHE2zKJBPOemMoqQKwc6VE3l/lh5+WIx82DJ3oEDB1JVV376X96P5vEESWxDI3rCrhy85W1K/ZMQCwd+slSToJAeY1zTV77ylVSl1VXrUs/R4ymggAIKKKCAAt0RMMDqjpr7KKCAAgoo0AMBlnrxlD36M7EErZRL2nowrbLtSpBD/6mHHnoo3HPPPSlgofKqJ72ZCGRYrkdwRRBIDy16XhHYUOX1hS98IXzxi19MPbLuvffetGwR7wcffDB9T6BGzyqOw3uO9aUvfSl8+tOfTj20CL24L1RK5ZCrLSACMcIvqr1o4E7/LRq6v/XWW6nHGb2+6EfFEserr746zbPcARLz5kmLf/3Xf536bf3gBz9IlVhc05e//OWwePHiDq+prev0MwUUUEABBRRQoK8FDLD6+g54fgUUUECBuhOg8oclc1u3bk3BChVBtTyOHTsWeHIgL4Km3/7t3079ojoKhorxoHKLxuUEVI8++mhYv359CpP4jOVynJdlhYRJVB+xdI8Qi8CL6iwawO/evTucPHkyPcGPZu+XXXZZoKLr8ccfT03jOQeVU/TfIuyiqolBKMdgW0IrwjiO+Y//+I/pmIRonJftadr+J3/yJ+GSSy7psGk/89i+fXt6OiNVW/jQhJ3G8DxpkaqqYgf70vSepYM8pfBHP/pRau6+ZcuW8Gd/9mfhyiuvTFVoxYZpWOLFi4oz5kIvL66b4/f0XhZ7XW6ngAIKKKCAAvUrYIBVv/feK1dAAQUU6EMBgpxXX301PVGvlgMsmpsTXBEO0Ug897sqReBBiETVFU3ad+7cmSqgrrnmmnQeQpaHH344nZdQisbvhFDMgabxhIcEXvlphgRN7MsyQoInemVRJceTItmW9zSf37t3bwqvCLM4P9VbvFjSyPc8jZBAiwCNYIcQiQBr3LhxKVxjv7YG833ssccCTyt87rnn0rEwIriirxWVYR/+8IfTExmLDZ04F9dDYEgIRtD3y1/+MvzVX/1V+PznP5+e+sjnHR2PCkGun8o25kclWQ6wMMWMKrglS5aUpa9XW1Z+poACCiiggAL1KWCAVZ/33atWQAEFFOhjgQsvvDB8//vfTyHWtdde28ezKc/pqSiiAuonP/lJCmLoT0WYU4rwimV6v/rVrwL9tGjITpN0Kqz+6Z/+KS3no4KJ8IknG955550pkCLQYVuCLJqtEyKyBPCNN95ISzmpiqPiiuWEzJNghzCLEI73VFVx3hxasVTvqaeeSk9CJFxiiSDBF2HVyJEj0xJEzsm+HYVEzIEnMn7rW98KK1euTD27CMfYh2CO0GjHjh3pvFROcexiRw6xbrjhhhSq0XOMJ0DyZ4/wjmDs+uuvTwFd6zkSXlGx9e///u/JlWo1gr48N+a0cePGVHH2R3/0R8mT8zkUUEABBRRQQIFyCBhglUPVYyqggAIKKNCJAOEJgQsBQC0Ogg4CDvpesdyMkIQlZz0Jr3LFFcvYWDJIVRdN0T/72c+mSicapb/88stpCR5B1Mc+9rFw3XWq5t9AAAAlE0lEQVTXpaVyrY0JWuhdRdjEq/XIfckKnxZItVLhYD5UJfEkxNtuuy0FOARkXRn0pSLk+/GPf5wavVNRlgfH55XDOuZJuEa1U55f3razn1xrc6yYovcY+1MVx1LK7373u+HZZ59NlVRUjRHAcY94UU3GdjSBp8qtcDAv7jEBG/eYe8vx27Is3M/3CiiggAIKKKBAdwUMsLor534KKKCAAgr0QICwgBCCJt8EWQQMtTIIN6h+YrkaAQdLzFgGxzK87gyORzUXy/eoeCJwIfihoovKIpZgEriwZI8lglRMEcRQZdWVaqWuzI0qLOZASEdoxVMNuxPOEU5xTS+99FI6XntzoA/X6tWr03YEaVxfdwb3gHvBkzB5UiNPbCREJQxkDjnQo08b18fc+DPa3sCBarfHY88wwkIDrPak/FwBBRRQQAEFeipggNVTQfdXQAEFFFCgGwIEKzTA5v/551VLfbAIPmiW/sILL6Qn3rFsjR5R3RkEVyzdo8qJJwjSZ2rBggWpootKIp4kmAdLA/mOkZf55e+68pN9aVpOsEh4xisvA+Q9g+ojArXTp0+nMIj7yZMWGXnb9Ev8T96HgIv5FoaVnIcAKffWyvu0/skxOD7bsuQQT6q1mCPz5Zx5nuybz9n6OPyelwryZ44KNqoBcaW3FS/+PBJgsYSQpvJcY0eDe0TfLirjLr/88o429TsFFFBAAQUUUKDbAgZY3aZzRwUUUEABBXomQB8slnFRpVQrARbBCWEMVVKEOldddVW3qnI4DpVU9GmisTm9oXgi35e+9KXUy6mjiif2JeQhHKKJeVeW27EvVVHMnybv/J4DH+42v+dBeESTdSqwWL5IaFcYJBVuy5JFArYrrrgiLFy4MB2C7wl/CKYIowq3z+co/Jm35bzYUJHFgwC4zs72LTxOvp7W+/A7L5YD0tOL4+fPCvdv/Z4wj2ugSsyhgAIKKKCAAgqUS8AAq1yyHlcBBRRQQIFOBGg8Tg8lAqxaGYQrBDnbtm1Ly/tYqtaVxt5UExHU0H/pvvvuCz/60Y9S1dIf/MEfhE9+8pNFhVGELuzPMkZ6YXUlwOL8VHzR94ngjIqp3C+LoIqwhhdVSRyXqio+p1qpsH8V4R3HytuyHQEWx8sBFkESS/pY+sjnHJO5tzfytvzk+pgfzd/zXOg1xv78no/FORmci9CL75kLVWDMP1dwMX+ug2tlKeDtt9+eqrz4LAde7c2L4xEUdndZY3vH9XMFFFBAAQUUUKBQwACrUMP3CiiggAIK9KIAS7dYslVLARYhDlVBhDIs5yNU6WgQqOTQhSoe+jI988wzafkh4QpPELw2PqWRCrVigyiORzVQXuJX2Ii9o7nk7whxqPD62te+Fj7zmc+kcKmzECfv295PluX98z//8we+JmA677zzUnUZVWMEXm0N5kRPL0xZPsjTEQm97rjjjvQkwZ5W8HFeel3dddddKUAklGpqakpzoz8WoWJ7g2ug0o6+bg4FFFBAAQUUUKBcAgZY5ZL1uAoooIACCnQiQDNughEagRPWFPZG6mTXiv2aoGPr1q0pXGmvIoeAKVcmEdrQf4n+STxBkDCPoOrKK69M/ZQIZqhmKja8yjC4co6Ogpe8bVs/2Z9ghl5QuYqpre2K+YzrZR5t3V+u7ZJLLgkXX3xx6j1FiMf2hYPwigonlh/SpJ5AjgCLOVKN1djYmOZZuE9X32PFuQkcmSvnJIRkbgSKhFhUabWeG9vPnj07VdvNmjWrq6d1ewUUUEABBRRQoGgBA6yiqdxQAQUUUECB0goQRBBi0SibvksEBtU+CFUYVGKxZI0whM8IPvKSOqqjCK0IurZs2RJef/31dP1UGH3kIx9JlTxU/xCAdTW4yn5UEBG44Er4U6mDOeJCzylcCIpYHshnjLw87/rrrw/XXHPNWddyXw+BFvMgwGPpJr8TMBb222J5IQ8iuO2228K0adPS/AnTHAoooIACCiigQDkEDLDKoeoxFVBAAQUUKEKAihwCAAIsKpFqIcCiIohQjqbrDz/8cKqookqHoIZAi/5SBFa7d+9O4RbVTVRZXRuXCbKUjrCJYxDc9GQQmGHK0j3mU6mDkIgG8AR1n//855PB2rVrz1ZYjRs3LtDsHx+2JeBieWNXl0V29foJrHjiIY3sqQ6bN29eePTRR9PyUJ4yyf2hgX2uCqNKi88IshwKKKCAAgoooEA5BAywyqHqMRVQQAEFFChCgACLYICG4VQK1cIgkLrxxhtTYEUQQ0N3BgENy9IIRnL4Qc+kxYsXB5aeddYrqys2uQqMaiEauVfyYOkogR5/FqiyooE6vagIq/AiwOKpgFzTT3/60/Qd1W3lDrCoAKM/G0s7WbZIldWyZctS1RxBJNVXhFU8GZKQcMOGDWmpZyVbOzcFFFBAAQUUqG4BA6zqvn/OXgEFFFCgigVyBRbL6ehpVAuDcIqKp9/5nd9J4QfLBAmSCDxYjkaFFUsFqTYjhCGkKcfgfIQwlR5gEUzlVw6sCK1aD6rJGHnb1t+X63fOx+AnFVe8Ckde6ti6N1bhNr5XQAEFFFBAAQVKIWCAVQpFj6GAAgoooEA3BPKSK35SdcOT3MoV6HRjet3eheshqOJ1+eWXd/s43d2RsIVwjKounkRYzkGPr9OnT6dT5LCHXwh2+J0X4Q4hXt6u9Xy45yybJHQr9eDcnLf1ufmcV54z82WOLPV0KKCAAgoooIAClShggFWJd8U5KaCAAgrUjQBVSSzDotcQIUItBFiVcPMI0XIj8sKgptRzW716ddi0adPZpuuFx8/hEOdniShLBZcuXVq4SXrP8kr6WnW2jJLjMPLP9Esn/yG4YnkfDdgJ2xg5VCvclWPSl4wlg/x5dCiggAIKKKCAApUmYIBVaXfE+SiggAIK1JUAwUUOsAhcuvvUvbpCK+JiCWRoNr5///705D4qsnKgVMTuRW97zz33hBUrVqTlkSwJbSsc4nzcW75v3aifebIPFVgd3fu8XZ47v+dR+D5/ln/SL+tXv/pVYJ6EpQR77Q3CLo7V3Nx8dpOumJ3dyTcKKKCAAgoooEAZBAywyoDqIRVQQAEFFChWIFdg8dS+3E+o2H3drn0BluPxouH4zp07w4wZM7q0RK+jUKjwrCxRnD9/frj99ttTQMR3hD6cu3VYxO+TJk06u7yQbQm2qIzKSw75rL2R58Txiw2W2IfqL5ZzfulLXwojRow4e3jm03rZIp8RquaRz5l/96cCCiiggAIKKNBXAgZYfSXveRVQQAEFFIgCjY2NqTE2zc5p1F3up8vVAzrhDsvxRo8eHXjK37Zt29IT81qHNaWwoGqKBvz0MNu3b186JKHPZZddFubOnXv2FMyDpXwvvvhiuuejRo1K1U7r1q1L+/E0xo7m11Fo1VmYxbJU+ltt3LgxDBs27GzvK55uSI+y1kEbk87LDc9egG8UUEABBRRQQIE+FjDA6uMb4OkVUEABBepbgACkqakphRcvvPBCuOmmm+obpERXn6uLqMAiwCJQKsc4//zzw6pVq8KaNWtSEESYRChFEDlv3rx0SgItwq37778/hUgsGWXJIJ8TWvJUxgULFqTPSj1HQrHmuCSQ3laEZ4RZLK2kKu1DH/pQuPjiiztculjq+Xg8BRRQQAEFFFCguwIGWN2Vcz8FFFBAAQVKJECARUUOQYgBVolQ3zvMkSNHwvbt27v8dD3CJV6djY9//ONh2bJladu8/de//vXAefOgtxRN1Lds2ZKWEHK/6c3FE/8IuQiSqNZqqxIqHyP/7KzaKm+Xf1KJ9pGPfCTMnj07PYmQOXLuBx54IM0xzzlv708FFFBAAQUUUKBSBQywKvXOOC8FFFBAgboRINAYOXJkCrDq5qLLfKEEPVQ5UXG0Y8eO1GuqK6ck2Ckm3CEYmjVrVjo029PLir5mhYNG6suXL0/3+I477gjnnXdeWqJH/yvmSMjUWXjFthy7mG0Lz02F37Rp09IyVT5njrt27QrPP/986o1VuK3vFVBAAQUUUECBShYwwKrku+PcFFBAAQXqQqCwAouAoatVNnWB1MWLxJBlfDz5b/fu3WnZXFdsCYvYnldHg/MU3q/WvxM8vfrqq2H9+vWpEoqKK0IrXl0Z9LBiGSI90+hj1ZXRek6EerwK592V47mtAgoooIACCijQFwL9+uKknlMBBRRQQAEF3hfgCXH0QWKJWW4E/v63vuuuAAENy/dYMnfw4MEuVWERYPHq6aDf1LPPPptCJ/plUWnX1cFSQ3pWvfHGG2Hy5MlpuWlXj+H2CiiggAIKKKBAtQsYYFX7HXT+CiiggAJVL0DQsmjRolQV89JLL1X99VTCBWBKA3OqlWjkvmfPnhRmFTM3qq6onOLVk0HwROhE/yvCq9zUvavHJICjPxqBGr2yuhOCdfWceXurtLKEPxVQQAEFFFCgrwUMsPr6Dnh+BRRQQAEFosDChQtTHyQDrNL8cSB4GT58eOpHxfI7AiwCpWIHIVZPK7CoviJ44rxLliwJ48ePL/b0Z7dj7jw9kJ5Vc+bMSf22COYKlzYWvj+7Y4nelPPYJZqih1FAAQUUUECBOhGwB1ad3GgvUwEFFFCgsgUIsOhLZIBVuvtEA3OanlOBReNylhMWOwivCG/aC3D4nOOdOnXqnKCLc+b9qJx6+umnw5QpU1LlFN91ZZw8eTKsWbMmPPzww6mS7MMf/nBaako4V1gZVfi+9fG5DoK0HN4xN37vaTjX+jz+roACCiiggAIKlFuga3+TKvdsPL4CCiiggAJ1KrBgwYLUcHzdunVp6VpnT6WrU6aiL5tQhwbuVGEdOXIk9ZAibCp2EPAQ+rQXYPEdYSMvqqRyqDRq1KjUNJ79ad5OTzOCp3HjxhV76nT/mTOVV4888kiax6233hr4M0L1FSPPi/Pm961PwOdvvvlmePDBBwNPQmSwPcHYpk2bipoT2zsUUEABBRRQQIFKEDDAqoS74BwUUEABBepegIBj5syZKfzgqXlTp06te5OeABC8tF5CSHBT7Mg9sAiiCIJaBzlUXy1fvjz84he/SEsDx4wZk7YhNJs9e3aYPn16Cs2odjpw4EAKkiZNmpRCtbaeAMg5OBfbv/7662H16tXhueeeS8tKb7755nDxxRen68nzyD/bC6+4Tq5h27Zt4Yc//GH68zR27Ng0R/Zhvuedd146fkcmHR2/o/38TgEFFFBAAQUUKLWAAVapRT2eAgoooIAC3RRYtmxZWi5GdYwBVjcR39uNgIcqNgIlKq+oRMpPIiymuo0wiQCIAIcXv/PiuLz47q233kpPBLzttttSGJRDJX4SFr322mvhQx/6UOpfRZC0ePHitB3hVmNjY8hLCjnW4cOHw/bt28MLL7yQXsyVxv5XXXVV+jlixIh03tYqOWDiGIXzYw78zvJJzkMFF43k+ZwXIRrN4HNFV+vj5t/z9ecliHn//Dnn4NwOBRRQQAEFFFCg3AIGWOUW9vgKKKCAAgoUKUCA9bOf/Sxs3rw5XHnllUXu5WbtCeQlhIQthw4dSsv5qJzqLMBiewIbek9RDUcfLYIbRg5uOM7KlStTpRWBFA3WCYX4Pm97wQUXpP5XLAV85pln0vF+/vOfB8Iono6YwyP2Yckgc+T9rFmzwnXXXRcuvPDCQNVW3q71dbJ0ccWKFWHr1q0pjOL8jBxk8ZNqLuZaOMc8P7YtfM/vhYPgb/369ckAC47H/BiF+zFv5sGfX4cCCiiggAIKKFAuAQOscsl6XAUUUEABBbooQABAryIqsBw9EyBgGTJkSKp0IrCioik3cufz9gb7UZl0xRVXpOCIJX28GHxHiJPfz58/PxBS8XTBvCywMNgh+CI4mjx5cqrE4r4SNhEq7dy5MwVWHIv5sc2ll14ampubU8P3joIr9mF5JAEXQRtVVlxfPjchUw7TCMt4AuKECRPSZznk4hgdDebEXPgzyRMcqTbjuLwKz5Pfs8QRD4cCCiiggAIKKFAuAQOscsl6XAUUUEABBbooQBhCQLBly5YUTOQlZl08jJu/J0BYQxUWL/pQsUSPMIqAqr3BPqNHjw633HJL+MhHPpLCIaqjWCZHg3aCI0Ib7hODYxEO5SCnreNyH3kS4cSJE8PSpUtTtRVLBnNTecIigiaOT+jF9p0FTWx7/fXXp4CprSV8eX7Ma+jQoamSq7NjFs6dOdAjiznneRZ+3/o95yOEcyiggAIKKKCAAuUSMMAql6zHVUABBRRQoIsChCNz585NS7aoeiH0cHRfgPCGYGjatGmpxxQVWMU0cifwIoyhsf5jjz0WHnrooRQ6ffazn00VV4XBIucoJhhiG14sByRQomqrMGTiOPlVzBUzB4IzjtPW4NgcL49i5pi35Sf7EpLhV8zgfARxDgUUUEABBRRQoFwCLc0SynV0j6uAAgoooIACXRJgudfevXtT0/Eu7ejGbQqwXJAn7hFc4UrlU14G2OYO731I4LN///7w+OOPh/vuuy/Qx4rqLUKawldXgyEOzz4cgxCKF+/5rDBw6mhu+bt8nML55Pf5uPn3rh6bc7BP3r+zn5yvO+fI1+JPBRRQQAEFFFCgMwEDrM6E/F4BBRRQQIFeFDDAKh02gQpL8lgSSGhFVRu9p9pactfWWdeuXRtWr16d+j/NmDEjVcR1J7Bq69h+poACCiiggAIKKNA1AQOsrnm5tQIKKKCAAmUVoA8WlUI8/c7RMwECLHpUzZw5M1UHvfnmm6mJOo3POxoshyPkWrNmTdi4cWOqjqIfVFNTk1VGHcH5nQIKKKCAAgooUEYBA6wy4npoBRRQQAEFuiowb968FJ7wpLrTp093dXe3byVABRZ9nKjAIhTkKYCdBVhsS3C1atWqsG/fvlTBNWvWrPREQ5fJtQL2VwUUUEABBRRQoJcEDLB6CdrTKKCAAgooUIwADb5nz54dtsQnER49erSYXdymHQGW+7F8kAos3h86dChs27YtLQlsZ5f0MU/dW758eXj++edTmDh9+vQwderU1K+qo/38TgEFFFBAAQUUUKB8AgZY5bP1yAoooIACCnRZgKbjVPtQKWSA1WW+c3agWoonCrKMkCbkVLQRYL3yyivtNnJn6SBLOOl9RYjI4H4QYtn/KnH4HwUUUEABBRRQoE8EDLD6hN2TKqCAAgoo0LaAFVhtu3T30+HDh4fJkyenZu4sHSSU4omC9LlqaxBy0bz9hRdeCMeOHQvcDxq4T5gwwQCrLTA/U0ABBRRQQAEFeknAAKuXoD2NAgoooIACxQjkAGv79u3h8OHDxeziNu0IUIE1YMCAMGzYsBREEVrt2rUr9baiEqt1Lyy+P3DgQHj22WfPVmlNmTIlLekkCLP/VTvQfqyAAgoooIACCvSCgAFWLyB7CgUUUEABBYoVIHCZNm1aqvZ57bXXit3N7ToQIHyiggrbkydPpgqsxx9/PBw5cuScvU6cOJGWDj711FNh//796Tv6ZzU3N4eBAwees62/KKCAAgoooIACCvSugAFW73p7NgUUUEABBToVGD9+fJg4cWJaytbpxm7QqQBVbZgSQtHjiicMPvzww2HTpk0p0KLyimqsV199NTz44IMp4KKRO32z5syZkxq4896hgAIKKKCAAgoo0HcCA/ru1J5ZAQUUUEABBdoSoFpo0qRJYd26dW197WddFKACC08CLMKq48ePB6qs7rnnnrQsEO99+/aFH//4x+Ghhx4Ke/bsSduNHTs2NXAfM2ZMCrO6eFo3V0ABBRRQQAEFFCihgAFWCTE9lAIKKKCAAqUQsAKrFIrvH4MnO44ePfqcEGrHjh3hm9/8Znj00UcDfa5o7k7zdsItQi4GzdtZQsj+DgUUUEABBRRQQIG+FTDA6lt/z66AAgoooMAHBKj84cl59957b1riNnjw4A9s4wfFC4wcOTL1FSt0fPfdd1OlFZVXDEKrHFzlIy9atCgtIbT/VRbxpwIKKKCAAgoo0HcC9sDqO3vPrIACCiigQJsCNBun8ofAZcWKFW1u44fFC1BBxTJBemG1fpIgQRavwvCKbfLTIOlFZv+r4q3dUgEFFFBAAQUUKJeAAVa5ZD2uAgoooIACPRDgyXf0bjLA6gHie7sSQLGEkBfhYGeD7QkQ582bF6je6tfPvy51Zub3CiiggAIKKKBAuQX8G1m5hT2+AgoooIAC3RAgQCHAevbZZ7uxt7sUClBRxbLMadOmhUGDBhV+1eZ7AiyWDxJguXywTSI/VEABBRRQQAEFel3AAKvXyT2hAgoooIACnQvkCiwDrM6titmCAKupqSkty+xo+7x8cPHixWH27NlFVWx1dDy/U0ABBRRQQAEFFCiNgAFWaRw9igIKKKCAAiUVoIk7fZs2b94ccqPxkp6gzg5GgJWr2jq6dKqveCrhggULUtWWywc70vI7BRRQQAEFFFCg9wQMsHrP2jMpoIACCijQJYHzzz8/bb9u3bou7efGHxQYMWJEWkJIkNVRKMWSwblz54ZZs2Z1uN0Hz+AnCiiggAIKKKCAAuUUMMAqp67HVkABBRRQoAcCBFg8Hc8AqweI7+1K83Z6YLE0s6NG7sOGDQsLFy4MM2bM+MATC3s+C4+ggAIKKKCAAgoo0F0BA6zuyrmfAgoooIACZRY477zz0hkMsHoOzdJAlmVSWdVeY3a2IbgiOOSJhQ4FFFBAAQUUUECByhEwwKqce+FMFFBAAQUUOEeAIIWm4mvXrk2VWOd86S9dEmDZID3FeLLgqFGj2tyXYIunD1KBNXjw4Da38UMFFFBAAQUUUECBvhEwwOobd8+qgAIKKKBApwLjxo1LFUN79uwJu3fv7nR7N2hfID9dkACLkKqtPlgEXEuWLElVWB0tM2z/LH6jgAIKKKCAAgooUC4BA6xyyXpcBRRQQAEFSiBw6aWXhiNHjoStW7eW4Gj1fQgqrObMmRMuvvjiMHTo0HN6XBFYLV68OCxbtiwtHyTwciiggAIKKKCAAgpUjoABVuXcC2eigAIKKKDABwQuueSScPToUQOsD8h0/QOqriZNmhQIBanEGjRoUDoIYdX06dPD9ddfH+g75vLBrtu6hwIKKKCAAgooUG4BA6xyC3t8BRRQQAEFeiBgBVYP8FrtSlA1ZMiQsHTp0vCxj30sjB07Nj2RsLGxMdxwww3pM5YRtrW8sNWh/FUBBRRQQAEFFFCglwUG9PL5PJ0CCiiggAIKdEGAJW0nTpxIFVjvvvuu4UoX7NralHCKJw3edtttYePGjYEnPFLl9sUvfjHMnz//bFVWW/v6mQIKKKCAAgoooEDfCRhg9Z29Z1ZAAQUUUKBTASqGCFZ27doV9u7dGyZOnNjpPm7QvgBVWP379w8XXnhh+Mu//Mtk2tTUFObOnRvokeVQQAEFFFBAAQUUqEwBA6zKvC/OSgEFFFBAgbMC9GXiKYT79u0zwDqr0rM3I0aMSA3be3YU91ZAAQUUUEABBRToLQF7YPWWtOdRQAEFFFCgGwJUDJ1//vkpwKICy6GAAgoooIACCiigQD0KGGDV4133mhVQQAEFqkqgsAKrqibuZBVQQAEFFFBAAQUUKJGAAVaJID2MAgoooIAC5RKgP9Pbb78dduzYkX6W6zweVwEFFFBAAQUUUECBShUwwKrUO+O8FFBAAQUUeE9g+PDh6cl5mzZtSk8kFEYBBRRQQAEFFFBAgXoTMMCqtzvu9SqggAIKVJ0ADcdnzpwZCLCOHz9edfN3wgoooIACCiiggAIK9FTAAKungu6vgAIKKKBAmQWowCLAeu2116zAKrO1h1dAAQUUUEABBRSoTAEDrMq8L85KAQUUUECBswKFFVgnTpw4+7lvFFBAAQUUUEABBRSoFwEDrHq5016nAgoooEDVCgwcODBMnz499OvXL7zyyitVex1OXAEFFFBAAQUUUECB7goYYHVXzv0UUEABBRToRYFJkyaF8ePHhxdffLEXz+qpFFBAAQUUUEABBRSoDAEDrMq4D85CAQUUUECBDgUIsMaNGxdeeumlDrfzSwUUUEABBRRQQAEFalHAAKsW76rXpIACCihQcwK5AssAq+ZurRekgAIKKKCAAgooUISAAVYRSG6igAIKKKBAXwvkAGvNmjXh9OnTfT0dz6+AAgoooIACCiigQK8KGGD1KrcnU0ABBRRQoHsCNHCfM2dOGDJkSFi5cmX3DuJeCiiggAIKKKCAAgpUqYABVpXeOKetgAIKKFB/ArNnzw5Dhw4Nq1atqr+L94oVUEABBRRQQAEF6lrAAKuub78Xr4ACCihQTQIEWFRgGWBV011zrgoooIACCiiggAKlEDDAKoWix1BAAQUUUKAXBHKAtXr16l44m6dQQAEFFFBAAQUUUKByBAywKudeOBMFFFBAAQU6FJg2bVqYMGFC2Lx5czhw4ECH2/qlAgoooIACCiiggAK1JGCAVUt302tRQAEFFKh5gSVLloR33nknrF+/vuav1QtUQAEFFFBAAQUUUCALGGBlCX8qoIACCihQBQI5wNqwYUMVzNYpKqCAAgoooIACCihQGgEDrNI4ehQFFFBAAQV6ReCCCy6wAqtXpD2JAgoooIACCiigQCUJGGBV0t1wLgoooIACCnQikCuwXELYCZRfK6CAAgoooIACCtSUgAFWTd1OL0YBBRRQoNYFxo8fH5qbm8Obb76ZXrV+vV6fAgoooIACCiiggAIIGGD550ABBRRQQIEqE1i6dGk4ePBg2LFjR5XN3OkqoIACCiiggAIKKNA9AQOs7rm5lwIKKKCAAn0msGzZsnDo0CEDrD67A55YAQUUUEABBRRQoLcFDLB6W9zzKaCAAgoo0EMBA6weArq7AgoooIACCiigQNUJGGBV3S1zwgoooIAC9S5AgHX48OGwbdu29ETCevfw+hVQQAEFFFBAAQVqX8AAq/bvsVeogAIKKFBjAkOGDAnz5s0Lb7zxRnjrrbdq7Oq8HAUUUEABBRRQQAEFPihggPVBEz9RQAEFFFCgogX69+8fFi5cmAKsAwcOVPRcnZwCCiiggAIKKKCAAqUQMMAqhaLHUEABBRRQoBcFCLAWLFgQdu7cGQywehHeUymggAIKKKCAAgr0mYABVp/Re2IFFFBAAQW6J2AFVvfc3EsBBRRQQAEFFFCgegUMsKr33jlzBRRQQIE6FejXr1+YPXt2OHnyZHj99ddt5F6nfw68bAUUUEABBRRQoJ4EDLDq6W57rQoooIACNSPQ2NgYpk+fHl599dVw+vTpmrkuL0QBBRRQQAEFFFBAgbYEDLDaUvEzBRRQQAEFKlxg1KhRZwOsU6dOVfhsnZ4CCiiggAIKKKCAAj0TMMDqmZ97K6CAAgoo0CcCBlh9wu5JFVBAAQUUUEABBfpIwACrj+A9rQIKKKCAAj0RyEsIN27c6BLCnkC6rwIKKKCAAgoooEBVCBhgVcVtcpIKKKCAAgqcKzBo0KDQ1NSUPnz33XfP/dLfFFBAAQUUUEABBRSoMQEDrBq7oV6OAgoooED9CEyZMiWMGTOmfi7YK1VAAQUUUEABBRSoWwEDrLq99V64AgoooEC1C0ydOtUAq9pvovNXQAEFFFBAAQUUKErAAKsoJjdSQAEFFFCg8gQMsCrvnjgjBRRQQAEFFFBAgfIIGGCVx9WjKqCAAgooUHYBlhCOGzeu7OfxBAoooIACCiiggAIK9LWAAVZf3wHPr4ACCiigQDcF+vfvH+bOnRto6O5QQAEFFFBAAQUUUKCWBQywavnuem0KKKCAAjUvQIA1cODAmr9OL1ABBRRQQAEFFFCgvgUMsOr7/nv1CiiggAJVLjBv3jwrsKr8Hjp9BRRQQAEFFFBAgc4FBnS+iVsooIACCiigQKUK5ABr37594dZbb63UaTovBXpd4LXXXuv1c3pCBRRQQAEFFCifgAFW+Ww9sgIKKKCAAmUX4EmEAwYMCCdOnAgPPPBA2c/nCRRQQAEFFFBAAQUU6AuBhjNx9MWJPacCCiiggAIKKKCAAgoooIACCiiggALFCNgDqxglt1FAAQUUUEABBRRQQAEFFFBAAQUU6DMBA6w+o/fECiiggAIKKKCAAgoooIACCiiggALFCBhgFaPkNgoooIACCiiggAIKKKCAAgoooIACfSZggNVn9J5YAQUUUEABBRRQQAEFFFBAAQUUUKAYAQOsYpTcRgEFFFBAAQUUUEABBRRQQAEFFFCgzwQMsPqM3hMroIACCiiggAIKKKCAAgoooIACChQjYIBVjJLbKKCAAgoooIACCiiggAIKKKCAAgr0mYABVp/Re2IFFFBAAQUUUEABBRRQQAEFFFBAgWIEDLCKUXIbBRRQQAEFFFBAAQUUUEABBRRQQIE+EzDA6jN6T6yAAgoooIACCiiggAIKKKCAAgooUIyAAVYxSm6jgAIKKKCAAgoooIACCiiggAIKKNBnAgZYfUbviRVQQAEFFFBAAQUUUEABBRRQQAEFihEwwCpGyW0UUEABBRRQQAEFFFBAAQUUUEABBfpMwACrz+g9sQIKKKCAAgoooIACCiiggAIKKKBAMQIGWMUouY0CCiiggAIKKKCAAgoooIACCiigQJ8JGGD1Gb0nVkABBRRQQAEFFFBAAQUUUEABBRQoRsAAqxglt1FAAQUUUEABBRRQQAEFFFBAAQUU6DMBA6w+o/fECiiggAIKKKCAAgoooIACCiiggALFCPz/XBfT1bEsjOcAAAAASUVORK5CYII=;" parent="1" vertex="1">
          <mxGeometry y="1100" width="893.72" height="480.38" as="geometry" />
        </mxCell>
        <mxCell id="2xVWgFofxz-u11tvMQmO-42" value="" style="rounded=0;whiteSpace=wrap;html=1;strokeColor=none;" vertex="1" parent="1">
          <mxGeometry x="70" y="1400" width="610" height="180" as="geometry" />
        </mxCell>
        <mxCell id="bMKl3xn3IZVW21BfCnT9-28" value="&lt;font color=&quot;#4c0099&quot; style=&quot;font-size: 25px;&quot;&gt;&lt;b&gt;far field&amp;nbsp;&lt;/b&gt;&lt;/font&gt;&lt;div&gt;&lt;font color=&quot;#4c0099&quot; style=&quot;font-size: 25px;&quot;&gt;&lt;b&gt;diffraction pattern&lt;/b&gt;&lt;/font&gt;&lt;/div&gt;" style="text;html=1;align=center;verticalAlign=middle;whiteSpace=wrap;rounded=0;" parent="1" vertex="1">
          <mxGeometry x="870" y="1260" width="170" height="90" as="geometry" />
        </mxCell>
        <mxCell id="bMKl3xn3IZVW21BfCnT9-29" value="&lt;span style=&quot;font-size: 25px;&quot;&gt;object of interest&lt;/span&gt;" style="text;html=1;align=center;verticalAlign=middle;whiteSpace=wrap;rounded=0;" parent="1" vertex="1">
          <mxGeometry x="350" y="1100" width="120" height="131" as="geometry" />
        </mxCell>
        <mxCell id="bMKl3xn3IZVW21BfCnT9-75" value="&lt;font color=&quot;#808080&quot; style=&quot;font-weight: normal; font-size: 20px;&quot;&gt;&lt;i&gt;Satisfy constraints&amp;nbsp;&lt;/i&gt;&lt;/font&gt;&lt;div style=&quot;font-size: 20px;&quot;&gt;&lt;font color=&quot;#808080&quot; style=&quot;font-weight: normal; font-size: 20px;&quot;&gt;&lt;i&gt;in Fourier&amp;nbsp;&lt;/i&gt;&lt;/font&gt;&lt;i style=&quot;font-weight: normal; color: rgb(128, 128, 128);&quot;&gt;domain&lt;/i&gt;&lt;/div&gt;" style="rounded=0;whiteSpace=wrap;html=1;strokeWidth=4;strokeColor=#FFFFFF;fontStyle=1" parent="1" vertex="1">
          <mxGeometry x="533" y="1832.5" width="257" height="67.5" as="geometry" />
        </mxCell>
        <mxCell id="2xVWgFofxz-u11tvMQmO-40" style="edgeStyle=orthogonalEdgeStyle;rounded=0;orthogonalLoop=1;jettySize=auto;html=1;exitX=0.5;exitY=1;exitDx=0;exitDy=0;entryX=0.947;entryY=0.102;entryDx=0;entryDy=0;entryPerimeter=0;strokeWidth=2;" edge="1" parent="1" source="bMKl3xn3IZVW21BfCnT9-77" target="2xVWgFofxz-u11tvMQmO-32">
          <mxGeometry relative="1" as="geometry">
            <mxPoint x="893.7200000000003" y="1505" as="sourcePoint" />
            <mxPoint x="880" y="1680" as="targetPoint" />
          </mxGeometry>
        </mxCell>
        <mxCell id="bMKl3xn3IZVW21BfCnT9-77" value="&lt;font style=&quot;font-size: 25px;&quot;&gt;oversampled intensity pattern&lt;/font&gt;" style="rounded=1;whiteSpace=wrap;html=1;strokeWidth=2;fontSize=25;fontStyle=0;strokeColor=#B3B3B3;" parent="1" vertex="1">
          <mxGeometry x="860" y="1500" width="190" height="67.5" as="geometry" />
        </mxCell>
        <mxCell id="bMKl3xn3IZVW21BfCnT9-78" value="" style="endArrow=classic;html=1;rounded=0;entryX=0.5;entryY=0;entryDx=0;entryDy=0;strokeWidth=3;endFill=0;exitX=0.5;exitY=1;exitDx=0;exitDy=0;" parent="1" source="bMKl3xn3IZVW21BfCnT9-28" target="bMKl3xn3IZVW21BfCnT9-77" edge="1">
          <mxGeometry width="50" height="50" relative="1" as="geometry">
            <mxPoint x="1123" y="1340" as="sourcePoint" />
            <mxPoint x="830" y="1780" as="targetPoint" />
            <Array as="points" />
          </mxGeometry>
        </mxCell>
        <mxCell id="bMKl3xn3IZVW21BfCnT9-87" value="Far field propagation / backpropagation" style="rounded=0;whiteSpace=wrap;html=1;fontSize=22;fillColor=#FFFFFF;strokeColor=none;fontColor=#000000;fontStyle=1" parent="1" vertex="1">
          <mxGeometry x="237" y="1590" width="450" height="42.5" as="geometry" />
        </mxCell>
        <mxCell id="xtjkG7V1aZlZciaVHmb6-1" value="" style="rounded=0;whiteSpace=wrap;html=1;strokeColor=none;" parent="1" vertex="1">
          <mxGeometry y="1079" width="120" height="501" as="geometry" />
        </mxCell>
        <mxCell id="bMKl3xn3IZVW21BfCnT9-27" value="&lt;font color=&quot;#ff4400&quot; style=&quot;font-size: 25px;&quot;&gt;coherent superposition&lt;/font&gt;" style="text;html=1;align=center;verticalAlign=middle;whiteSpace=wrap;rounded=0;fontColor=#4C0099;" parent="1" vertex="1">
          <mxGeometry x="10" y="1300" width="260" height="30" as="geometry" />
        </mxCell>
        <mxCell id="2xVWgFofxz-u11tvMQmO-17" style="edgeStyle=orthogonalEdgeStyle;rounded=0;orthogonalLoop=1;jettySize=auto;html=1;exitX=0;exitY=0.75;exitDx=0;exitDy=0;entryX=1;entryY=0.75;entryDx=0;entryDy=0;strokeWidth=3;strokeColor=#021dbc;" edge="1" parent="1" source="2xVWgFofxz-u11tvMQmO-4" target="2xVWgFofxz-u11tvMQmO-5">
          <mxGeometry relative="1" as="geometry" />
        </mxCell>
        <mxCell id="2xVWgFofxz-u11tvMQmO-4" value="&lt;font style=&quot;font-size: 17px;&quot;&gt;&lt;b&gt;Fourier domain&lt;/b&gt;&lt;/font&gt;" style="rounded=0;whiteSpace=wrap;html=1;strokeWidth=3;fillColor=#8188FD;fontColor=#000000;strokeColor=#001DBC;gradientColor=none;" vertex="1" parent="1">
          <mxGeometry x="534" y="1642.5" width="253" height="37.5" as="geometry" />
        </mxCell>
        <mxCell id="2xVWgFofxz-u11tvMQmO-18" style="edgeStyle=orthogonalEdgeStyle;rounded=0;orthogonalLoop=1;jettySize=auto;html=1;exitX=1;exitY=0.25;exitDx=0;exitDy=0;entryX=0;entryY=0.25;entryDx=0;entryDy=0;fontSize=13;strokeWidth=3;strokeColor=#021dbc;" edge="1" parent="1" source="2xVWgFofxz-u11tvMQmO-5" target="2xVWgFofxz-u11tvMQmO-4">
          <mxGeometry relative="1" as="geometry" />
        </mxCell>
        <mxCell id="2xVWgFofxz-u11tvMQmO-5" value="&lt;b style=&quot;font-size: 17px;&quot;&gt;Object domain&lt;/b&gt;" style="rounded=0;whiteSpace=wrap;html=1;strokeWidth=3;fillColor=#8188FD;fontColor=#000000;strokeColor=#001DBC;" vertex="1" parent="1">
          <mxGeometry x="117" y="1642.5" width="253" height="37.5" as="geometry" />
        </mxCell>
        <mxCell id="2xVWgFofxz-u11tvMQmO-7" value="&lt;font style=&quot;font-size: 25px;&quot;&gt;Spectral weights intial estimate&lt;/font&gt;" style="rounded=1;whiteSpace=wrap;html=1;strokeWidth=2;fontSize=25;fontStyle=2;strokeColor=#B3B3B3;" vertex="1" parent="1">
          <mxGeometry x="970" y="1648.75" width="240" height="80" as="geometry" />
        </mxCell>
        <mxCell id="2xVWgFofxz-u11tvMQmO-8" value="&lt;font style=&quot;font-size: 25px;&quot;&gt;Per wavelength random phase initialization&lt;/font&gt;" style="rounded=1;whiteSpace=wrap;html=1;strokeWidth=2;fontSize=25;fontStyle=2;strokeColor=#B3B3B3;" vertex="1" parent="1">
          <mxGeometry x="920" y="1749.5" width="290" height="74" as="geometry" />
        </mxCell>
        <mxCell id="2xVWgFofxz-u11tvMQmO-9" value="" style="endArrow=classic;html=1;rounded=0;strokeWidth=4;endFill=0;fillColor=#0050ef;strokeColor=#001DBC;" edge="1" parent="1">
          <mxGeometry width="50" height="50" relative="1" as="geometry">
            <mxPoint x="-40" y="1240" as="sourcePoint" />
            <mxPoint x="99" y="1240" as="targetPoint" />
          </mxGeometry>
        </mxCell>
        <mxCell id="2xVWgFofxz-u11tvMQmO-10" value="" style="endArrow=classic;html=1;rounded=0;strokeWidth=4;endFill=0;fillColor=#d80073;strokeColor=#A50040;" edge="1" parent="1">
          <mxGeometry width="50" height="50" relative="1" as="geometry">
            <mxPoint x="-40" y="1280" as="sourcePoint" />
            <mxPoint x="99" y="1280" as="targetPoint" />
            <Array as="points" />
          </mxGeometry>
        </mxCell>
        <mxCell id="2xVWgFofxz-u11tvMQmO-11" value="" style="endArrow=classic;html=1;rounded=0;strokeWidth=4;endFill=0;fillColor=#fa6800;strokeColor=#FF4400;" edge="1" parent="1">
          <mxGeometry width="50" height="50" relative="1" as="geometry">
            <mxPoint x="-40" y="1260" as="sourcePoint" />
            <mxPoint x="99" y="1260" as="targetPoint" />
          </mxGeometry>
        </mxCell>
        <mxCell id="2xVWgFofxz-u11tvMQmO-19" style="edgeStyle=orthogonalEdgeStyle;rounded=0;orthogonalLoop=1;jettySize=auto;html=1;exitX=0;exitY=0.75;exitDx=0;exitDy=0;entryX=1;entryY=0.75;entryDx=0;entryDy=0;strokeWidth=3;strokeColor=#FF4400;" edge="1" parent="1" source="2xVWgFofxz-u11tvMQmO-20" target="2xVWgFofxz-u11tvMQmO-22">
          <mxGeometry relative="1" as="geometry" />
        </mxCell>
        <mxCell id="2xVWgFofxz-u11tvMQmO-20" value="&lt;b style=&quot;font-size: 17px;&quot;&gt;Fourier domain&lt;/b&gt;" style="rounded=0;whiteSpace=wrap;html=1;strokeWidth=3;fillColor=#ffa57d;fontColor=#000000;strokeColor=#FF4400;" vertex="1" parent="1">
          <mxGeometry x="534" y="1691.25" width="253" height="37.5" as="geometry" />
        </mxCell>
        <mxCell id="2xVWgFofxz-u11tvMQmO-21" style="edgeStyle=orthogonalEdgeStyle;rounded=0;orthogonalLoop=1;jettySize=auto;html=1;exitX=1;exitY=0.25;exitDx=0;exitDy=0;entryX=0;entryY=0.25;entryDx=0;entryDy=0;fontSize=13;strokeWidth=3;strokeColor=#FF4400;" edge="1" parent="1" source="2xVWgFofxz-u11tvMQmO-22" target="2xVWgFofxz-u11tvMQmO-20">
          <mxGeometry relative="1" as="geometry" />
        </mxCell>
        <mxCell id="2xVWgFofxz-u11tvMQmO-22" value="&lt;b style=&quot;font-size: 17px;&quot;&gt;Object domain&lt;/b&gt;" style="rounded=0;whiteSpace=wrap;html=1;strokeWidth=3;fillColor=#ffa57d;fontColor=#000000;strokeColor=#FF4400;" vertex="1" parent="1">
          <mxGeometry x="117" y="1691.25" width="253" height="37.5" as="geometry" />
        </mxCell>
        <mxCell id="2xVWgFofxz-u11tvMQmO-23" style="edgeStyle=orthogonalEdgeStyle;rounded=0;orthogonalLoop=1;jettySize=auto;html=1;exitX=0;exitY=0.75;exitDx=0;exitDy=0;entryX=1;entryY=0.75;entryDx=0;entryDy=0;strokeWidth=3;strokeColor=#a50040;" edge="1" parent="1" source="2xVWgFofxz-u11tvMQmO-24" target="2xVWgFofxz-u11tvMQmO-26">
          <mxGeometry relative="1" as="geometry" />
        </mxCell>
        <mxCell id="2xVWgFofxz-u11tvMQmO-24" value="&lt;b style=&quot;font-size: 17px;&quot;&gt;Fourier domain&lt;/b&gt;" style="rounded=0;whiteSpace=wrap;html=1;strokeWidth=3;fillColor=#FF9999;fontColor=#000000;strokeColor=#a50040;" vertex="1" parent="1">
          <mxGeometry x="533" y="1740" width="253" height="37.5" as="geometry" />
        </mxCell>
        <mxCell id="2xVWgFofxz-u11tvMQmO-25" style="edgeStyle=orthogonalEdgeStyle;rounded=0;orthogonalLoop=1;jettySize=auto;html=1;exitX=1;exitY=0.25;exitDx=0;exitDy=0;entryX=0;entryY=0.25;entryDx=0;entryDy=0;fontSize=13;strokeWidth=3;strokeColor=#a50040;" edge="1" parent="1" source="2xVWgFofxz-u11tvMQmO-26" target="2xVWgFofxz-u11tvMQmO-24">
          <mxGeometry relative="1" as="geometry" />
        </mxCell>
        <mxCell id="2xVWgFofxz-u11tvMQmO-26" value="&lt;b style=&quot;font-size: 17px;&quot;&gt;Object domain&lt;/b&gt;" style="rounded=0;whiteSpace=wrap;html=1;strokeWidth=3;fillColor=#FF9999;fontColor=#000000;strokeColor=#a50040;" vertex="1" parent="1">
          <mxGeometry x="116" y="1740" width="253" height="37.5" as="geometry" />
        </mxCell>
        <mxCell id="2xVWgFofxz-u11tvMQmO-27" style="edgeStyle=orthogonalEdgeStyle;rounded=0;orthogonalLoop=1;jettySize=auto;html=1;exitX=0;exitY=0.75;exitDx=0;exitDy=0;entryX=1;entryY=0.75;entryDx=0;entryDy=0;strokeWidth=3;strokeColor=#808080;dashed=1;dashPattern=1 2;" edge="1" parent="1" source="2xVWgFofxz-u11tvMQmO-28" target="2xVWgFofxz-u11tvMQmO-30">
          <mxGeometry relative="1" as="geometry" />
        </mxCell>
        <mxCell id="2xVWgFofxz-u11tvMQmO-28" value="&lt;b style=&quot;font-size: 17px;&quot;&gt;Fourier domain&lt;/b&gt;" style="rounded=0;whiteSpace=wrap;html=1;strokeWidth=3;fillColor=#E6E6E6;fontColor=#000000;strokeColor=#808080;dashed=1;dashPattern=1 2;" vertex="1" parent="1">
          <mxGeometry x="534" y="1792.75" width="253" height="37.5" as="geometry" />
        </mxCell>
        <mxCell id="2xVWgFofxz-u11tvMQmO-29" style="edgeStyle=orthogonalEdgeStyle;rounded=0;orthogonalLoop=1;jettySize=auto;html=1;exitX=1;exitY=0.25;exitDx=0;exitDy=0;entryX=0;entryY=0.25;entryDx=0;entryDy=0;fontSize=13;strokeWidth=3;strokeColor=#808080;dashed=1;dashPattern=1 2;" edge="1" parent="1" source="2xVWgFofxz-u11tvMQmO-30" target="2xVWgFofxz-u11tvMQmO-28">
          <mxGeometry relative="1" as="geometry" />
        </mxCell>
        <mxCell id="2xVWgFofxz-u11tvMQmO-30" value="&lt;b style=&quot;font-size: 17px;&quot;&gt;Object domain&lt;/b&gt;" style="rounded=0;whiteSpace=wrap;html=1;strokeWidth=3;fillColor=#E6E6E6;fontColor=#000000;strokeColor=#808080;dashed=1;dashPattern=1 2;" vertex="1" parent="1">
          <mxGeometry x="117" y="1792.75" width="253" height="37.5" as="geometry" />
        </mxCell>
        <mxCell id="2xVWgFofxz-u11tvMQmO-31" value="Spectral weights" style="rounded=0;whiteSpace=wrap;html=1;" vertex="1" parent="1">
          <mxGeometry x="-590" y="1882.5" width="210" height="60" as="geometry" />
        </mxCell>
        <mxCell id="2xVWgFofxz-u11tvMQmO-32" value="" style="rounded=0;whiteSpace=wrap;html=1;strokeWidth=3;fillColor=#000000;" vertex="1" parent="1">
          <mxGeometry x="800" y="1640" width="12" height="192.5" as="geometry" />
        </mxCell>
        <mxCell id="2xVWgFofxz-u11tvMQmO-33" value="" style="rounded=0;whiteSpace=wrap;html=1;strokeWidth=3;fillColor=default;fontColor=#000000;strokeColor=#001DBC;" vertex="1" parent="1">
          <mxGeometry x="120" y="1920" width="110" height="110" as="geometry" />
        </mxCell>
        <mxCell id="2xVWgFofxz-u11tvMQmO-34" value="" style="rounded=0;whiteSpace=wrap;html=1;strokeWidth=3;fillColor=default;fontColor=#000000;strokeColor=#FF4400;" vertex="1" parent="1">
          <mxGeometry x="250" y="1920" width="110" height="110" as="geometry" />
        </mxCell>
        <mxCell id="2xVWgFofxz-u11tvMQmO-35" value="" style="rounded=0;whiteSpace=wrap;html=1;strokeWidth=3;fillColor=default;fontColor=#000000;strokeColor=#a50040;" vertex="1" parent="1">
          <mxGeometry x="382" y="1920" width="110" height="110" as="geometry" />
        </mxCell>
        <mxCell id="2xVWgFofxz-u11tvMQmO-36" value="" style="endArrow=classic;html=1;rounded=0;exitX=0;exitY=0.5;exitDx=0;exitDy=0;strokeWidth=2;strokeColor=#021dbc;" edge="1" parent="1" source="2xVWgFofxz-u11tvMQmO-8">
          <mxGeometry width="50" height="50" relative="1" as="geometry">
            <mxPoint x="879" y="1778.75" as="sourcePoint" />
            <mxPoint x="812" y="1722.5" as="targetPoint" />
          </mxGeometry>
        </mxCell>
        <mxCell id="2xVWgFofxz-u11tvMQmO-37" value="" style="endArrow=classic;html=1;rounded=0;exitX=0;exitY=0.5;exitDx=0;exitDy=0;strokeWidth=2;strokeColor=#ff4500;" edge="1" parent="1" source="2xVWgFofxz-u11tvMQmO-8">
          <mxGeometry width="50" height="50" relative="1" as="geometry">
            <mxPoint x="879" y="1778.75" as="sourcePoint" />
            <mxPoint x="811" y="1752.5" as="targetPoint" />
          </mxGeometry>
        </mxCell>
        <mxCell id="2xVWgFofxz-u11tvMQmO-38" value="" style="endArrow=classic;html=1;rounded=0;exitX=0;exitY=0.5;exitDx=0;exitDy=0;strokeWidth=2;entryX=0.75;entryY=0.727;entryDx=0;entryDy=0;entryPerimeter=0;strokeColor=#a50040;" edge="1" parent="1" source="2xVWgFofxz-u11tvMQmO-8" target="2xVWgFofxz-u11tvMQmO-32">
          <mxGeometry width="50" height="50" relative="1" as="geometry">
            <mxPoint x="879" y="1778.75" as="sourcePoint" />
            <mxPoint x="809" y="1772.5" as="targetPoint" />
          </mxGeometry>
        </mxCell>
        <mxCell id="2xVWgFofxz-u11tvMQmO-39" style="edgeStyle=orthogonalEdgeStyle;rounded=0;orthogonalLoop=1;jettySize=auto;html=1;entryX=1;entryY=0.25;entryDx=0;entryDy=0;strokeWidth=2;" edge="1" parent="1" source="2xVWgFofxz-u11tvMQmO-7" target="2xVWgFofxz-u11tvMQmO-32">
          <mxGeometry relative="1" as="geometry">
            <mxPoint x="870" y="1750" as="targetPoint" />
          </mxGeometry>
        </mxCell>
        <mxCell id="2xVWgFofxz-u11tvMQmO-44" value="&lt;span style=&quot;font-size: 17px;&quot;&gt;&lt;b&gt;S&lt;/b&gt;&lt;/span&gt;" style="rounded=0;whiteSpace=wrap;html=1;strokeWidth=3;fillColor=default;fontColor=#000000;strokeColor=#001DBC;" vertex="1" parent="1">
          <mxGeometry x="-13" y="1546.25" width="60" height="60" as="geometry" />
        </mxCell>
        <mxCell id="2xVWgFofxz-u11tvMQmO-46" value="" style="endArrow=classic;html=1;rounded=0;exitX=0;exitY=1;exitDx=0;exitDy=0;entryX=1;entryY=0.5;entryDx=0;entryDy=0;strokeWidth=2;strokeColor=#021dbc;" edge="1" parent="1" source="2xVWgFofxz-u11tvMQmO-5" target="2xVWgFofxz-u11tvMQmO-44">
          <mxGeometry width="50" height="50" relative="1" as="geometry">
            <mxPoint x="597" y="1852.5" as="sourcePoint" />
            <mxPoint x="647" y="1802.5" as="targetPoint" />
          </mxGeometry>
        </mxCell>
        <mxCell id="2xVWgFofxz-u11tvMQmO-47" value="" style="endArrow=classic;html=1;rounded=0;exitX=1;exitY=0.5;exitDx=0;exitDy=0;entryX=0;entryY=0;entryDx=0;entryDy=0;strokeWidth=2;strokeColor=#021dbc;" edge="1" parent="1" source="2xVWgFofxz-u11tvMQmO-44" target="2xVWgFofxz-u11tvMQmO-5">
          <mxGeometry width="50" height="50" relative="1" as="geometry">
            <mxPoint x="57" y="1662.5" as="sourcePoint" />
            <mxPoint x="647" y="1802.5" as="targetPoint" />
          </mxGeometry>
        </mxCell>
        <mxCell id="2xVWgFofxz-u11tvMQmO-49" value="&lt;span style=&quot;font-size: 17px;&quot;&gt;&lt;b&gt;S&lt;/b&gt;&lt;/span&gt;" style="rounded=0;whiteSpace=wrap;html=1;strokeWidth=3;fillColor=default;fontColor=#000000;strokeColor=#FF4400;" vertex="1" parent="1">
          <mxGeometry x="-13" y="1620" width="60" height="55" as="geometry" />
        </mxCell>
        <mxCell id="2xVWgFofxz-u11tvMQmO-50" value="&lt;span style=&quot;font-size: 17px;&quot;&gt;&lt;b&gt;S&lt;/b&gt;&lt;/span&gt;" style="rounded=0;whiteSpace=wrap;html=1;strokeWidth=3;fillColor=default;fontColor=#000000;strokeColor=#a50040;" vertex="1" parent="1">
          <mxGeometry x="-13" y="1685" width="60" height="60" as="geometry" />
        </mxCell>
        <mxCell id="2xVWgFofxz-u11tvMQmO-51" value="&lt;span style=&quot;font-size: 17px;&quot;&gt;&lt;b&gt;S&lt;/b&gt;&lt;/span&gt;" style="rounded=0;whiteSpace=wrap;html=1;strokeWidth=3;fillColor=default;fontColor=#000000;strokeColor=#808080;dashed=1;dashPattern=1 2;" vertex="1" parent="1">
          <mxGeometry x="-13" y="1756.5" width="60" height="60" as="geometry" />
        </mxCell>
        <mxCell id="2xVWgFofxz-u11tvMQmO-52" value="" style="endArrow=classic;html=1;rounded=0;exitX=0;exitY=1;exitDx=0;exitDy=0;entryX=1;entryY=0.5;entryDx=0;entryDy=0;strokeWidth=2;strokeColor=#FF4400;" edge="1" parent="1" source="2xVWgFofxz-u11tvMQmO-22" target="2xVWgFofxz-u11tvMQmO-49">
          <mxGeometry width="50" height="50" relative="1" as="geometry">
            <mxPoint x="117" y="1775" as="sourcePoint" />
            <mxPoint x="46" y="1745" as="targetPoint" />
          </mxGeometry>
        </mxCell>
        <mxCell id="2xVWgFofxz-u11tvMQmO-53" value="" style="endArrow=classic;html=1;rounded=0;exitX=1;exitY=0.5;exitDx=0;exitDy=0;entryX=0;entryY=0;entryDx=0;entryDy=0;strokeWidth=2;strokeColor=#FF4400;" edge="1" parent="1" source="2xVWgFofxz-u11tvMQmO-49" target="2xVWgFofxz-u11tvMQmO-22">
          <mxGeometry width="50" height="50" relative="1" as="geometry">
            <mxPoint x="46" y="1745" as="sourcePoint" />
            <mxPoint x="117" y="1715" as="targetPoint" />
          </mxGeometry>
        </mxCell>
        <mxCell id="2xVWgFofxz-u11tvMQmO-54" value="" style="endArrow=classic;html=1;rounded=0;exitX=0;exitY=0.75;exitDx=0;exitDy=0;entryX=1;entryY=0.5;entryDx=0;entryDy=0;strokeWidth=2;strokeColor=#a50040;" edge="1" parent="1" source="2xVWgFofxz-u11tvMQmO-26" target="2xVWgFofxz-u11tvMQmO-50">
          <mxGeometry width="50" height="50" relative="1" as="geometry">
            <mxPoint x="117" y="1855" as="sourcePoint" />
            <mxPoint x="46" y="1825" as="targetPoint" />
          </mxGeometry>
        </mxCell>
        <mxCell id="2xVWgFofxz-u11tvMQmO-55" value="" style="endArrow=classic;html=1;rounded=0;exitX=1;exitY=0.5;exitDx=0;exitDy=0;entryX=0;entryY=0;entryDx=0;entryDy=0;strokeWidth=2;strokeColor=#a50040;" edge="1" parent="1" source="2xVWgFofxz-u11tvMQmO-50" target="2xVWgFofxz-u11tvMQmO-26">
          <mxGeometry width="50" height="50" relative="1" as="geometry">
            <mxPoint x="46" y="1825" as="sourcePoint" />
            <mxPoint x="117" y="1795" as="targetPoint" />
          </mxGeometry>
        </mxCell>
        <mxCell id="2xVWgFofxz-u11tvMQmO-56" value="" style="endArrow=classic;html=1;rounded=0;exitX=0;exitY=1;exitDx=0;exitDy=0;entryX=1;entryY=0.5;entryDx=0;entryDy=0;strokeWidth=2;dashed=1;dashPattern=1 2;strokeColor=#808080;" edge="1" parent="1" source="2xVWgFofxz-u11tvMQmO-30" target="2xVWgFofxz-u11tvMQmO-51">
          <mxGeometry width="50" height="50" relative="1" as="geometry">
            <mxPoint x="118" y="1935" as="sourcePoint" />
            <mxPoint x="47" y="1905" as="targetPoint" />
          </mxGeometry>
        </mxCell>
        <mxCell id="2xVWgFofxz-u11tvMQmO-57" value="" style="endArrow=classic;html=1;rounded=0;exitX=1;exitY=0.5;exitDx=0;exitDy=0;strokeWidth=2;dashed=1;dashPattern=1 2;strokeColor=#808080;" edge="1" parent="1" source="2xVWgFofxz-u11tvMQmO-51">
          <mxGeometry width="50" height="50" relative="1" as="geometry">
            <mxPoint x="47" y="1905" as="sourcePoint" />
            <mxPoint x="117" y="1792.5" as="targetPoint" />
          </mxGeometry>
        </mxCell>
        <mxCell id="2xVWgFofxz-u11tvMQmO-59" value="" style="rounded=0;whiteSpace=wrap;html=1;fillColor=none;" vertex="1" parent="1">
          <mxGeometry x="-24" y="1532.5" width="80" height="300" as="geometry" />
        </mxCell>
        <mxCell id="2xVWgFofxz-u11tvMQmO-62" value="&lt;font color=&quot;#808080&quot; style=&quot;font-weight: normal; font-size: 20px;&quot;&gt;&lt;i&gt;Satisfy constraints&amp;nbsp;&lt;/i&gt;&lt;/font&gt;&lt;div style=&quot;font-size: 20px;&quot;&gt;&lt;font color=&quot;#808080&quot; style=&quot;font-weight: normal; font-size: 20px;&quot;&gt;&lt;i&gt;in object&amp;nbsp;&lt;/i&gt;&lt;/font&gt;&lt;i style=&quot;font-weight: normal; color: rgb(128, 128, 128);&quot;&gt;domain&lt;/i&gt;&lt;/div&gt;" style="rounded=0;whiteSpace=wrap;html=1;strokeWidth=4;strokeColor=#FFFFFF;fontStyle=1" vertex="1" parent="1">
          <mxGeometry x="116" y="1840" width="254" height="60" as="geometry" />
        </mxCell>
      </root>
    </mxGraphModel>
  </diagram>
</mxfile>
